<svg version="1.1" viewBox="0.0 0.0 600.0 371.0" fill="none" stroke="none" stroke-linecap="square" stroke-miterlimit="10" width="600" height="371" xmlns:xlink="http://www.w3.org/1999/xlink" xmlns="http://www.w3.org/2000/svg"><path fill="#ffffff" d="M0 0L600.0 0L600.0 371.0L0 371.0L0 0Z" fill-rule="nonzero"/><path stroke="#cccccc" stroke-width="1.0" stroke-linecap="butt" d="M77.5 61.5L77.5 300.5" fill-rule="nonzero"/><path stroke="#cccccc" stroke-width="1.0" stroke-linecap="butt" d="M203.5 61.5L203.5 300.5" fill-rule="nonzero"/><path stroke="#cccccc" stroke-width="1.0" stroke-linecap="butt" d="M329.5 61.5L329.5 300.5" fill-rule="nonzero"/><path stroke="#cccccc" stroke-width="1.0" stroke-linecap="butt" d="M455.5 61.5L455.5 300.5" fill-rule="nonzero"/><path stroke="#cccccc" stroke-width="1.0" stroke-linecap="butt" d="M581.5 61.5L581.5 300.5" fill-rule="nonzero"/><path stroke="#333333" stroke-width="1.0" stroke-linecap="butt" d="M77.5 300.5L581.5 300.5" fill-rule="nonzero"/><path stroke="#cccccc" stroke-width="1.0" stroke-linecap="butt" d="M77.5 220.5L581.5 220.5" fill-rule="nonzero"/><path stroke="#cccccc" stroke-width="1.0" stroke-linecap="butt" d="M77.5 141.5L581.5 141.5" fill-rule="nonzero"/><path stroke="#cccccc" stroke-width="1.0" stroke-linecap="butt" d="M77.5 61.5L581.5 61.5" fill-rule="nonzero"/><clipPath id="id_0"><path d="M77.55 61.916668L581.45 61.916668L581.45 300.45L77.55 300.45L77.55 61.916668Z" clip-rule="nonzero"/></clipPath><path stroke="#4285f4" stroke-width="2.0" stroke-linecap="butt" clip-path="url(#id_0)" d="M77.55 293.47836C77.55 293.47836 80.90933 293.56906 82.589 293.59967C84.26867 293.63028 85.94833 293.63782 87.628 293.66208C89.30766 293.68634 90.987335 293.80997 92.667 293.74527C94.346664 293.68054 96.02634 293.6436 97.706 293.27383C99.385666 292.90408 101.06533 291.90112 102.745 291.52676C104.42467 291.15237 106.10433 291.3419 107.784 291.0276C109.46367 290.71332 111.14333 290.08588 112.823 289.64102C114.50267 289.19617 116.182335 288.7178 117.862 288.35846C119.541664 287.9991 121.22134 287.8489 122.901 287.48492C124.580666 287.12094 126.26033 286.54553 127.94 286.17462C129.61966 285.8037 131.29933 285.75287 132.979 285.2595C134.65866 284.7661 136.33833 283.76547 138.018 283.21432C139.69766 282.66315 141.37733 282.54297 143.057 281.95255C144.73666 281.3621 146.41634 280.3187 148.096 279.67163C149.77567 279.02457 151.45534 278.75766 153.135 278.07016C154.81467 277.38266 156.49434 276.09662 158.174 275.5466C159.85367 274.9966 161.53334 275.16647 163.213 274.77014C164.89267 274.3738 166.57233 273.78067 168.252 273.16867C169.93167 272.55664 171.61133 271.77386 173.291 271.09805C174.97067 270.42224 176.65033 269.9212 178.33 269.11374C180.00967 268.30624 181.68933 266.9928 183.369 266.25317C185.04866 265.51355 186.72833 265.33514 188.408 264.67596C190.08766 264.01675 191.76733 262.9783 193.447 262.298C195.12666 261.61768 196.80634 261.24832 198.486 260.59406C200.16566 259.93982 201.84534 259.09503 203.525 258.37247C205.20467 257.64993 206.88434 257.0442 208.564 256.25873C210.24367 255.47328 211.92334 254.48651 213.603 253.6597C215.28267 252.8329 216.96233 252.13101 218.642 251.29793C220.32167 250.46483 222.00133 249.37651 223.681 248.66115C225.36067 247.94577 227.04033 248.03699 228.72 247.00574C230.39967 245.97449 232.07933 243.33583 233.759 242.4736C235.43866 241.61136 237.11833 242.41782 238.798 241.83232C240.47766 241.24681 242.15733 239.7196 243.837 238.96059C245.51666 238.20157 247.19633 237.9828 248.876 237.27823C250.55566 236.57364 252.23534 235.59406 253.915 234.73311C255.59467 233.87216 257.27432 232.8825 258.954 232.1125C260.63367 231.3425 262.31332 230.7925 263.993 230.11308C265.67267 229.43365 267.35233 228.7866 269.032 228.03601C270.71167 227.28542 272.39133 226.2404 274.071 225.60951C275.75067 224.97864 277.43033 224.99481 279.11 224.25069C280.78967 223.50656 282.46933 221.79994 284.149 221.14479C285.82867 220.48964 287.50833 220.90213 289.188 220.31978C290.86768 219.73743 292.54733 218.68248 294.227 217.65065C295.90668 216.6188 297.58633 214.97804 299.266 214.12877C300.94568 213.2795 302.62534 213.3844 304.305 212.55502C305.98468 211.72565 307.66434 210.10696 309.344 209.15254C311.02368 208.19814 312.70334 207.43423 314.383 206.8285C316.06265 206.2228 317.74234 206.22998 319.422 205.5182C321.10165 204.80644 322.78134 203.4014 324.461 202.55789C326.14066 201.7144 327.82034 201.17711 329.5 200.45724C331.17966 199.7374 332.85934 199.05336 334.539 198.23875C336.21866 197.42415 337.89835 196.32991 339.578 195.56961C341.25766 194.80931 342.93735 194.34828 344.617 193.67696C346.29666 193.00563 347.97632 192.26035 349.656 191.54164C351.33566 190.82295 353.01532 190.09268 354.695 189.36475C356.37466 188.6368 358.05432 187.95506 359.734 187.17397C361.41367 186.39288 363.09332 185.43307 364.773 184.67816C366.45267 183.92325 368.13232 183.2084 369.812 182.64453C371.49167 182.08066 373.17133 181.82608 374.851 181.29495C376.53067 180.76381 378.21033 180.22139 379.89 179.45775C381.56967 178.6941 383.24933 177.44107 384.929 176.71312C386.60867 175.98518 388.28833 175.70119 389.968 175.09007C391.64767 174.47896 393.32733 173.831 395.007 173.04643C396.68668 172.26187 398.36633 170.98032 400.046 170.38269C401.72568 169.78505 403.40533 169.95805 405.085 169.46062C406.76468 168.9632 408.44434 168.11797 410.124 167.3981C411.80368 166.67825 413.48334 165.84804 415.163 165.14148C416.84268 164.4349 418.52234 163.74913 420.202 163.15869C421.88165 162.56824 423.56134 162.10413 425.241 161.5988C426.92065 161.09348 428.60034 160.82233 430.28 160.12674C431.95966 159.43114 433.63934 157.96806 435.319 157.42525C436.99866 156.88243 438.67834 157.25719 440.358 156.86984C442.03766 156.48251 443.71735 155.88219 445.397 155.10121C447.07666 154.32025 448.75635 152.86597 450.436 152.18404C452.11566 151.5021 453.79532 151.66296 455.475 151.00961C457.15466 150.35626 458.83432 149.03877 460.514 148.26392C462.19366 147.48906 463.87332 147.07808 465.553 146.36047C467.23267 145.64285 468.91232 144.68619 470.592 143.95825C472.27167 143.2303 473.95132 142.67625 475.631 141.9928C477.31067 141.30933 478.99033 140.5369 480.67 139.85748C482.34967 139.17807 484.02933 138.68468 485.709 137.91629C487.38867 137.1479 489.06833 136.118 490.748 135.24716C492.42767 134.37633 494.10733 133.37067 495.787 132.69125C497.46667 132.01184 499.14633 131.78178 500.826 131.17067C502.50568 130.55956 504.18533 129.72375 505.865 129.02457C507.54468 128.32538 509.22433 127.55609 510.904 126.97553C512.5837 126.39497 514.2633 126.22997 515.943 125.541214C517.6227 124.852455 519.3023 123.53855 520.982 122.842964C522.6617 122.14737 524.3413 121.86312 526.021 121.36766C527.7007 120.87219 529.3803 120.56037 531.06 119.87017C532.7397 119.17998 534.4193 117.96365 536.099 117.22646C537.7787 116.48927 539.4583 116.074066 541.138 115.44703C542.8177 114.81999 544.4973 113.98999 546.177 113.46425C547.8567 112.938515 549.5363 112.98935 551.216 112.292595C552.8957 111.59585 554.5753 109.92093 556.255 109.28375C557.9347 108.646576 559.6143 109.00683 561.294 108.469536C562.9737 107.93224 564.6533 106.77587 566.333 106.06C568.0127 105.34412 569.6923 104.76125 571.372 104.17428C573.0517 103.587296 574.7313 103.13897 576.411 102.538124C578.09064 101.93728 581.45 100.5692 581.45 100.5692" fill-rule="nonzero"/><path fill="#000000" fill-opacity="0.0" clip-path="url(#id_0)" d="M80.55 293.47836C80.55 295.1352 79.206856 296.47836 77.55 296.47836C75.89314 296.47836 74.55 295.1352 74.55 293.47836C74.55 291.8215 75.89314 290.47836 77.55 290.47836C79.206856 290.47836 80.55 291.8215 80.55 293.47836Z" fill-rule="nonzero"/><path fill="#000000" fill-opacity="0.0" clip-path="url(#id_0)" d="M85.589 293.59967C85.589 295.25653 84.24586 296.59967 82.589 296.59967C80.932144 296.59967 79.589 295.25653 79.589 293.59967C79.589 291.9428 80.932144 290.59967 82.589 290.59967C84.24586 290.59967 85.589 291.9428 85.589 293.59967Z" fill-rule="nonzero"/><path fill="#000000" fill-opacity="0.0" clip-path="url(#id_0)" d="M90.628 293.66208C90.628 295.3189 89.28485 296.66208 87.628 296.66208C85.971146 296.66208 84.628 295.3189 84.628 293.66208C84.628 292.00522 85.971146 290.66208 87.628 290.66208C89.28485 290.66208 90.628 292.00522 90.628 293.66208Z" fill-rule="nonzero"/><path fill="#000000" fill-opacity="0.0" clip-path="url(#id_0)" d="M95.667 293.74527C95.667 295.40213 94.32385 296.74527 92.667 296.74527C91.01015 296.74527 89.667 295.40213 89.667 293.74527C89.667 292.0884 91.01015 290.74527 92.667 290.74527C94.32385 290.74527 95.667 292.0884 95.667 293.74527Z" fill-rule="nonzero"/><path fill="#000000" fill-opacity="0.0" clip-path="url(#id_0)" d="M100.706 293.27383C100.706 294.9307 99.362854 296.27383 97.706 296.27383C96.04915 296.27383 94.706 294.9307 94.706 293.27383C94.706 291.61697 96.04915 290.27383 97.706 290.27383C99.362854 290.27383 100.706 291.61697 100.706 293.27383Z" fill-rule="nonzero"/><path fill="#000000" fill-opacity="0.0" clip-path="url(#id_0)" d="M105.745 291.52676C105.745 293.18362 104.401855 294.52676 102.745 294.52676C101.08814 294.52676 99.745 293.18362 99.745 291.52676C99.745 289.8699 101.08814 288.52676 102.745 288.52676C104.401855 288.52676 105.745 289.8699 105.745 291.52676Z" fill-rule="nonzero"/><path fill="#000000" fill-opacity="0.0" clip-path="url(#id_0)" d="M110.784 291.0276C110.784 292.68445 109.44086 294.0276 107.784 294.0276C106.127144 294.0276 104.784 292.68445 104.784 291.0276C104.784 289.37073 106.127144 288.0276 107.784 288.0276C109.44086 288.0276 110.784 289.37073 110.784 291.0276Z" fill-rule="nonzero"/><path fill="#000000" fill-opacity="0.0" clip-path="url(#id_0)" d="M115.823 289.64102C115.823 291.29788 114.47985 292.64102 112.823 292.64102C111.166145 292.64102 109.823 291.29788 109.823 289.64102C109.823 287.9842 111.166145 286.64102 112.823 286.64102C114.47985 286.64102 115.823 287.9842 115.823 289.64102Z" fill-rule="nonzero"/><path fill="#000000" fill-opacity="0.0" clip-path="url(#id_0)" d="M120.862 288.35846C120.862 290.01532 119.51885 291.35846 117.862 291.35846C116.20515 291.35846 114.862 290.01532 114.862 288.35846C114.862 286.7016 116.20515 285.35846 117.862 285.35846C119.51885 285.35846 120.862 286.7016 120.862 288.35846Z" fill-rule="nonzero"/><path fill="#000000" fill-opacity="0.0" clip-path="url(#id_0)" d="M125.901 287.48492C125.901 289.14178 124.55785 290.48492 122.901 290.48492C121.24415 290.48492 119.901 289.14178 119.901 287.48492C119.901 285.82806 121.24415 284.48492 122.901 284.48492C124.55785 284.48492 125.901 285.82806 125.901 287.48492Z" fill-rule="nonzero"/><path fill="#000000" fill-opacity="0.0" clip-path="url(#id_0)" d="M130.94 286.17462C130.94 287.83148 129.59685 289.17462 127.94 289.17462C126.28314 289.17462 124.94 287.83148 124.94 286.17462C124.94 284.51776 126.28314 283.17462 127.94 283.17462C129.59685 283.17462 130.94 284.51776 130.94 286.17462Z" fill-rule="nonzero"/><path fill="#000000" fill-opacity="0.0" clip-path="url(#id_0)" d="M135.979 285.2595C135.979 286.91635 134.63585 288.2595 132.979 288.2595C131.32214 288.2595 129.979 286.91635 129.979 285.2595C129.979 283.60263 131.32214 282.2595 132.979 282.2595C134.63585 282.2595 135.979 283.60263 135.979 285.2595Z" fill-rule="nonzero"/><path fill="#000000" fill-opacity="0.0" clip-path="url(#id_0)" d="M141.018 283.21432C141.018 284.87115 139.67485 286.21432 138.018 286.21432C136.36115 286.21432 135.018 284.87115 135.018 283.21432C135.018 281.55746 136.36115 280.21432 138.018 280.21432C139.67485 280.21432 141.018 281.55746 141.018 283.21432Z" fill-rule="nonzero"/><path fill="#000000" fill-opacity="0.0" clip-path="url(#id_0)" d="M146.057 281.95255C146.057 283.6094 144.71385 284.95255 143.057 284.95255C141.40015 284.95255 140.057 283.6094 140.057 281.95255C140.057 280.2957 141.40015 278.95255 143.057 278.95255C144.71385 278.95255 146.057 280.2957 146.057 281.95255Z" fill-rule="nonzero"/><path fill="#000000" fill-opacity="0.0" clip-path="url(#id_0)" d="M151.096 279.67163C151.096 281.3285 149.75285 282.67163 148.096 282.67163C146.43915 282.67163 145.096 281.3285 145.096 279.67163C145.096 278.01477 146.43915 276.67163 148.096 276.67163C149.75285 276.67163 151.096 278.01477 151.096 279.67163Z" fill-rule="nonzero"/><path fill="#000000" fill-opacity="0.0" clip-path="url(#id_0)" d="M156.135 278.07016C156.135 279.72702 154.79185 281.07016 153.135 281.07016C151.47815 281.07016 150.135 279.72702 150.135 278.07016C150.135 276.4133 151.47815 275.07016 153.135 275.07016C154.79185 275.07016 156.135 276.4133 156.135 278.07016Z" fill-rule="nonzero"/><path fill="#000000" fill-opacity="0.0" clip-path="url(#id_0)" d="M161.174 275.5466C161.174 277.20346 159.83086 278.5466 158.174 278.5466C156.51715 278.5466 155.174 277.20346 155.174 275.5466C155.174 273.88977 156.51715 272.5466 158.174 272.5466C159.83086 272.5466 161.174 273.88977 161.174 275.5466Z" fill-rule="nonzero"/><path fill="#000000" fill-opacity="0.0" clip-path="url(#id_0)" d="M166.213 274.77014C166.213 276.427 164.86986 277.77014 163.213 277.77014C161.55615 277.77014 160.213 276.427 160.213 274.77014C160.213 273.11328 161.55615 271.77014 163.213 271.77014C164.86986 271.77014 166.213 273.11328 166.213 274.77014Z" fill-rule="nonzero"/><path fill="#000000" fill-opacity="0.0" clip-path="url(#id_0)" d="M171.252 273.16867C171.252 274.8255 169.90886 276.16867 168.252 276.16867C166.59514 276.16867 165.252 274.8255 165.252 273.16867C165.252 271.5118 166.59514 270.16867 168.252 270.16867C169.90886 270.16867 171.252 271.5118 171.252 273.16867Z" fill-rule="nonzero"/><path fill="#000000" fill-opacity="0.0" clip-path="url(#id_0)" d="M176.291 271.09805C176.291 272.7549 174.94786 274.09805 173.291 274.09805C171.63414 274.09805 170.291 272.7549 170.291 271.09805C170.291 269.4412 171.63414 268.09805 173.291 268.09805C174.94786 268.09805 176.291 269.4412 176.291 271.09805Z" fill-rule="nonzero"/><path fill="#000000" fill-opacity="0.0" clip-path="url(#id_0)" d="M181.33 269.11374C181.33 270.77057 179.98685 272.11374 178.33 272.11374C176.67314 272.11374 175.33 270.77057 175.33 269.11374C175.33 267.45688 176.67314 266.11374 178.33 266.11374C179.98685 266.11374 181.33 267.45688 181.33 269.11374Z" fill-rule="nonzero"/><path fill="#000000" fill-opacity="0.0" clip-path="url(#id_0)" d="M186.369 266.25317C186.369 267.91003 185.02585 269.25317 183.369 269.25317C181.71214 269.25317 180.369 267.91003 180.369 266.25317C180.369 264.5963 181.71214 263.25317 183.369 263.25317C185.02585 263.25317 186.369 264.5963 186.369 266.25317Z" fill-rule="nonzero"/><path fill="#000000" fill-opacity="0.0" clip-path="url(#id_0)" d="M191.408 264.67596C191.408 266.3328 190.06485 267.67596 188.408 267.67596C186.75114 267.67596 185.408 266.3328 185.408 264.67596C185.408 263.0191 186.75114 261.67596 188.408 261.67596C190.06485 261.67596 191.408 263.0191 191.408 264.67596Z" fill-rule="nonzero"/><path fill="#000000" fill-opacity="0.0" clip-path="url(#id_0)" d="M196.447 262.298C196.447 263.95486 195.10385 265.298 193.447 265.298C191.79015 265.298 190.447 263.95486 190.447 262.298C190.447 260.64114 191.79015 259.298 193.447 259.298C195.10385 259.298 196.447 260.64114 196.447 262.298Z" fill-rule="nonzero"/><path fill="#000000" fill-opacity="0.0" clip-path="url(#id_0)" d="M201.486 260.59406C201.486 262.25092 200.14285 263.59406 198.486 263.59406C196.82915 263.59406 195.486 262.25092 195.486 260.59406C195.486 258.9372 196.82915 257.59406 198.486 257.59406C200.14285 257.59406 201.486 258.9372 201.486 260.59406Z" fill-rule="nonzero"/><path fill="#000000" fill-opacity="0.0" clip-path="url(#id_0)" d="M206.525 258.37247C206.525 260.02933 205.18185 261.37247 203.525 261.37247C201.86815 261.37247 200.525 260.02933 200.525 258.37247C200.525 256.71564 201.86815 255.37248 203.525 255.37248C205.18185 255.37248 206.525 256.71564 206.525 258.37247Z" fill-rule="nonzero"/><path fill="#000000" fill-opacity="0.0" clip-path="url(#id_0)" d="M211.564 256.25873C211.564 257.9156 210.22086 259.25873 208.564 259.25873C206.90715 259.25873 205.564 257.9156 205.564 256.25873C205.564 254.60188 206.90715 253.25874 208.564 253.25874C210.22086 253.25874 211.564 254.60188 211.564 256.25873Z" fill-rule="nonzero"/><path fill="#000000" fill-opacity="0.0" clip-path="url(#id_0)" d="M216.603 253.6597C216.603 255.31656 215.25986 256.6597 213.603 256.6597C211.94615 256.6597 210.603 255.31656 210.603 253.6597C210.603 252.00285 211.94615 250.6597 213.603 250.6597C215.25986 250.6597 216.603 252.00285 216.603 253.6597Z" fill-rule="nonzero"/><path fill="#000000" fill-opacity="0.0" clip-path="url(#id_0)" d="M221.642 251.29793C221.642 252.95477 220.29886 254.29793 218.642 254.29793C216.98515 254.29793 215.642 252.95477 215.642 251.29793C215.642 249.64107 216.98515 248.29793 218.642 248.29793C220.29886 248.29793 221.642 249.64107 221.642 251.29793Z" fill-rule="nonzero"/><path fill="#000000" fill-opacity="0.0" clip-path="url(#id_0)" d="M226.681 248.66115C226.681 250.318 225.33786 251.66115 223.681 251.66115C222.02414 251.66115 220.681 250.318 220.681 248.66115C220.681 247.00429 222.02414 245.66115 223.681 245.66115C225.33786 245.66115 226.681 247.00429 226.681 248.66115Z" fill-rule="nonzero"/><path fill="#000000" fill-opacity="0.0" clip-path="url(#id_0)" d="M231.72 247.00574C231.72 248.6626 230.37686 250.00574 228.72 250.00574C227.06314 250.00574 225.72 248.6626 225.72 247.00574C225.72 245.34888 227.06314 244.00574 228.72 244.00574C230.37686 244.00574 231.72 245.34888 231.72 247.00574Z" fill-rule="nonzero"/><path fill="#000000" fill-opacity="0.0" clip-path="url(#id_0)" d="M236.759 242.4736C236.759 244.13046 235.41585 245.4736 233.759 245.4736C232.10214 245.4736 230.759 244.13046 230.759 242.4736C230.759 240.81674 232.10214 239.4736 233.759 239.4736C235.41585 239.4736 236.759 240.81674 236.759 242.4736Z" fill-rule="nonzero"/><path fill="#000000" fill-opacity="0.0" clip-path="url(#id_0)" d="M241.798 241.83232C241.798 243.48917 240.45485 244.83232 238.798 244.83232C237.14114 244.83232 235.798 243.48917 235.798 241.83232C235.798 240.17546 237.14114 238.83232 238.798 238.83232C240.45485 238.83232 241.798 240.17546 241.798 241.83232Z" fill-rule="nonzero"/><path fill="#000000" fill-opacity="0.0" clip-path="url(#id_0)" d="M246.837 238.96059C246.837 240.61745 245.49385 241.96059 243.837 241.96059C242.18015 241.96059 240.837 240.61745 240.837 238.96059C240.837 237.30374 242.18015 235.96059 243.837 235.96059C245.49385 235.96059 246.837 237.30374 246.837 238.96059Z" fill-rule="nonzero"/><path fill="#000000" fill-opacity="0.0" clip-path="url(#id_0)" d="M251.876 237.27823C251.876 238.93507 250.53285 240.27823 248.876 240.27823C247.21915 240.27823 245.876 238.93507 245.876 237.27823C245.876 235.62137 247.21915 234.27823 248.876 234.27823C250.53285 234.27823 251.876 235.62137 251.876 237.27823Z" fill-rule="nonzero"/><path fill="#000000" fill-opacity="0.0" clip-path="url(#id_0)" d="M256.915 234.73311C256.915 236.38997 255.57185 237.73311 253.915 237.73311C252.25815 237.73311 250.915 236.38997 250.915 234.73311C250.915 233.07625 252.25815 231.73311 253.915 231.73311C255.57185 231.73311 256.915 233.07625 256.915 234.73311Z" fill-rule="nonzero"/><path fill="#000000" fill-opacity="0.0" clip-path="url(#id_0)" d="M261.954 232.1125C261.954 233.76936 260.61084 235.1125 258.954 235.1125C257.29715 235.1125 255.954 233.76936 255.954 232.1125C255.954 230.45564 257.29715 229.1125 258.954 229.1125C260.61084 229.1125 261.954 230.45564 261.954 232.1125Z" fill-rule="nonzero"/><path fill="#000000" fill-opacity="0.0" clip-path="url(#id_0)" d="M266.993 230.11308C266.993 231.76993 265.64984 233.11308 263.993 233.11308C262.33615 233.11308 260.993 231.76993 260.993 230.11308C260.993 228.45622 262.33615 227.11308 263.993 227.11308C265.64984 227.11308 266.993 228.45622 266.993 230.11308Z" fill-rule="nonzero"/><path fill="#000000" fill-opacity="0.0" clip-path="url(#id_0)" d="M272.032 228.03601C272.032 229.69286 270.68884 231.03601 269.032 231.03601C267.37515 231.03601 266.032 229.69286 266.032 228.03601C266.032 226.37915 267.37515 225.03601 269.032 225.03601C270.68884 225.03601 272.032 226.37915 272.032 228.03601Z" fill-rule="nonzero"/><path fill="#000000" fill-opacity="0.0" clip-path="url(#id_0)" d="M277.071 225.60951C277.071 227.26637 275.72784 228.60951 274.071 228.60951C272.41415 228.60951 271.071 227.26637 271.071 225.60951C271.071 223.95267 272.41415 222.60951 274.071 222.60951C275.72784 222.60951 277.071 223.95267 277.071 225.60951Z" fill-rule="nonzero"/><path fill="#000000" fill-opacity="0.0" clip-path="url(#id_0)" d="M282.11 224.25069C282.11 225.90755 280.76685 227.25069 279.11 227.25069C277.45316 227.25069 276.11 225.90755 276.11 224.25069C276.11 222.59383 277.45316 221.25069 279.11 221.25069C280.76685 221.25069 282.11 222.59383 282.11 224.25069Z" fill-rule="nonzero"/><path fill="#000000" fill-opacity="0.0" clip-path="url(#id_0)" d="M287.149 221.14479C287.149 222.80164 285.80585 224.14479 284.149 224.14479C282.49216 224.14479 281.149 222.80164 281.149 221.14479C281.149 219.48793 282.49216 218.14479 284.149 218.14479C285.80585 218.14479 287.149 219.48793 287.149 221.14479Z" fill-rule="nonzero"/><path fill="#000000" fill-opacity="0.0" clip-path="url(#id_0)" d="M292.188 220.31978C292.188 221.97664 290.84485 223.31978 289.188 223.31978C287.53116 223.31978 286.188 221.97664 286.188 220.31978C286.188 218.66292 287.53116 217.31978 289.188 217.31978C290.84485 217.31978 292.188 218.66292 292.188 220.31978Z" fill-rule="nonzero"/><path fill="#000000" fill-opacity="0.0" clip-path="url(#id_0)" d="M297.227 217.65065C297.227 219.3075 295.88385 220.65065 294.227 220.65065C292.57016 220.65065 291.227 219.3075 291.227 217.65065C291.227 215.99379 292.57016 214.65065 294.227 214.65065C295.88385 214.65065 297.227 215.99379 297.227 217.65065Z" fill-rule="nonzero"/><path fill="#000000" fill-opacity="0.0" clip-path="url(#id_0)" d="M302.266 214.12877C302.266 215.78563 300.92285 217.12877 299.266 217.12877C297.60913 217.12877 296.266 215.78563 296.266 214.12877C296.266 212.47191 297.60913 211.12877 299.266 211.12877C300.92285 211.12877 302.266 212.47191 302.266 214.12877Z" fill-rule="nonzero"/><path fill="#000000" fill-opacity="0.0" clip-path="url(#id_0)" d="M307.305 212.55502C307.305 214.21188 305.96185 215.55502 304.305 215.55502C302.64813 215.55502 301.305 214.21188 301.305 212.55502C301.305 210.89816 302.64813 209.55502 304.305 209.55502C305.96185 209.55502 307.305 210.89816 307.305 212.55502Z" fill-rule="nonzero"/><path fill="#000000" fill-opacity="0.0" clip-path="url(#id_0)" d="M312.344 209.15254C312.344 210.8094 311.00085 212.15254 309.344 212.15254C307.68713 212.15254 306.344 210.8094 306.344 209.15254C306.344 207.4957 307.68713 206.15254 309.344 206.15254C311.00085 206.15254 312.344 207.4957 312.344 209.15254Z" fill-rule="nonzero"/><path fill="#000000" fill-opacity="0.0" clip-path="url(#id_0)" d="M317.383 206.8285C317.383 208.48537 316.03986 209.8285 314.383 209.8285C312.72614 209.8285 311.383 208.48537 311.383 206.8285C311.383 205.17166 312.72614 203.8285 314.383 203.8285C316.03986 203.8285 317.383 205.17166 317.383 206.8285Z" fill-rule="nonzero"/><path fill="#000000" fill-opacity="0.0" clip-path="url(#id_0)" d="M322.422 205.5182C322.422 207.17506 321.07886 208.5182 319.422 208.5182C317.76514 208.5182 316.422 207.17506 316.422 205.5182C316.422 203.86136 317.76514 202.5182 319.422 202.5182C321.07886 202.5182 322.422 203.86136 322.422 205.5182Z" fill-rule="nonzero"/><path fill="#000000" fill-opacity="0.0" clip-path="url(#id_0)" d="M327.461 202.55789C327.461 204.21475 326.11786 205.55789 324.461 205.55789C322.80414 205.55789 321.461 204.21475 321.461 202.55789C321.461 200.90105 322.80414 199.55789 324.461 199.55789C326.11786 199.55789 327.461 200.90105 327.461 202.55789Z" fill-rule="nonzero"/><path fill="#000000" fill-opacity="0.0" clip-path="url(#id_0)" d="M332.5 200.45724C332.5 202.1141 331.15686 203.45724 329.5 203.45724C327.84314 203.45724 326.5 202.1141 326.5 200.45724C326.5 198.8004 327.84314 197.45724 329.5 197.45724C331.15686 197.45724 332.5 198.8004 332.5 200.45724Z" fill-rule="nonzero"/><path fill="#000000" fill-opacity="0.0" clip-path="url(#id_0)" d="M337.539 198.23875C337.539 199.8956 336.19586 201.23875 334.539 201.23875C332.88214 201.23875 331.539 199.8956 331.539 198.23875C331.539 196.5819 332.88214 195.23875 334.539 195.23875C336.19586 195.23875 337.539 196.5819 337.539 198.23875Z" fill-rule="nonzero"/><path fill="#000000" fill-opacity="0.0" clip-path="url(#id_0)" d="M342.578 195.56961C342.578 197.22647 341.23486 198.56961 339.578 198.56961C337.92114 198.56961 336.578 197.22647 336.578 195.56961C336.578 193.91277 337.92114 192.56961 339.578 192.56961C341.23486 192.56961 342.578 193.91277 342.578 195.56961Z" fill-rule="nonzero"/><path fill="#000000" fill-opacity="0.0" clip-path="url(#id_0)" d="M347.617 193.67696C347.617 195.33382 346.27386 196.67696 344.617 196.67696C342.96014 196.67696 341.617 195.33382 341.617 193.67696C341.617 192.0201 342.96014 190.67696 344.617 190.67696C346.27386 190.67696 347.617 192.0201 347.617 193.67696Z" fill-rule="nonzero"/><path fill="#000000" fill-opacity="0.0" clip-path="url(#id_0)" d="M352.656 191.54164C352.656 193.1985 351.31287 194.54164 349.656 194.54164C347.99915 194.54164 346.656 193.1985 346.656 191.54164C346.656 189.8848 347.99915 188.54164 349.656 188.54164C351.31287 188.54164 352.656 189.8848 352.656 191.54164Z" fill-rule="nonzero"/><path fill="#000000" fill-opacity="0.0" clip-path="url(#id_0)" d="M357.695 189.36475C357.695 191.02159 356.35187 192.36475 354.695 192.36475C353.03815 192.36475 351.695 191.02159 351.695 189.36475C351.695 187.70789 353.03815 186.36475 354.695 186.36475C356.35187 186.36475 357.695 187.70789 357.695 189.36475Z" fill-rule="nonzero"/><path fill="#000000" fill-opacity="0.0" clip-path="url(#id_0)" d="M362.734 187.17397C362.734 188.83083 361.39087 190.17397 359.734 190.17397C358.07715 190.17397 356.734 188.83083 356.734 187.17397C356.734 185.51712 358.07715 184.17397 359.734 184.17397C361.39087 184.17397 362.734 185.51712 362.734 187.17397Z" fill-rule="nonzero"/><path fill="#000000" fill-opacity="0.0" clip-path="url(#id_0)" d="M367.773 184.67816C367.773 186.33502 366.42984 187.67816 364.773 187.67816C363.11615 187.67816 361.773 186.33502 361.773 184.67816C361.773 183.0213 363.11615 181.67816 364.773 181.67816C366.42984 181.67816 367.773 183.0213 367.773 184.67816Z" fill-rule="nonzero"/><path fill="#000000" fill-opacity="0.0" clip-path="url(#id_0)" d="M372.812 182.64453C372.812 184.30138 371.46884 185.64453 369.812 185.64453C368.15515 185.64453 366.812 184.30138 366.812 182.64453C366.812 180.98767 368.15515 179.64453 369.812 179.64453C371.46884 179.64453 372.812 180.98767 372.812 182.64453Z" fill-rule="nonzero"/><path fill="#000000" fill-opacity="0.0" clip-path="url(#id_0)" d="M377.851 181.29495C377.851 182.9518 376.50784 184.29495 374.851 184.29495C373.19415 184.29495 371.851 182.9518 371.851 181.29495C371.851 179.63809 373.19415 178.29495 374.851 178.29495C376.50784 178.29495 377.851 179.63809 377.851 181.29495Z" fill-rule="nonzero"/><path fill="#000000" fill-opacity="0.0" clip-path="url(#id_0)" d="M382.89 179.45775C382.89 181.1146 381.54684 182.45775 379.89 182.45775C378.23315 182.45775 376.89 181.1146 376.89 179.45775C376.89 177.80089 378.23315 176.45775 379.89 176.45775C381.54684 176.45775 382.89 177.80089 382.89 179.45775Z" fill-rule="nonzero"/><path fill="#000000" fill-opacity="0.0" clip-path="url(#id_0)" d="M387.929 176.71312C387.929 178.36998 386.58585 179.71312 384.929 179.71312C383.27216 179.71312 381.929 178.36998 381.929 176.71312C381.929 175.05627 383.27216 173.71312 384.929 173.71312C386.58585 173.71312 387.929 175.05627 387.929 176.71312Z" fill-rule="nonzero"/><path fill="#000000" fill-opacity="0.0" clip-path="url(#id_0)" d="M392.968 175.09007C392.968 176.74692 391.62485 178.09007 389.968 178.09007C388.31116 178.09007 386.968 176.74692 386.968 175.09007C386.968 173.43321 388.31116 172.09007 389.968 172.09007C391.62485 172.09007 392.968 173.43321 392.968 175.09007Z" fill-rule="nonzero"/><path fill="#000000" fill-opacity="0.0" clip-path="url(#id_0)" d="M398.007 173.04643C398.007 174.70328 396.66385 176.04643 395.007 176.04643C393.35016 176.04643 392.007 174.70328 392.007 173.04643C392.007 171.38957 393.35016 170.04643 395.007 170.04643C396.66385 170.04643 398.007 171.38957 398.007 173.04643Z" fill-rule="nonzero"/><path fill="#000000" fill-opacity="0.0" clip-path="url(#id_0)" d="M403.046 170.38269C403.046 172.03954 401.70285 173.38269 400.046 173.38269C398.38916 173.38269 397.046 172.03954 397.046 170.38269C397.046 168.72583 398.38916 167.38269 400.046 167.38269C401.70285 167.38269 403.046 168.72583 403.046 170.38269Z" fill-rule="nonzero"/><path fill="#000000" fill-opacity="0.0" clip-path="url(#id_0)" d="M408.085 169.46062C408.085 171.11748 406.74185 172.46062 405.085 172.46062C403.42813 172.46062 402.085 171.11748 402.085 169.46062C402.085 167.80377 403.42813 166.46062 405.085 166.46062C406.74185 166.46062 408.085 167.80377 408.085 169.46062Z" fill-rule="nonzero"/><path fill="#000000" fill-opacity="0.0" clip-path="url(#id_0)" d="M413.124 167.3981C413.124 169.05496 411.78085 170.3981 410.124 170.3981C408.46713 170.3981 407.124 169.05496 407.124 167.3981C407.124 165.74126 408.46713 164.3981 410.124 164.3981C411.78085 164.3981 413.124 165.74126 413.124 167.3981Z" fill-rule="nonzero"/><path fill="#000000" fill-opacity="0.0" clip-path="url(#id_0)" d="M418.163 165.14148C418.163 166.79832 416.81985 168.14148 415.163 168.14148C413.50613 168.14148 412.163 166.79832 412.163 165.14148C412.163 163.48462 413.50613 162.14148 415.163 162.14148C416.81985 162.14148 418.163 163.48462 418.163 165.14148Z" fill-rule="nonzero"/><path fill="#000000" fill-opacity="0.0" clip-path="url(#id_0)" d="M423.202 163.15869C423.202 164.81554 421.85886 166.15869 420.202 166.15869C418.54514 166.15869 417.202 164.81554 417.202 163.15869C417.202 161.50183 418.54514 160.15869 420.202 160.15869C421.85886 160.15869 423.202 161.50183 423.202 163.15869Z" fill-rule="nonzero"/><path fill="#000000" fill-opacity="0.0" clip-path="url(#id_0)" d="M428.241 161.5988C428.241 163.25566 426.89786 164.5988 425.241 164.5988C423.58414 164.5988 422.241 163.25566 422.241 161.5988C422.241 159.94196 423.58414 158.5988 425.241 158.5988C426.89786 158.5988 428.241 159.94196 428.241 161.5988Z" fill-rule="nonzero"/><path fill="#000000" fill-opacity="0.0" clip-path="url(#id_0)" d="M433.28 160.12674C433.28 161.78358 431.93686 163.12674 430.28 163.12674C428.62314 163.12674 427.28 161.78358 427.28 160.12674C427.28 158.46988 428.62314 157.12674 430.28 157.12674C431.93686 157.12674 433.28 158.46988 433.28 160.12674Z" fill-rule="nonzero"/><path fill="#000000" fill-opacity="0.0" clip-path="url(#id_0)" d="M438.319 157.42525C438.319 159.0821 436.97586 160.42525 435.319 160.42525C433.66214 160.42525 432.319 159.0821 432.319 157.42525C432.319 155.76839 433.66214 154.42525 435.319 154.42525C436.97586 154.42525 438.319 155.76839 438.319 157.42525Z" fill-rule="nonzero"/><path fill="#000000" fill-opacity="0.0" clip-path="url(#id_0)" d="M443.358 156.86984C443.358 158.5267 442.01486 159.86984 440.358 159.86984C438.70114 159.86984 437.358 158.5267 437.358 156.86984C437.358 155.213 438.70114 153.86984 440.358 153.86984C442.01486 153.86984 443.358 155.213 443.358 156.86984Z" fill-rule="nonzero"/><path fill="#000000" fill-opacity="0.0" clip-path="url(#id_0)" d="M448.397 155.10121C448.397 156.75807 447.05386 158.10121 445.397 158.10121C443.74014 158.10121 442.397 156.75807 442.397 155.10121C442.397 153.44437 443.74014 152.10121 445.397 152.10121C447.05386 152.10121 448.397 153.44437 448.397 155.10121Z" fill-rule="nonzero"/><path fill="#000000" fill-opacity="0.0" clip-path="url(#id_0)" d="M453.436 152.18404C453.436 153.8409 452.09286 155.18404 450.436 155.18404C448.77914 155.18404 447.436 153.8409 447.436 152.18404C447.436 150.52718 448.77914 149.18404 450.436 149.18404C452.09286 149.18404 453.436 150.52718 453.436 152.18404Z" fill-rule="nonzero"/><path fill="#000000" fill-opacity="0.0" clip-path="url(#id_0)" d="M458.475 151.00961C458.475 152.66647 457.13187 154.00961 455.475 154.00961C453.81815 154.00961 452.475 152.66647 452.475 151.00961C452.475 149.35277 453.81815 148.00961 455.475 148.00961C457.13187 148.00961 458.475 149.35277 458.475 151.00961Z" fill-rule="nonzero"/><path fill="#000000" fill-opacity="0.0" clip-path="url(#id_0)" d="M463.514 148.26392C463.514 149.92078 462.17087 151.26392 460.514 151.26392C458.85715 151.26392 457.514 149.92078 457.514 148.26392C457.514 146.60706 458.85715 145.26392 460.514 145.26392C462.17087 145.26392 463.514 146.60706 463.514 148.26392Z" fill-rule="nonzero"/><path fill="#000000" fill-opacity="0.0" clip-path="url(#id_0)" d="M468.553 146.36047C468.553 148.01732 467.20987 149.36047 465.553 149.36047C463.89615 149.36047 462.553 148.01732 462.553 146.36047C462.553 144.70361 463.89615 143.36047 465.553 143.36047C467.20987 143.36047 468.553 144.70361 468.553 146.36047Z" fill-rule="nonzero"/><path fill="#000000" fill-opacity="0.0" clip-path="url(#id_0)" d="M473.592 143.95825C473.592 145.6151 472.24884 146.95825 470.592 146.95825C468.93515 146.95825 467.592 145.6151 467.592 143.95825C467.592 142.30139 468.93515 140.95825 470.592 140.95825C472.24884 140.95825 473.592 142.30139 473.592 143.95825Z" fill-rule="nonzero"/><path fill="#000000" fill-opacity="0.0" clip-path="url(#id_0)" d="M478.631 141.9928C478.631 143.64964 477.28784 144.9928 475.631 144.9928C473.97415 144.9928 472.631 143.64964 472.631 141.9928C472.631 140.33594 473.97415 138.9928 475.631 138.9928C477.28784 138.9928 478.631 140.33594 478.631 141.9928Z" fill-rule="nonzero"/><path fill="#000000" fill-opacity="0.0" clip-path="url(#id_0)" d="M483.67 139.85748C483.67 141.51434 482.32684 142.85748 480.67 142.85748C479.01315 142.85748 477.67 141.51434 477.67 139.85748C477.67 138.20064 479.01315 136.85748 480.67 136.85748C482.32684 136.85748 483.67 138.20064 483.67 139.85748Z" fill-rule="nonzero"/><path fill="#000000" fill-opacity="0.0" clip-path="url(#id_0)" d="M488.709 137.91629C488.709 139.57315 487.36584 140.91629 485.709 140.91629C484.05215 140.91629 482.709 139.57315 482.709 137.91629C482.709 136.25945 484.05215 134.91629 485.709 134.91629C487.36584 134.91629 488.709 136.25945 488.709 137.91629Z" fill-rule="nonzero"/><path fill="#000000" fill-opacity="0.0" clip-path="url(#id_0)" d="M493.748 135.24716C493.748 136.90402 492.40485 138.24716 490.748 138.24716C489.09116 138.24716 487.748 136.90402 487.748 135.24716C487.748 133.5903 489.09116 132.24716 490.748 132.24716C492.40485 132.24716 493.748 133.5903 493.748 135.24716Z" fill-rule="nonzero"/><path fill="#000000" fill-opacity="0.0" clip-path="url(#id_0)" d="M498.787 132.69125C498.787 134.34811 497.44385 135.69125 495.787 135.69125C494.13016 135.69125 492.787 134.34811 492.787 132.69125C492.787 131.0344 494.13016 129.69125 495.787 129.69125C497.44385 129.69125 498.787 131.0344 498.787 132.69125Z" fill-rule="nonzero"/><path fill="#000000" fill-opacity="0.0" clip-path="url(#id_0)" d="M503.826 131.17067C503.826 132.82751 502.48285 134.17067 500.826 134.17067C499.16916 134.17067 497.826 132.82751 497.826 131.17067C497.826 129.51381 499.16916 128.17067 500.826 128.17067C502.48285 128.17067 503.826 129.51381 503.826 131.17067Z" fill-rule="nonzero"/><path fill="#000000" fill-opacity="0.0" clip-path="url(#id_0)" d="M508.865 129.02457C508.865 130.68143 507.52185 132.02457 505.865 132.02457C504.20816 132.02457 502.865 130.68143 502.865 129.02457C502.865 127.367714 504.20816 126.02457 505.865 126.02457C507.52185 126.02457 508.865 127.367714 508.865 129.02457Z" fill-rule="nonzero"/><path fill="#000000" fill-opacity="0.0" clip-path="url(#id_0)" d="M513.904 126.97553C513.904 128.63239 512.56085 129.97554 510.904 129.97554C509.24713 129.97554 507.904 128.63239 507.904 126.97553C507.904 125.31868 509.24713 123.97553 510.904 123.97553C512.56085 123.97553 513.904 125.31868 513.904 126.97553Z" fill-rule="nonzero"/><path fill="#000000" fill-opacity="0.0" clip-path="url(#id_0)" d="M518.943 125.541214C518.943 127.19807 517.59985 128.54121 515.943 128.54121C514.28613 128.54121 512.943 127.19807 512.943 125.541214C512.943 123.88436 514.28613 122.541214 515.943 122.541214C517.59985 122.541214 518.943 123.88436 518.943 125.541214Z" fill-rule="nonzero"/><path fill="#000000" fill-opacity="0.0" clip-path="url(#id_0)" d="M523.982 122.842964C523.982 124.49982 522.63885 125.842964 520.982 125.842964C519.32513 125.842964 517.982 124.49982 517.982 122.842964C517.982 121.186104 519.32513 119.842964 520.982 119.842964C522.63885 119.842964 523.982 121.186104 523.982 122.842964Z" fill-rule="nonzero"/><path fill="#000000" fill-opacity="0.0" clip-path="url(#id_0)" d="M529.021 121.36766C529.021 123.02451 527.67786 124.36766 526.021 124.36766C524.36414 124.36766 523.021 123.02451 523.021 121.36766C523.021 119.7108 524.36414 118.36766 526.021 118.36766C527.67786 118.36766 529.021 119.7108 529.021 121.36766Z" fill-rule="nonzero"/><path fill="#000000" fill-opacity="0.0" clip-path="url(#id_0)" d="M534.06 119.87017C534.06 121.52703 532.71686 122.87017 531.06 122.87017C529.40314 122.87017 528.06 121.52703 528.06 119.87017C528.06 118.21332 529.40314 116.87017 531.06 116.87017C532.71686 116.87017 534.06 118.21332 534.06 119.87017Z" fill-rule="nonzero"/><path fill="#000000" fill-opacity="0.0" clip-path="url(#id_0)" d="M539.099 117.22646C539.099 118.883316 537.75586 120.22646 536.099 120.22646C534.44214 120.22646 533.099 118.883316 533.099 117.22646C533.099 115.5696 534.44214 114.22646 536.099 114.22646C537.75586 114.22646 539.099 115.5696 539.099 117.22646Z" fill-rule="nonzero"/><path fill="#000000" fill-opacity="0.0" clip-path="url(#id_0)" d="M544.138 115.44703C544.138 117.10388 542.79486 118.44703 541.138 118.44703C539.48114 118.44703 538.138 117.10388 538.138 115.44703C538.138 113.79018 539.48114 112.44703 541.138 112.44703C542.79486 112.44703 544.138 113.79018 544.138 115.44703Z" fill-rule="nonzero"/><path fill="#000000" fill-opacity="0.0" clip-path="url(#id_0)" d="M549.177 113.46425C549.177 115.1211 547.83386 116.46425 546.177 116.46425C544.52014 116.46425 543.177 115.1211 543.177 113.46425C543.177 111.807396 544.52014 110.46425 546.177 110.46425C547.83386 110.46425 549.177 111.807396 549.177 113.46425Z" fill-rule="nonzero"/><path fill="#000000" fill-opacity="0.0" clip-path="url(#id_0)" d="M554.216 112.292595C554.216 113.949455 552.87286 115.292595 551.216 115.292595C549.55914 115.292595 548.216 113.949455 548.216 112.292595C548.216 110.63574 549.55914 109.292595 551.216 109.292595C552.87286 109.292595 554.216 110.63574 554.216 112.292595Z" fill-rule="nonzero"/><path fill="#000000" fill-opacity="0.0" clip-path="url(#id_0)" d="M559.255 109.28375C559.255 110.940605 557.91187 112.28375 556.255 112.28375C554.59814 112.28375 553.255 110.940605 553.255 109.28375C553.255 107.6269 554.59814 106.28375 556.255 106.28375C557.91187 106.28375 559.255 107.6269 559.255 109.28375Z" fill-rule="nonzero"/><path fill="#000000" fill-opacity="0.0" clip-path="url(#id_0)" d="M564.294 108.469536C564.294 110.12639 562.95087 111.469536 561.294 111.469536C559.63715 111.469536 558.294 110.12639 558.294 108.469536C558.294 106.81268 559.63715 105.469536 561.294 105.469536C562.95087 105.469536 564.294 106.81268 564.294 108.469536Z" fill-rule="nonzero"/><path fill="#000000" fill-opacity="0.0" clip-path="url(#id_0)" d="M569.333 106.06C569.333 107.71685 567.98987 109.06 566.333 109.06C564.67615 109.06 563.333 107.71685 563.333 106.06C563.333 104.403145 564.67615 103.06 566.333 103.06C567.98987 103.06 569.333 104.403145 569.333 106.06Z" fill-rule="nonzero"/><path fill="#000000" fill-opacity="0.0" clip-path="url(#id_0)" d="M574.372 104.17428C574.372 105.83113 573.0289 107.17428 571.372 107.17428C569.71515 107.17428 568.372 105.83113 568.372 104.17428C568.372 102.51742 569.71515 101.17428 571.372 101.17428C573.0289 101.17428 574.372 102.51742 574.372 104.17428Z" fill-rule="nonzero"/><path fill="#000000" fill-opacity="0.0" clip-path="url(#id_0)" d="M579.411 102.538124C579.411 104.19498 578.0679 105.538124 576.411 105.538124C574.75415 105.538124 573.411 104.19498 573.411 102.538124C573.411 100.88127 574.75415 99.538124 576.411 99.538124C578.0679 99.538124 579.411 100.88127 579.411 102.538124Z" fill-rule="nonzero"/><path fill="#000000" fill-opacity="0.0" clip-path="url(#id_0)" d="M584.45 100.5692C584.45 102.22605 583.1069 103.5692 581.45 103.5692C579.79315 103.5692 578.45 102.22605 578.45 100.5692C578.45 98.912346 579.79315 97.5692 581.45 97.5692C583.1069 97.5692 584.45 98.912346 584.45 100.5692Z" fill-rule="nonzero"/><path fill="#000000" d="M286.95312 349.45L286.95312 340.85626L293.15625 340.85626L293.15625 341.8719L288.09375 341.8719L288.09375 344.4969L292.84375 344.4969L292.84375 345.5125L288.09375 345.5125L288.09375 348.4344L293.35938 348.4344L293.35938 349.45L286.95312 349.45ZM294.54688 346.6844L295.60938 346.59064Q295.6875 347.2469 295.96875 347.65314Q296.25 348.0594 296.82812 348.325Q297.42188 348.575 298.15625 348.575Q298.79688 348.575 299.29688 348.3875Q299.79688 348.1844 300.03125 347.85626Q300.28125 347.5125 300.28125 347.1219Q300.28125 346.71564 300.04688 346.41876Q299.8125 346.10626 299.28125 345.90314Q298.92188 345.7625 297.73438 345.48126Q296.5625 345.2 296.09375 344.95Q295.46875 344.6219 295.17188 344.15314Q294.875 343.66876 294.875 343.075Q294.875 342.4344 295.23438 341.8719Q295.60938 341.29376 296.3125 341.0125Q297.03125 340.71564 297.89062 340.71564Q298.84375 340.71564 299.57812 341.02814Q300.3125 341.325 300.70312 341.9344Q301.09375 342.52814 301.125 343.27814L300.03125 343.35626Q299.9375 342.54376 299.42188 342.1375Q298.92188 341.71564 297.9375 341.71564Q296.90625 341.71564 296.4375 342.09064Q295.96875 342.46564 295.96875 342.9969Q295.96875 343.46564 296.29688 343.7625Q296.625 344.0594 298.0 344.3719Q299.39062 344.6844 299.90625 344.91876Q300.65625 345.27814 301.01562 345.8094Q301.375 346.325 301.375 347.02814Q301.375 347.71564 300.98438 348.325Q300.59375 348.91876 299.85938 349.2625Q299.125 349.59064 298.20312 349.59064Q297.03125 349.59064 296.23438 349.2625Q295.45312 348.91876 295.0 348.23126Q294.5625 347.54376 294.54688 346.6844ZM309.0625 346.4344L310.1875 346.73126Q309.82812 348.1219 308.90625 348.85626Q307.98438 349.59064 306.64062 349.59064Q305.25 349.59064 304.375 349.02814Q303.5 348.46564 303.04688 347.40314Q302.59375 346.325 302.59375 345.09064Q302.59375 343.7469 303.10938 342.7469Q303.625 341.7469 304.5625 341.23126Q305.51562 340.71564 306.65625 340.71564Q307.9375 340.71564 308.8125 341.3719Q309.70312 342.02814 310.04688 343.21564L308.92188 343.48126Q308.625 342.54376 308.04688 342.1219Q307.48438 341.6844 306.625 341.6844Q305.64062 341.6844 304.96875 342.16876Q304.3125 342.6375 304.03125 343.4344Q303.76562 344.23126 303.76562 345.09064Q303.76562 346.1844 304.07812 346.9969Q304.40625 347.8094 305.07812 348.21564Q305.75 348.6219 306.54688 348.6219Q307.5 348.6219 308.15625 348.075Q308.82812 347.52814 309.0625 346.4344ZM314.375 347.59064L315.40625 347.4344Q315.5 348.0594 315.89062 348.3875Q316.29688 348.71564 317.03125 348.71564Q317.75 348.71564 318.09375 348.4344Q318.45312 348.1375 318.45312 347.73126Q318.45312 347.3719 318.14062 347.16876Q317.92188 347.02814 317.0625 346.8094Q315.90625 346.5125 315.45312 346.3094Q315.01562 346.09064 314.78125 345.71564Q314.54688 345.34064 314.54688 344.8719Q314.54688 344.46564 314.73438 344.10626Q314.92188 343.7469 315.25 343.5125Q315.5 343.34064 315.92188 343.21564Q316.34375 343.09064 316.84375 343.09064Q317.5625 343.09064 318.10938 343.3094Q318.67188 343.5125 318.9375 343.8719Q319.20312 344.23126 319.29688 344.825L318.26562 344.96564Q318.20312 344.4969 317.85938 344.23126Q317.53125 343.95 316.90625 343.95Q316.1875 343.95 315.875 344.2Q315.5625 344.4344 315.5625 344.7625Q315.5625 344.96564 315.6875 345.1219Q315.82812 345.29376 316.09375 345.40314Q316.25 345.46564 317.03125 345.66876Q318.15625 345.98126 318.59375 346.16876Q319.03125 346.35626 319.28125 346.71564Q319.53125 347.075 319.53125 347.6219Q319.53125 348.15314 319.21875 348.6219Q318.92188 349.075 318.34375 349.34064Q317.76562 349.59064 317.03125 349.59064Q315.8125 349.59064 315.17188 349.09064Q314.54688 348.575 314.375 347.59064ZM321.79688 342.075L321.79688 340.85626L322.85938 340.85626L322.85938 342.075L321.79688 342.075ZM321.79688 349.45L321.79688 343.23126L322.85938 343.23126L322.85938 349.45L321.79688 349.45ZM324.59375 349.96564L325.625 350.1219Q325.6875 350.59064 325.98438 350.8094Q326.375 351.10626 327.04688 351.10626Q327.78125 351.10626 328.17188 350.8094Q328.57812 350.5125 328.71875 349.9969Q328.8125 349.66876 328.79688 348.6375Q328.10938 349.45 327.07812 349.45Q325.79688 349.45 325.09375 348.52814Q324.39062 347.59064 324.39062 346.3094Q324.39062 345.41876 324.70312 344.66876Q325.03125 343.90314 325.64062 343.4969Q326.25 343.09064 327.07812 343.09064Q328.1875 343.09064 328.90625 343.98126L328.90625 343.23126L329.875 343.23126L329.875 348.60626Q329.875 350.0594 329.57812 350.66876Q329.28125 351.27814 328.64062 351.6219Q328.0 351.98126 327.0625 351.98126Q325.95312 351.98126 325.26562 351.48126Q324.57812 350.98126 324.59375 349.96564ZM325.46875 346.23126Q325.46875 347.45 325.95312 348.0125Q326.4375 348.575 327.17188 348.575Q327.90625 348.575 328.39062 348.0125Q328.89062 347.45 328.89062 346.2625Q328.89062 345.1219 328.375 344.54376Q327.875 343.96564 327.15625 343.96564Q326.45312 343.96564 325.95312 344.54376Q325.46875 345.10626 325.46875 346.23126ZM331.79688 349.45L331.79688 343.23126L332.73438 343.23126L332.73438 344.10626Q333.42188 343.09064 334.71875 343.09064Q335.28125 343.09064 335.75 343.29376Q336.23438 343.4969 336.46875 343.825Q336.70312 344.15314 336.79688 344.59064Q336.84375 344.8875 336.84375 345.6219L336.84375 349.45L335.79688 349.45L335.79688 345.66876Q335.79688 345.0125 335.67188 344.7Q335.54688 344.3875 335.23438 344.2Q334.92188 343.9969 334.5 343.9969Q333.82812 343.9969 333.32812 344.4344Q332.84375 344.85626 332.84375 346.04376L332.84375 349.45L331.79688 349.45ZM342.85938 348.6844Q342.26562 349.1844 341.71875 349.3875Q341.1875 349.59064 340.5625 349.59064Q339.53125 349.59064 338.98438 349.09064Q338.4375 348.59064 338.4375 347.8094Q338.4375 347.35626 338.64062 346.98126Q338.84375 346.59064 339.1875 346.3719Q339.53125 346.1375 339.95312 346.02814Q340.25 345.9344 340.89062 345.85626Q342.15625 345.71564 342.76562 345.4969Q342.76562 345.27814 342.76562 345.23126Q342.76562 344.575 342.46875 344.3094Q342.0625 343.96564 341.26562 343.96564Q340.53125 343.96564 340.17188 344.23126Q339.8125 344.48126 339.64062 345.1375L338.60938 344.9969Q338.75 344.34064 339.07812 343.9344Q339.40625 343.52814 340.01562 343.3094Q340.625 343.09064 341.42188 343.09064Q342.21875 343.09064 342.71875 343.27814Q343.21875 343.46564 343.45312 343.7469Q343.6875 344.02814 343.78125 344.46564Q343.82812 344.73126 343.82812 345.4344L343.82812 346.84064Q343.82812 348.3094 343.89062 348.7Q343.96875 349.09064 344.17188 349.45L343.0625 349.45Q342.90625 349.1219 342.85938 348.6844ZM342.76562 346.325Q342.1875 346.5594 341.04688 346.73126Q340.39062 346.825 340.125 346.95Q339.85938 347.0594 339.70312 347.27814Q339.5625 347.4969 339.5625 347.77814Q339.5625 348.2 339.875 348.48126Q340.20312 348.7625 340.8125 348.7625Q341.42188 348.7625 341.89062 348.4969Q342.375 348.23126 342.59375 347.7625Q342.76562 347.40314 342.76562 346.71564L342.76562 346.325ZM345.76562 349.45L345.76562 340.85626L346.82812 340.85626L346.82812 349.45L345.76562 349.45ZM353.8125 351.98126Q352.9375 350.8719 352.32812 349.40314Q351.73438 347.91876 351.73438 346.34064Q351.73438 344.95 352.17188 343.66876Q352.70312 342.1844 353.8125 340.71564L354.5625 340.71564Q353.85938 341.9344 353.625 342.45Q353.26562 343.2625 353.0625 344.1375Q352.8125 345.23126 352.8125 346.34064Q352.8125 349.16876 354.5625 351.98126L353.8125 351.98126ZM360.96875 343.23126L360.96875 349.45L360.01562 349.45L360.01562 348.71564Q359.71875 349.1844 359.42188 349.35626Q359.01562 349.59064 358.46875 349.59064Q357.98438 349.59064 357.60938 349.40314Q357.32812 349.2625 356.98438 348.825L356.98438 351.84064L355.9375 351.84064L355.9375 343.23126L356.98438 343.23126L356.98438 345.85626Q356.98438 347.29376 357.125 347.73126Q357.28125 348.15314 357.625 348.40314Q357.96875 348.6375 358.42188 348.6375Q358.89062 348.6375 359.25 348.3875Q359.625 348.1219 359.76562 347.71564Q359.92188 347.3094 359.92188 345.8875L359.92188 343.23126L360.96875 343.23126ZM362.375 347.59064L363.40625 347.4344Q363.5 348.0594 363.89062 348.3875Q364.29688 348.71564 365.03125 348.71564Q365.75 348.71564 366.09375 348.4344Q366.45312 348.1375 366.45312 347.73126Q366.45312 347.3719 366.14062 347.16876Q365.92188 347.02814 365.0625 346.8094Q363.90625 346.5125 363.45312 346.3094Q363.01562 346.09064 362.78125 345.71564Q362.54688 345.34064 362.54688 344.8719Q362.54688 344.46564 362.73438 344.10626Q362.92188 343.7469 363.25 343.5125Q363.5 343.34064 363.92188 343.21564Q364.34375 343.09064 364.84375 343.09064Q365.5625 343.09064 366.10938 343.3094Q366.67188 343.5125 366.9375 343.8719Q367.20312 344.23126 367.29688 344.825L366.26562 344.96564Q366.20312 344.4969 365.85938 344.23126Q365.53125 343.95 364.90625 343.95Q364.1875 343.95 363.875 344.2Q363.5625 344.4344 363.5625 344.7625Q363.5625 344.96564 363.6875 345.1219Q363.82812 345.29376 364.09375 345.40314Q364.25 345.46564 365.03125 345.66876Q366.15625 345.98126 366.59375 346.16876Q367.03125 346.35626 367.28125 346.71564Q367.53125 347.075 367.53125 347.6219Q367.53125 348.15314 367.21875 348.6219Q366.92188 349.075 366.34375 349.34064Q365.76562 349.59064 365.03125 349.59064Q363.8125 349.59064 363.17188 349.09064Q362.54688 348.575 362.375 347.59064ZM370.48438 351.98126L369.73438 351.98126Q371.48438 349.16876 371.48438 346.34064Q371.48438 345.2469 371.23438 344.15314Q371.03125 343.27814 370.67188 342.46564Q370.4375 341.95 369.73438 340.71564L370.48438 340.71564Q371.57812 342.1844 372.10938 343.66876Q372.5625 344.95 372.5625 346.34064Q372.5625 347.91876 371.95312 349.40314Q371.34375 350.8719 370.48438 351.98126Z" fill-rule="nonzero"/><path fill="#000000" d="M26.534388 210.12083L26.831263 208.99583Q28.221888 209.35521 28.956263 210.27708Q29.690638 211.19896 29.690638 212.54271Q29.690638 213.93333 29.128138 214.80833Q28.565638 215.68333 27.503138 216.13646Q26.425013 216.58958 25.190638 216.58958Q23.846888 216.58958 22.846888 216.07396Q21.846888 215.55833 21.331263 214.62083Q20.815638 213.66771 20.815638 212.52708Q20.815638 211.24583 21.471888 210.37083Q22.128138 209.48021 23.315638 209.13646L23.581263 210.26146Q22.643763 210.55833 22.221888 211.13646Q21.784388 211.69896 21.784388 212.55833Q21.784388 213.54271 22.268763 214.21458Q22.737513 214.87083 23.534388 215.15208Q24.331263 215.41771 25.190638 215.41771Q26.284388 215.41771 27.096888 215.10521Q27.909388 214.77708 28.315638 214.10521Q28.721888 213.43333 28.721888 212.63646Q28.721888 211.68333 28.175013 211.02708Q27.628138 210.35521 26.534388 210.12083ZM29.550013 203.30833L28.628138 203.30833Q29.690638 204.04271 29.690638 205.29271Q29.690638 205.83958 29.487513 206.32396Q29.268763 206.79271 28.956263 207.02708Q28.628138 207.26146 28.159388 207.35521Q27.862513 207.41771 27.175013 207.41771L23.331263 207.41771L23.331263 206.35521L26.784388 206.35521Q27.596888 206.35521 27.893763 206.29271Q28.300013 206.19896 28.550013 205.88646Q28.784388 205.55833 28.784388 205.07396Q28.784388 204.60521 28.550013 204.19896Q28.300013 203.77708 27.878138 203.60521Q27.456263 203.41771 26.659388 203.41771L23.331263 203.41771L23.331263 202.37083L29.550013 202.37083L29.550013 203.30833ZM29.550013 200.40208L23.331263 200.40208L23.331263 199.44896L24.268763 199.44896Q23.612513 199.08958 23.409388 198.79271Q23.190638 198.48021 23.190638 198.10521Q23.190638 197.57396 23.518763 197.02708L24.503138 197.38646Q24.268763 197.77708 24.268763 198.15208Q24.268763 198.51146 24.487513 198.79271Q24.690638 199.05833 25.065638 199.16771Q25.628138 199.35521 26.284388 199.35521L29.550013 199.35521L29.550013 200.40208ZM29.550013 196.40208L23.331263 196.40208L23.331263 195.44896L24.268763 195.44896Q23.612513 195.08958 23.409388 194.79271Q23.190638 194.48021 23.190638 194.10521Q23.190638 193.57396 23.518763 193.02708L24.503138 193.38646Q24.268763 193.77708 24.268763 194.15208Q24.268763 194.51146 24.487513 194.79271Q24.690638 195.05833 25.065638 195.16771Q25.628138 195.35521 26.284388 195.35521L29.550013 195.35521L29.550013 196.40208ZM27.550013 188.13646L27.675013 187.04271Q28.628138 187.29271 29.159388 187.99583Q29.690638 188.69896 29.690638 189.77708Q29.690638 191.13646 28.846888 191.94896Q28.003138 192.74583 26.487513 192.74583Q24.925013 192.74583 24.065638 191.93333Q23.190638 191.12083 23.190638 189.83958Q23.190638 188.58958 24.034388 187.80833Q24.878138 187.01146 26.425013 187.01146Q26.518763 187.01146 26.706263 187.01146L26.706263 191.65208Q27.737513 191.58958 28.284388 191.07396Q28.815638 190.55833 28.815638 189.77708Q28.815638 189.19896 28.518763 188.79271Q28.206263 188.37083 27.550013 188.13646ZM25.846888 191.58958L25.846888 188.12083Q25.050013 188.18333 24.659388 188.51146Q24.050013 189.02708 24.050013 189.82396Q24.050013 190.55833 24.534388 191.05833Q25.018763 191.54271 25.846888 191.58958ZM29.550013 185.38646L23.331263 185.38646L23.331263 184.44896L24.206263 184.44896Q23.190638 183.76146 23.190638 182.46458Q23.190638 181.90208 23.393763 181.43333Q23.596888 180.94896 23.925013 180.71458Q24.253138 180.48021 24.690638 180.38646Q24.987513 180.33958 25.721888 180.33958L29.550013 180.33958L29.550013 181.38646L25.768763 181.38646Q25.112513 181.38646 24.800013 181.51146Q24.487513 181.63646 24.300013 181.94896Q24.096888 182.26146 24.096888 182.68333Q24.096888 183.35521 24.534388 183.85521Q24.956263 184.33958 26.143763 184.33958L29.550013 184.33958L29.550013 185.38646ZM28.612513 176.08958L29.534388 175.93333Q29.628138 176.38646 29.628138 176.73021Q29.628138 177.30833 29.456263 177.62083Q29.268763 177.93333 28.971888 178.07396Q28.675013 178.19896 27.721888 178.19896L24.143763 178.19896L24.143763 178.96458L23.331263 178.96458L23.331263 178.19896L21.784388 178.19896L21.159388 177.15208L23.331263 177.15208L23.331263 176.08958L24.143763 176.08958L24.143763 177.15208L27.784388 177.15208Q28.237513 177.15208 28.362513 177.10521Q28.487513 177.04271 28.565638 176.91771Q28.643763 176.79271 28.643763 176.55833Q28.643763 176.37083 28.612513 176.08958ZM32.08126 170.37083Q30.971888 171.24583 29.503138 171.85521Q28.018763 172.44896 26.440638 172.44896Q25.050013 172.44896 23.768763 172.01146Q22.284388 171.48021 20.815638 170.37083L20.815638 169.62083Q22.034388 170.32396 22.550013 170.55833Q23.362513 170.91771 24.237513 171.12083Q25.331263 171.37083 26.440638 171.37083Q29.268763 171.37083 32.08126 169.62083L32.08126 170.37083ZM29.550013 169.19896L20.956263 165.90208L20.956263 164.68333L29.550013 161.16771L29.550013 162.44896L26.940638 163.46458L26.940638 167.04271L29.550013 167.99583L29.550013 169.19896ZM26.018763 166.71458L26.018763 163.80833L23.643763 164.69896Q22.565638 165.12083 21.862513 165.30833Q22.690638 165.48021 23.503138 165.77708L26.018763 166.71458ZM32.08126 160.69896L32.08126 161.44896Q29.268763 159.69896 26.440638 159.69896Q25.346888 159.69896 24.253138 159.94896Q23.378138 160.15208 22.565638 160.51146Q22.050013 160.74583 20.815638 161.44896L20.815638 160.69896Q22.284388 159.60521 23.768763 159.07396Q25.050013 158.62083 26.440638 158.62083Q28.018763 158.62083 29.503138 159.23021Q30.971888 159.83958 32.08126 160.69896Z" fill-rule="nonzero"/><path fill="#000000" d="M65.05 300.21564Q65.05 298.6844 65.3625 297.7625Q65.675 296.825 66.28438 296.325Q66.90938 295.825 67.84688 295.825Q68.53438 295.825 69.05 296.10626Q69.58125 296.3875 69.925 296.91876Q70.26875 297.4344 70.45625 298.1844Q70.64375 298.9344 70.64375 300.21564Q70.64375 301.73126 70.33125 302.65314Q70.03438 303.575 69.40938 304.09064Q68.8 304.59064 67.84688 304.59064Q66.6125 304.59064 65.89375 303.7Q65.05 302.6375 65.05 300.21564ZM66.12813 300.21564Q66.12813 302.325 66.62813 303.02814Q67.12813 303.73126 67.84688 303.73126Q68.58125 303.73126 69.06563 303.02814Q69.56563 302.325 69.56563 300.21564Q69.56563 298.09064 69.06563 297.40314Q68.58125 296.7 67.83125 296.7Q67.1125 296.7 66.675 297.3094Q66.12813 298.09064 66.12813 300.21564Z" fill-rule="nonzero"/><path fill="#000000" d="M70.59688 223.92326L70.59688 224.93889L64.90938 224.93889Q64.90938 224.56389 65.03438 224.20451Q65.25313 223.62639 65.72188 223.06389Q66.20625 222.50139 67.1125 221.76701Q68.51875 220.61076 69.00313 219.93889Q69.50313 219.26701 69.50313 218.67326Q69.50313 218.04826 69.05 217.62639Q68.59688 217.18889 67.87813 217.18889Q67.1125 217.18889 66.65938 217.64201Q66.20625 218.09514 66.19063 218.90764L65.1125 218.79826Q65.22188 217.57951 65.94063 216.95451Q66.675 216.31389 67.90938 216.31389Q69.14375 216.31389 69.8625 217.00139Q70.58125 217.68889 70.58125 218.70451Q70.58125 219.22014 70.3625 219.72014Q70.15938 220.20451 69.65938 220.76701Q69.175 221.31389 68.05 222.26701Q67.09688 223.06389 66.81563 223.36076Q66.55 223.64201 66.37813 223.92326L70.59688 223.92326Z" fill-rule="nonzero"/><path fill="#000000" d="M68.425 145.42778L68.425 143.36528L64.70625 143.36528L64.70625 142.39653L68.62813 136.83403L69.4875 136.83403L69.4875 142.39653L70.64375 142.39653L70.64375 143.36528L69.4875 143.36528L69.4875 145.42778L68.425 145.42778ZM68.425 142.39653L68.425 138.53716L65.7375 142.39653L68.425 142.39653Z" fill-rule="nonzero"/><path fill="#000000" d="M70.51875 59.43229L69.47188 59.510414Q69.33125 58.885414 69.08125 58.604164Q68.64375 58.15104 68.01875 58.15104Q67.51875 58.15104 67.12813 58.43229Q66.64375 58.80729 66.34688 59.510414Q66.06563 60.197914 66.05 61.479164Q66.425 60.90104 66.97188 60.61979Q67.53438 60.33854 68.14375 60.33854Q69.19063 60.33854 69.925 61.11979Q70.675 61.90104 70.675 63.11979Q70.675 63.93229 70.31563 64.635414Q69.97188 65.322914 69.3625 65.697914Q68.75313 66.05729 67.9875 66.05729Q66.65938 66.05729 65.83125 65.08854Q65.00313 64.11979 65.00313 61.90104Q65.00313 59.40104 65.925 58.27604Q66.72188 57.291664 68.08125 57.291664Q69.09688 57.291664 69.7375 57.86979Q70.39375 58.43229 70.51875 59.43229ZM66.22188 63.135414Q66.22188 63.68229 66.44063 64.18229Q66.675 64.666664 67.08125 64.93229Q67.50313 65.197914 67.97188 65.197914Q68.62813 65.197914 69.1125 64.666664Q69.59688 64.11979 69.59688 63.197914Q69.59688 62.30729 69.1125 61.791664Q68.64375 61.27604 67.925 61.27604Q67.20625 61.27604 66.70625 61.791664Q66.22188 62.30729 66.22188 63.135414Z" fill-rule="nonzero"/><path fill="#000000" d="M68.01875 317.45L66.97188 317.45L66.97188 310.73126Q66.58125 311.09064 65.95625 311.46564Q65.34688 311.825 64.8625 311.9969L64.8625 310.98126Q65.7375 310.5594 66.39375 309.98126Q67.06563 309.3875 67.34688 308.825L68.01875 308.825L68.01875 317.45ZM71.05 313.21564Q71.05 311.6844 71.3625 310.7625Q71.675 309.825 72.28438 309.325Q72.90938 308.825 73.84688 308.825Q74.53438 308.825 75.05 309.10626Q75.58125 309.3875 75.925 309.91876Q76.26875 310.4344 76.45625 311.1844Q76.64375 311.9344 76.64375 313.21564Q76.64375 314.73126 76.33125 315.65314Q76.03438 316.575 75.40938 317.09064Q74.8 317.59064 73.84688 317.59064Q72.6125 317.59064 71.89375 316.7Q71.05 315.6375 71.05 313.21564ZM72.12813 313.21564Q72.12813 315.325 72.62813 316.02814Q73.12813 316.73126 73.84688 316.73126Q74.58125 316.73126 75.06563 316.02814Q75.56563 315.325 75.56563 313.21564Q75.56563 311.09064 75.06563 310.40314Q74.58125 309.7 73.83125 309.7Q73.1125 309.7 72.675 310.3094Q72.12813 311.09064 72.12813 313.21564ZM78.05 313.21564Q78.05 311.6844 78.3625 310.7625Q78.675 309.825 79.28438 309.325Q79.90938 308.825 80.84688 308.825Q81.53438 308.825 82.05 309.10626Q82.58125 309.3875 82.925 309.91876Q83.26875 310.4344 83.45625 311.1844Q83.64375 311.9344 83.64375 313.21564Q83.64375 314.73126 83.33125 315.65314Q83.03438 316.575 82.40938 317.09064Q81.8 317.59064 80.84688 317.59064Q79.6125 317.59064 78.89375 316.7Q78.05 315.6375 78.05 313.21564ZM79.12813 313.21564Q79.12813 315.325 79.62813 316.02814Q80.12813 316.73126 80.84688 316.73126Q81.58125 316.73126 82.06563 316.02814Q82.56563 315.325 82.56563 313.21564Q82.56563 311.09064 82.06563 310.40314Q81.58125 309.7 80.83125 309.7Q80.1125 309.7 79.675 310.3094Q79.12813 311.09064 79.12813 313.21564ZM85.05 313.21564Q85.05 311.6844 85.3625 310.7625Q85.675 309.825 86.28438 309.325Q86.90938 308.825 87.84688 308.825Q88.53438 308.825 89.05 309.10626Q89.58125 309.3875 89.925 309.91876Q90.26875 310.4344 90.45625 311.1844Q90.64375 311.9344 90.64375 313.21564Q90.64375 314.73126 90.33125 315.65314Q90.03438 316.575 89.40938 317.09064Q88.8 317.59064 87.84688 317.59064Q86.6125 317.59064 85.89375 316.7Q85.05 315.6375 85.05 313.21564ZM86.12813 313.21564Q86.12813 315.325 86.62813 316.02814Q87.12813 316.73126 87.84688 316.73126Q88.58125 316.73126 89.06563 316.02814Q89.56563 315.325 89.56563 313.21564Q89.56563 311.09064 89.06563 310.40314Q88.58125 309.7 87.83125 309.7Q87.1125 309.7 86.675 310.3094Q86.12813 311.09064 86.12813 313.21564Z" fill-rule="nonzero"/><path fill="#000000" d="M193.99374 317.45L192.94687 317.45L192.94687 310.73126Q192.55624 311.09064 191.93124 311.46564Q191.32187 311.825 190.8375 311.9969L190.8375 310.98126Q191.7125 310.5594 192.36874 309.98126Q193.04062 309.3875 193.32187 308.825L193.99374 308.825L193.99374 317.45ZM202.57187 316.4344L202.57187 317.45L196.88437 317.45Q196.88437 317.075 197.00937 316.71564Q197.22812 316.1375 197.69687 315.575Q198.18124 315.0125 199.0875 314.27814Q200.49374 313.1219 200.97812 312.45Q201.47812 311.77814 201.47812 311.1844Q201.47812 310.5594 201.025 310.1375Q200.57187 309.7 199.85312 309.7Q199.0875 309.7 198.63437 310.15314Q198.18124 310.60626 198.16562 311.41876L197.0875 311.3094Q197.19687 310.09064 197.91562 309.46564Q198.65 308.825 199.88437 308.825Q201.11874 308.825 201.8375 309.5125Q202.55624 310.2 202.55624 311.21564Q202.55624 311.73126 202.3375 312.23126Q202.13437 312.71564 201.63437 313.27814Q201.15 313.825 200.025 314.77814Q199.07187 315.575 198.79062 315.8719Q198.525 316.15314 198.35312 316.4344L202.57187 316.4344ZM204.025 315.2L205.13437 315.10626Q205.25937 315.91876 205.69687 316.325Q206.15 316.73126 206.79062 316.73126Q207.54062 316.73126 208.07187 316.15314Q208.60312 315.575 208.60312 314.6375Q208.60312 313.73126 208.0875 313.21564Q207.5875 312.6844 206.75937 312.6844Q206.25937 312.6844 205.8375 312.91876Q205.43124 313.15314 205.19687 313.5125L204.2125 313.3875L205.04062 308.98126L209.32187 308.98126L209.32187 309.98126L205.88437 309.98126L205.43124 312.29376Q206.19687 311.7469 207.04062 311.7469Q208.16562 311.7469 208.93124 312.52814Q209.7125 313.3094 209.7125 314.54376Q209.7125 315.7 209.04062 316.5594Q208.2125 317.59064 206.79062 317.59064Q205.61874 317.59064 204.86874 316.9344Q204.13437 316.27814 204.025 315.2ZM211.025 313.21564Q211.025 311.6844 211.3375 310.7625Q211.65 309.825 212.25937 309.325Q212.88437 308.825 213.82187 308.825Q214.50937 308.825 215.025 309.10626Q215.55624 309.3875 215.9 309.91876Q216.24374 310.4344 216.43124 311.1844Q216.61874 311.9344 216.61874 313.21564Q216.61874 314.73126 216.30624 315.65314Q216.00937 316.575 215.38437 317.09064Q214.775 317.59064 213.82187 317.59064Q212.5875 317.59064 211.86874 316.7Q211.025 315.6375 211.025 313.21564ZM212.10312 313.21564Q212.10312 315.325 212.60312 316.02814Q213.10312 316.73126 213.82187 316.73126Q214.55624 316.73126 215.04062 316.02814Q215.54062 315.325 215.54062 313.21564Q215.54062 311.09064 215.04062 310.40314Q214.55624 309.7 213.80624 309.7Q213.0875 309.7 212.65 310.3094Q212.10312 311.09064 212.10312 313.21564Z" fill-rule="nonzero"/><path fill="#000000" d="M319.96875 317.45L318.92188 317.45L318.92188 310.73126Q318.53125 311.09064 317.90625 311.46564Q317.29688 311.825 316.8125 311.9969L316.8125 310.98126Q317.6875 310.5594 318.34375 309.98126Q319.01562 309.3875 319.29688 308.825L319.96875 308.825L319.96875 317.45ZM323.0 315.2L324.10938 315.10626Q324.23438 315.91876 324.67188 316.325Q325.125 316.73126 325.76562 316.73126Q326.51562 316.73126 327.04688 316.15314Q327.57812 315.575 327.57812 314.6375Q327.57812 313.73126 327.0625 313.21564Q326.5625 312.6844 325.73438 312.6844Q325.23438 312.6844 324.8125 312.91876Q324.40625 313.15314 324.17188 313.5125L323.1875 313.3875L324.01562 308.98126L328.29688 308.98126L328.29688 309.98126L324.85938 309.98126L324.40625 312.29376Q325.17188 311.7469 326.01562 311.7469Q327.14062 311.7469 327.90625 312.52814Q328.6875 313.3094 328.6875 314.54376Q328.6875 315.7 328.01562 316.5594Q327.1875 317.59064 325.76562 317.59064Q324.59375 317.59064 323.84375 316.9344Q323.10938 316.27814 323.0 315.2ZM330.0 313.21564Q330.0 311.6844 330.3125 310.7625Q330.625 309.825 331.23438 309.325Q331.85938 308.825 332.79688 308.825Q333.48438 308.825 334.0 309.10626Q334.53125 309.3875 334.875 309.91876Q335.21875 310.4344 335.40625 311.1844Q335.59375 311.9344 335.59375 313.21564Q335.59375 314.73126 335.28125 315.65314Q334.98438 316.575 334.35938 317.09064Q333.75 317.59064 332.79688 317.59064Q331.5625 317.59064 330.84375 316.7Q330.0 315.6375 330.0 313.21564ZM331.07812 313.21564Q331.07812 315.325 331.57812 316.02814Q332.07812 316.73126 332.79688 316.73126Q333.53125 316.73126 334.01562 316.02814Q334.51562 315.325 334.51562 313.21564Q334.51562 311.09064 334.01562 310.40314Q333.53125 309.7 332.78125 309.7Q332.0625 309.7 331.625 310.3094Q331.07812 311.09064 331.07812 313.21564ZM337.0 313.21564Q337.0 311.6844 337.3125 310.7625Q337.625 309.825 338.23438 309.325Q338.85938 308.825 339.79688 308.825Q340.48438 308.825 341.0 309.10626Q341.53125 309.3875 341.875 309.91876Q342.21875 310.4344 342.40625 311.1844Q342.59375 311.9344 342.59375 313.21564Q342.59375 314.73126 342.28125 315.65314Q341.98438 316.575 341.35938 317.09064Q340.75 317.59064 339.79688 317.59064Q338.5625 317.59064 337.84375 316.7Q337.0 315.6375 337.0 313.21564ZM338.07812 313.21564Q338.07812 315.325 338.57812 316.02814Q339.07812 316.73126 339.79688 316.73126Q340.53125 316.73126 341.01562 316.02814Q341.51562 315.325 341.51562 313.21564Q341.51562 311.09064 341.01562 310.40314Q340.53125 309.7 339.78125 309.7Q339.0625 309.7 338.625 310.3094Q338.07812 311.09064 338.07812 313.21564Z" fill-rule="nonzero"/><path fill="#000000" d="M445.94376 317.45L444.89688 317.45L444.89688 310.73126Q444.50626 311.09064 443.88126 311.46564Q443.27188 311.825 442.7875 311.9969L442.7875 310.98126Q443.6625 310.5594 444.31876 309.98126Q444.99063 309.3875 445.27188 308.825L445.94376 308.825L445.94376 317.45ZM449.0375 309.98126L449.0375 308.96564L454.6 308.96564L454.6 309.79376Q453.7875 310.66876 452.975 312.1219Q452.17813 313.5594 451.74063 315.09064Q451.4125 316.16876 451.33438 317.45L450.24063 317.45Q450.25626 316.4344 450.63126 314.9969Q451.02188 313.5594 451.725 312.23126Q452.44376 310.90314 453.25626 309.98126L449.0375 309.98126ZM455.975 315.2L457.08438 315.10626Q457.20938 315.91876 457.64688 316.325Q458.1 316.73126 458.74063 316.73126Q459.49063 316.73126 460.02188 316.15314Q460.55313 315.575 460.55313 314.6375Q460.55313 313.73126 460.0375 313.21564Q459.5375 312.6844 458.70938 312.6844Q458.20938 312.6844 457.7875 312.91876Q457.38126 313.15314 457.14688 313.5125L456.1625 313.3875L456.99063 308.98126L461.27188 308.98126L461.27188 309.98126L457.83438 309.98126L457.38126 312.29376Q458.14688 311.7469 458.99063 311.7469Q460.11563 311.7469 460.88126 312.52814Q461.6625 313.3094 461.6625 314.54376Q461.6625 315.7 460.99063 316.5594Q460.1625 317.59064 458.74063 317.59064Q457.56876 317.59064 456.81876 316.9344Q456.08438 316.27814 455.975 315.2ZM462.975 313.21564Q462.975 311.6844 463.2875 310.7625Q463.6 309.825 464.20938 309.325Q464.83438 308.825 465.77188 308.825Q466.45938 308.825 466.975 309.10626Q467.50626 309.3875 467.85 309.91876Q468.19376 310.4344 468.38126 311.1844Q468.56876 311.9344 468.56876 313.21564Q468.56876 314.73126 468.25626 315.65314Q467.95938 316.575 467.33438 317.09064Q466.725 317.59064 465.77188 317.59064Q464.5375 317.59064 463.81876 316.7Q462.975 315.6375 462.975 313.21564ZM464.05313 313.21564Q464.05313 315.325 464.55313 316.02814Q465.05313 316.73126 465.77188 316.73126Q466.50626 316.73126 466.99063 316.02814Q467.49063 315.325 467.49063 313.21564Q467.49063 311.09064 466.99063 310.40314Q466.50626 309.7 465.75626 309.7Q465.0375 309.7 464.6 310.3094Q464.05313 311.09064 464.05313 313.21564Z" fill-rule="nonzero"/><path fill="#000000" d="M573.4969 316.4344L573.4969 317.45L567.8094 317.45Q567.8094 317.075 567.9344 316.71564Q568.15314 316.1375 568.6219 315.575Q569.10626 315.0125 570.0125 314.27814Q571.41876 313.1219 571.90314 312.45Q572.40314 311.77814 572.40314 311.1844Q572.40314 310.5594 571.95 310.1375Q571.4969 309.7 570.77814 309.7Q570.0125 309.7 569.5594 310.15314Q569.10626 310.60626 569.09064 311.41876L568.0125 311.3094Q568.1219 310.09064 568.84064 309.46564Q569.575 308.825 570.8094 308.825Q572.04376 308.825 572.7625 309.5125Q573.48126 310.2 573.48126 311.21564Q573.48126 311.73126 573.2625 312.23126Q573.0594 312.71564 572.5594 313.27814Q572.075 313.825 570.95 314.77814Q569.9969 315.575 569.71564 315.8719Q569.45 316.15314 569.27814 316.4344L573.4969 316.4344ZM574.95 313.21564Q574.95 311.6844 575.2625 310.7625Q575.575 309.825 576.1844 309.325Q576.8094 308.825 577.7469 308.825Q578.4344 308.825 578.95 309.10626Q579.48126 309.3875 579.825 309.91876Q580.16876 310.4344 580.35626 311.1844Q580.54376 311.9344 580.54376 313.21564Q580.54376 314.73126 580.23126 315.65314Q579.9344 316.575 579.3094 317.09064Q578.7 317.59064 577.7469 317.59064Q576.5125 317.59064 575.79376 316.7Q574.95 315.6375 574.95 313.21564ZM576.02814 313.21564Q576.02814 315.325 576.52814 316.02814Q577.02814 316.73126 577.7469 316.73126Q578.48126 316.73126 578.96564 316.02814Q579.46564 315.325 579.46564 313.21564Q579.46564 311.09064 578.96564 310.40314Q578.48126 309.7 577.73126 309.7Q577.0125 309.7 576.575 310.3094Q576.02814 311.09064 576.02814 313.21564ZM581.95 313.21564Q581.95 311.6844 582.2625 310.7625Q582.575 309.825 583.1844 309.325Q583.8094 308.825 584.7469 308.825Q585.4344 308.825 585.95 309.10626Q586.48126 309.3875 586.825 309.91876Q587.16876 310.4344 587.35626 311.1844Q587.54376 311.9344 587.54376 313.21564Q587.54376 314.73126 587.23126 315.65314Q586.9344 316.575 586.3094 317.09064Q585.7 317.59064 584.7469 317.59064Q583.5125 317.59064 582.79376 316.7Q581.95 315.6375 581.95 313.21564ZM583.02814 313.21564Q583.02814 315.325 583.52814 316.02814Q584.02814 316.73126 584.7469 316.73126Q585.48126 316.73126 585.96564 316.02814Q586.46564 315.325 586.46564 313.21564Q586.46564 311.09064 585.96564 310.40314Q585.48126 309.7 584.73126 309.7Q584.0125 309.7 583.575 310.3094Q583.02814 311.09064 583.02814 313.21564ZM588.95 313.21564Q588.95 311.6844 589.2625 310.7625Q589.575 309.825 590.1844 309.325Q590.8094 308.825 591.7469 308.825Q592.4344 308.825 592.95 309.10626Q593.48126 309.3875 593.825 309.91876Q594.16876 310.4344 594.35626 311.1844Q594.54376 311.9344 594.54376 313.21564Q594.54376 314.73126 594.23126 315.65314Q593.9344 316.575 593.3094 317.09064Q592.7 317.59064 591.7469 317.59064Q590.5125 317.59064 589.79376 316.7Q588.95 315.6375 588.95 313.21564ZM590.02814 313.21564Q590.02814 315.325 590.52814 316.02814Q591.02814 316.73126 591.7469 316.73126Q592.48126 316.73126 592.96564 316.02814Q593.46564 315.325 593.46564 313.21564Q593.46564 311.09064 592.96564 310.40314Q592.48126 309.7 591.73126 309.7Q591.0125 309.7 590.575 310.3094Q590.02814 311.09064 590.02814 313.21564Z" fill-rule="nonzero"/><path fill="#757575" d="M30.315624 32.534374L32.20625 33.003124Q31.6125 35.346874 30.065624 36.58125Q28.51875 37.8 26.26875 37.8Q23.95625 37.8 22.503124 36.8625Q21.065624 35.909374 20.3 34.128124Q19.55 32.33125 19.55 30.284374Q19.55 28.05 20.39375 26.39375Q21.253124 24.721874 22.83125 23.8625Q24.409374 22.9875 26.3 22.9875Q28.45625 22.9875 29.909374 24.08125Q31.378124 25.175 31.95625 27.159374L30.096874 27.596874Q29.596874 26.034374 28.64375 25.33125Q27.70625 24.6125 26.26875 24.6125Q24.6125 24.6125 23.503124 25.409374Q22.39375 26.190624 21.940624 27.534374Q21.503124 28.8625 21.503124 30.26875Q21.503124 32.096874 22.034374 33.471874Q22.565624 34.83125 23.690624 35.503124Q24.815624 36.175 26.1125 36.175Q27.70625 36.175 28.815624 35.253124Q29.925 34.33125 30.315624 32.534374ZM40.659374 37.55L40.659374 36.01875Q39.45625 37.784374 37.378124 37.784374Q36.45625 37.784374 35.659374 37.440624Q34.8625 37.08125 34.471874 36.55Q34.096874 36.01875 33.940624 35.2375Q33.83125 34.721874 33.83125 33.596874L33.83125 27.175L35.58125 27.175L35.58125 32.925Q35.58125 34.3 35.690624 34.784374Q35.8625 35.471874 36.39375 35.878124Q36.940624 36.26875 37.721874 36.26875Q38.51875 36.26875 39.20625 35.8625Q39.909374 35.45625 40.190624 34.76875Q40.4875 34.065624 40.4875 32.7375L40.4875 27.175L42.2375 27.175L42.2375 37.55L40.659374 37.55ZM43.846874 37.55L43.846874 27.175L45.425 27.175L45.425 28.753124Q46.034374 27.64375 46.55 27.3Q47.065624 26.940624 47.675 26.940624Q48.565624 26.940624 49.4875 27.503124L48.878124 29.14375Q48.2375 28.753124 47.596874 28.753124Q47.01875 28.753124 46.55 29.1125Q46.096874 29.45625 45.89375 30.065624Q45.6125 31.003124 45.6125 32.1125L45.6125 37.55L43.846874 37.55ZM50.846874 37.55L50.846874 27.175L52.425 27.175L52.425 28.753124Q53.034374 27.64375 53.55 27.3Q54.065624 26.940624 54.675 26.940624Q55.565624 26.940624 56.4875 27.503124L55.878124 29.14375Q55.2375 28.753124 54.596874 28.753124Q54.01875 28.753124 53.55 29.1125Q53.096874 29.45625 52.89375 30.065624Q52.6125 31.003124 52.6125 32.1125L52.6125 37.55L50.846874 37.55ZM64.97188 34.20625L66.78438 34.440624Q66.3625 36.01875 65.19063 36.909374Q64.03438 37.784374 62.221874 37.784374Q59.95625 37.784374 58.6125 36.39375Q57.284374 34.9875 57.284374 32.45625Q57.284374 29.83125 58.628124 28.39375Q59.971874 26.940624 62.128124 26.940624Q64.20625 26.940624 65.51875 28.3625Q66.84688 29.76875 66.84688 32.346874Q66.84688 32.503124 66.83125 32.815624L59.096874 32.815624Q59.190624 34.51875 60.065624 35.425Q60.940624 36.33125 62.2375 36.33125Q63.20625 36.33125 63.878124 35.83125Q64.56563 35.315624 64.97188 34.20625ZM59.190624 31.3625L64.9875 31.3625Q64.87813 30.065624 64.33125 29.409374Q63.4875 28.39375 62.14375 28.39375Q60.940624 28.39375 60.1125 29.20625Q59.284374 30.003124 59.190624 31.3625ZM68.8625 37.55L68.8625 27.175L70.45625 27.175L70.45625 28.659374Q71.59688 26.940624 73.75313 26.940624Q74.69063 26.940624 75.47188 27.284374Q76.26875 27.6125 76.65938 28.159374Q77.05 28.70625 77.20625 29.45625Q77.3 29.95625 77.3 31.175L77.3 37.55L75.53438 37.55L75.53438 31.2375Q75.53438 30.159374 75.33125 29.628124Q75.12813 29.096874 74.59688 28.784374Q74.08125 28.471874 73.37813 28.471874Q72.25313 28.471874 71.44063 29.190624Q70.62813 29.89375 70.62813 31.878124L70.62813 37.55L68.8625 37.55ZM82.70625 35.971874L82.95625 37.534374Q82.22188 37.690624 81.62813 37.690624Q80.675 37.690624 80.14375 37.39375Q79.62813 37.08125 79.40938 36.596874Q79.19063 36.096874 79.19063 34.51875L79.19063 28.55L77.90938 28.55L77.90938 27.175L79.19063 27.175L79.19063 24.6125L80.94063 23.55L80.94063 27.175L82.70625 27.175L82.70625 28.55L80.94063 28.55L80.94063 34.6125Q80.94063 35.3625 81.03438 35.58125Q81.12813 35.784374 81.33125 35.925Q81.55 36.05 81.94063 36.05Q82.22188 36.05 82.70625 35.971874ZM94.22188 41.753124Q92.76875 39.925 91.76875 37.471874Q90.76875 35.003124 90.76875 32.3625Q90.76875 30.034374 91.51875 27.909374Q92.39375 25.440624 94.22188 22.9875L95.4875 22.9875Q94.3 25.01875 93.925 25.89375Q93.33125 27.2375 92.9875 28.70625Q92.56563 30.534374 92.56563 32.378124Q92.56563 37.065624 95.4875 41.753124L94.22188 41.753124ZM96.51875 37.55L102.01875 23.2375L104.06563 23.2375L109.925 37.55L107.76875 37.55L106.09688 33.20625L100.1125 33.20625L98.53438 37.55L96.51875 37.55ZM100.65938 31.675L105.50313 31.675L104.01875 27.70625Q103.33125 25.89375 103.00313 24.7375Q102.72188 26.1125 102.22188 27.471874L100.65938 31.675ZM112.01875 41.753124L110.76875 41.753124Q113.675 37.065624 113.675 32.378124Q113.675 30.534374 113.26875 28.7375Q112.925 27.26875 112.33125 25.925Q111.95625 25.034374 110.76875 22.9875L112.01875 22.9875Q113.8625 25.440624 114.7375 27.909374Q115.4875 30.034374 115.4875 32.3625Q115.4875 35.003124 114.47188 37.471874Q113.47188 39.925 112.01875 41.753124ZM126.75313 37.55L122.8 27.175L124.65938 27.175L126.89375 33.39375Q127.25313 34.39375 127.55 35.471874Q127.78438 34.659374 128.20625 33.503124L130.50313 27.175L132.31563 27.175L128.39375 37.55L126.75313 37.55ZM132.15938 34.45625L133.90938 34.175Q134.05 35.221874 134.72188 35.784374Q135.39375 36.33125 136.59688 36.33125Q137.8 36.33125 138.37813 35.846874Q138.97188 35.346874 138.97188 34.690624Q138.97188 34.096874 138.45625 33.753124Q138.09688 33.51875 136.65938 33.159374Q134.72188 32.659374 133.97188 32.315624Q133.2375 31.95625 132.84688 31.33125Q132.45625 30.690624 132.45625 29.925Q132.45625 29.2375 132.76875 28.64375Q133.09688 28.05 133.64375 27.659374Q134.05 27.3625 134.75313 27.159374Q135.47188 26.940624 136.28438 26.940624Q137.50313 26.940624 138.425 27.3Q139.34688 27.64375 139.78438 28.253124Q140.22188 28.846874 140.39375 29.846874L138.675 30.08125Q138.55 29.284374 137.9875 28.846874Q137.425 28.39375 136.40938 28.39375Q135.19063 28.39375 134.675 28.8Q134.15938 29.190624 134.15938 29.721874Q134.15938 30.065624 134.37813 30.346874Q134.58125 30.628124 135.05 30.815624Q135.31563 30.909374 136.59688 31.253124Q138.47188 31.753124 139.20625 32.08125Q139.94063 32.39375 140.3625 33.003124Q140.78438 33.596874 140.78438 34.503124Q140.78438 35.378124 140.26875 36.159374Q139.75313 36.940624 138.78438 37.3625Q137.81563 37.784374 136.59688 37.784374Q134.58125 37.784374 133.51875 36.940624Q132.45625 36.096874 132.15938 34.45625ZM143.3625 37.55L143.3625 35.55L145.3625 35.55L145.3625 37.55L143.3625 37.55ZM155.12813 37.55L155.12813 23.2375L165.4875 23.2375L165.4875 24.925L157.03438 24.925L157.03438 29.3L164.94063 29.3L164.94063 30.9875L157.03438 30.9875L157.03438 35.8625L165.81563 35.8625L165.81563 37.55L155.12813 37.55ZM167.45625 32.95625L169.2375 32.8Q169.3625 33.8625 169.81563 34.55Q170.28438 35.2375 171.25313 35.675Q172.2375 36.096874 173.47188 36.096874Q174.55 36.096874 175.37813 35.784374Q176.20625 35.45625 176.6125 34.89375Q177.01875 34.33125 177.01875 33.659374Q177.01875 32.9875 176.62813 32.4875Q176.2375 31.9875 175.34688 31.64375Q174.76875 31.409374 172.78438 30.940624Q170.81563 30.471874 170.03438 30.05Q169.00313 29.51875 168.50313 28.721874Q168.00313 27.925 168.00313 26.940624Q168.00313 25.846874 168.6125 24.909374Q169.22188 23.971874 170.40938 23.4875Q171.59688 22.9875 173.03438 22.9875Q174.62813 22.9875 175.84688 23.503124Q177.06563 24.01875 177.70625 25.01875Q178.3625 26.003124 178.40938 27.26875L176.59688 27.409374Q176.45625 26.05 175.6125 25.3625Q174.76875 24.659374 173.1125 24.659374Q171.39375 24.659374 170.59688 25.3Q169.81563 25.925 169.81563 26.8Q169.81563 27.58125 170.37813 28.08125Q170.925 28.58125 173.2375 29.096874Q175.55 29.6125 176.40938 30.003124Q177.65938 30.58125 178.25313 31.471874Q178.84688 32.346874 178.84688 33.503124Q178.84688 34.64375 178.19063 35.659374Q177.53438 36.675 176.3 37.2375Q175.08125 37.8 173.55 37.8Q171.6125 37.8 170.3 37.2375Q168.9875 36.659374 168.2375 35.51875Q167.4875 34.378124 167.45625 32.95625ZM191.31563 32.534374L193.20625 33.003124Q192.6125 35.346874 191.06563 36.58125Q189.51875 37.8 187.26875 37.8Q184.95625 37.8 183.50313 36.8625Q182.06563 35.909374 181.3 34.128124Q180.55 32.33125 180.55 30.284374Q180.55 28.05 181.39375 26.39375Q182.25313 24.721874 183.83125 23.8625Q185.40938 22.9875 187.3 22.9875Q189.45625 22.9875 190.90938 24.08125Q192.37813 25.175 192.95625 27.159374L191.09688 27.596874Q190.59688 26.034374 189.64375 25.33125Q188.70625 24.6125 187.26875 24.6125Q185.6125 24.6125 184.50313 25.409374Q183.39375 26.190624 182.94063 27.534374Q182.50313 28.8625 182.50313 30.26875Q182.50313 32.096874 183.03438 33.471874Q183.56563 34.83125 184.69063 35.503124Q185.81563 36.175 187.1125 36.175Q188.70625 36.175 189.81563 35.253124Q190.925 34.33125 191.31563 32.534374ZM200.15938 34.45625L201.90938 34.175Q202.05 35.221874 202.72188 35.784374Q203.39375 36.33125 204.59688 36.33125Q205.8 36.33125 206.37813 35.846874Q206.97188 35.346874 206.97188 34.690624Q206.97188 34.096874 206.45625 33.753124Q206.09688 33.51875 204.65938 33.159374Q202.72188 32.659374 201.97188 32.315624Q201.2375 31.95625 200.84688 31.33125Q200.45625 30.690624 200.45625 29.925Q200.45625 29.2375 200.76875 28.64375Q201.09688 28.05 201.64375 27.659374Q202.05 27.3625 202.75313 27.159374Q203.47188 26.940624 204.28438 26.940624Q205.50313 26.940624 206.425 27.3Q207.34688 27.64375 207.78438 28.253124Q208.22188 28.846874 208.39375 29.846874L206.675 30.08125Q206.55 29.284374 205.9875 28.846874Q205.425 28.39375 204.40938 28.39375Q203.19063 28.39375 202.675 28.8Q202.15938 29.190624 202.15938 29.721874Q202.15938 30.065624 202.37813 30.346874Q202.58125 30.628124 203.05 30.815624Q203.31563 30.909374 204.59688 31.253124Q206.47188 31.753124 207.20625 32.08125Q207.94063 32.39375 208.3625 33.003124Q208.78438 33.596874 208.78438 34.503124Q208.78438 35.378124 208.26875 36.159374Q207.75313 36.940624 206.78438 37.3625Q205.81563 37.784374 204.59688 37.784374Q202.58125 37.784374 201.51875 36.940624Q200.45625 36.096874 200.15938 34.45625ZM210.87813 25.253124L210.87813 23.2375L212.64375 23.2375L212.64375 25.253124L210.87813 25.253124ZM210.87813 37.55L210.87813 27.175L212.64375 27.175L212.64375 37.55L210.87813 37.55ZM214.55 38.409374L216.25313 38.659374Q216.3625 39.45625 216.84688 39.815624Q217.50313 40.3 218.64375 40.3Q219.8625 40.3 220.51875 39.815624Q221.19063 39.33125 221.425 38.45625Q221.56563 37.909374 221.55 36.190624Q220.39375 37.55 218.675 37.55Q216.53438 37.55 215.3625 36.003124Q214.19063 34.45625 214.19063 32.3Q214.19063 30.815624 214.72188 29.565624Q215.26875 28.315624 216.28438 27.628124Q217.31563 26.940624 218.69063 26.940624Q220.51875 26.940624 221.72188 28.425L221.72188 27.175L223.33125 27.175L223.33125 36.14375Q223.33125 38.565624 222.83125 39.565624Q222.34688 40.58125 221.26875 41.159374Q220.20625 41.753124 218.64375 41.753124Q216.8 41.753124 215.64375 40.925Q214.50313 40.096874 214.55 38.409374ZM216.00313 32.175Q216.00313 34.221874 216.81563 35.159374Q217.62813 36.096874 218.84688 36.096874Q220.05 36.096874 220.8625 35.159374Q221.69063 34.221874 221.69063 32.2375Q221.69063 30.33125 220.84688 29.3625Q220.00313 28.39375 218.81563 28.39375Q217.64375 28.39375 216.81563 29.346874Q216.00313 30.3 216.00313 32.175ZM225.8625 37.55L225.8625 27.175L227.45625 27.175L227.45625 28.659374Q228.59688 26.940624 230.75313 26.940624Q231.69063 26.940624 232.47188 27.284374Q233.26875 27.6125 233.65938 28.159374Q234.05 28.70625 234.20625 29.45625Q234.3 29.95625 234.3 31.175L234.3 37.55L232.53438 37.55L232.53438 31.2375Q232.53438 30.159374 232.33125 29.628124Q232.12813 29.096874 231.59688 28.784374Q231.08125 28.471874 230.37813 28.471874Q229.25313 28.471874 228.44063 29.190624Q227.62813 29.89375 227.62813 31.878124L227.62813 37.55L225.8625 37.55ZM242.64375 36.26875Q241.65938 37.096874 240.75313 37.440624Q239.84688 37.784374 238.81563 37.784374Q237.1125 37.784374 236.19063 36.95625Q235.26875 36.1125 235.26875 34.815624Q235.26875 34.05 235.6125 33.425Q235.97188 32.8 236.53438 32.425Q237.09688 32.034374 237.8 31.83125Q238.31563 31.70625 239.3625 31.565624Q241.4875 31.315624 242.4875 30.971874Q242.50313 30.6125 242.50313 30.503124Q242.50313 29.440624 242.00313 28.9875Q241.33125 28.39375 240.00313 28.39375Q238.75313 28.39375 238.15938 28.83125Q237.58125 29.26875 237.3 30.378124L235.58125 30.14375Q235.81563 29.034374 236.34688 28.3625Q236.87813 27.675 237.89375 27.315624Q238.90938 26.940624 240.25313 26.940624Q241.58125 26.940624 242.40938 27.253124Q243.2375 27.565624 243.62813 28.05Q244.01875 28.51875 244.175 29.2375Q244.26875 29.690624 244.26875 30.8625L244.26875 33.20625Q244.26875 35.659374 244.37813 36.315624Q244.4875 36.95625 244.83125 37.55L242.9875 37.55Q242.72188 37.003124 242.64375 36.26875ZM242.4875 32.346874Q241.53438 32.7375 239.6125 33.003124Q238.53438 33.159374 238.08125 33.3625Q237.64375 33.55 237.39375 33.925Q237.14375 34.3 237.14375 34.76875Q237.14375 35.471874 237.675 35.940624Q238.20625 36.409374 239.2375 36.409374Q240.25313 36.409374 241.03438 35.971874Q241.83125 35.51875 242.20625 34.753124Q242.4875 34.14375 242.4875 32.9875L242.4875 32.346874ZM246.83125 37.55L246.83125 23.2375L248.58125 23.2375L248.58125 37.55L246.83125 37.55ZM260.22186 41.753124Q258.76874 39.925 257.76874 37.471874Q256.76874 35.003124 256.76874 32.3625Q256.76874 30.034374 257.51874 27.909374Q258.39374 25.440624 260.22186 22.9875L261.4875 22.9875Q260.3 25.01875 259.925 25.89375Q259.33124 27.2375 258.9875 28.70625Q258.5656 30.534374 258.5656 32.378124Q258.5656 37.065624 261.4875 41.753124L260.22186 41.753124ZM272.4875 27.175L272.4875 37.55L270.925 37.55L270.925 36.315624Q270.40936 37.096874 269.90936 37.39375Q269.2375 37.8 268.3156 37.8Q267.51874 37.8 266.89374 37.471874Q266.425 37.221874 265.84686 36.503124L265.84686 41.51875L264.1125 41.51875L264.1125 27.175L265.84686 27.175L265.84686 31.565624Q265.84686 33.971874 266.09686 34.675Q266.3625 35.378124 266.925 35.8Q267.5031 36.20625 268.2375 36.20625Q269.01874 36.20625 269.6281 35.784374Q270.2531 35.346874 270.5031 34.675Q270.76874 33.9875 270.76874 31.596874L270.76874 27.175L272.4875 27.175ZM274.15936 34.45625L275.90936 34.175Q276.05 35.221874 276.72186 35.784374Q277.39374 36.33125 278.59686 36.33125Q279.8 36.33125 280.3781 35.846874Q280.97186 35.346874 280.97186 34.690624Q280.97186 34.096874 280.45624 33.753124Q280.09686 33.51875 278.65936 33.159374Q276.72186 32.659374 275.97186 32.315624Q275.2375 31.95625 274.84686 31.33125Q274.45624 30.690624 274.45624 29.925Q274.45624 29.2375 274.76874 28.64375Q275.09686 28.05 275.64374 27.659374Q276.05 27.3625 276.7531 27.159374Q277.47186 26.940624 278.28436 26.940624Q279.5031 26.940624 280.425 27.3Q281.34686 27.64375 281.78436 28.253124Q282.22186 28.846874 282.39374 29.846874L280.675 30.08125Q280.55 29.284374 279.9875 28.846874Q279.425 28.39375 278.40936 28.39375Q277.1906 28.39375 276.675 28.8Q276.15936 29.190624 276.15936 29.721874Q276.15936 30.065624 276.3781 30.346874Q276.58124 30.628124 277.05 30.815624Q277.3156 30.909374 278.59686 31.253124Q280.47186 31.753124 281.20624 32.08125Q281.9406 32.39375 282.3625 33.003124Q282.78436 33.596874 282.78436 34.503124Q282.78436 35.378124 282.26874 36.159374Q281.7531 36.940624 280.78436 37.3625Q279.8156 37.784374 278.59686 37.784374Q276.58124 37.784374 275.51874 36.940624Q274.45624 36.096874 274.15936 34.45625ZM286.01874 41.753124L284.76874 41.753124Q287.675 37.065624 287.675 32.378124Q287.675 30.534374 287.26874 28.7375Q286.925 27.26875 286.33124 25.925Q285.95624 25.034374 284.76874 22.9875L286.01874 22.9875Q287.8625 25.440624 288.7375 27.909374Q289.4875 30.034374 289.4875 32.3625Q289.4875 35.003124 288.47186 37.471874Q287.47186 39.925 286.01874 41.753124Z" fill-rule="nonzero"/></svg>