<svg version="1.1" viewBox="0.0 0.0 600.0 371.0" fill="none" stroke="none" stroke-linecap="square" stroke-miterlimit="10" width="600" height="371" xmlns:xlink="http://www.w3.org/1999/xlink" xmlns="http://www.w3.org/2000/svg"><path fill="#ffffff" d="M0 0L600.0 0L600.0 371.0L0 371.0L0 0Z" fill-rule="nonzero"/><path stroke="#cccccc" stroke-width="1.0" stroke-linecap="butt" d="M77.5 61.5L77.5 300.5" fill-rule="nonzero"/><path stroke="#cccccc" stroke-width="1.0" stroke-linecap="butt" d="M203.5 61.5L203.5 300.5" fill-rule="nonzero"/><path stroke="#cccccc" stroke-width="1.0" stroke-linecap="butt" d="M329.5 61.5L329.5 300.5" fill-rule="nonzero"/><path stroke="#cccccc" stroke-width="1.0" stroke-linecap="butt" d="M455.5 61.5L455.5 300.5" fill-rule="nonzero"/><path stroke="#cccccc" stroke-width="1.0" stroke-linecap="butt" d="M581.5 61.5L581.5 300.5" fill-rule="nonzero"/><path stroke="#cccccc" stroke-width="1.0" stroke-linecap="butt" d="M77.5 300.5L581.5 300.5" fill-rule="nonzero"/><path stroke="#333333" stroke-width="1.0" stroke-linecap="butt" d="M77.5 252.5L581.5 252.5" fill-rule="nonzero"/><path stroke="#cccccc" stroke-width="1.0" stroke-linecap="butt" d="M77.5 205.5L581.5 205.5" fill-rule="nonzero"/><path stroke="#cccccc" stroke-width="1.0" stroke-linecap="butt" d="M77.5 157.5L581.5 157.5" fill-rule="nonzero"/><path stroke="#cccccc" stroke-width="1.0" stroke-linecap="butt" d="M77.5 109.5L581.5 109.5" fill-rule="nonzero"/><path stroke="#cccccc" stroke-width="1.0" stroke-linecap="butt" d="M77.5 61.5L581.5 61.5" fill-rule="nonzero"/><clipPath id="id_0"><path d="M77.55 61.916668L581.45 61.916668L581.45 300.45L77.55 300.45L77.55 61.916668Z" clip-rule="nonzero"/></clipPath><path stroke="#4285f4" stroke-width="2.0" stroke-linecap="butt" clip-path="url(#id_0)" d="M77.55 251.99321C77.55 251.99321 80.90933 252.06892 82.589 252.62712C84.26867 253.1853 85.94833 254.86691 87.628 255.34235C89.30766 255.81778 90.987335 255.20148 92.667 255.47969C94.346664 255.7579 96.02634 256.6841 97.706 257.01163C99.385666 257.33914 101.06533 257.71948 102.745 257.4448C104.42467 257.1701 106.10433 255.29657 107.784 255.36348C109.46367 255.43039 111.14333 257.92905 112.823 257.84628C114.50267 257.76352 116.182335 256.20163 117.862 254.86691C119.541664 253.5322 121.22134 250.16545 122.901 249.83794C124.580666 249.51042 126.26033 252.81818 127.94 252.90181C129.61966 252.98544 131.29933 250.98425 132.979 250.33978C134.65866 249.6953 136.33833 249.27446 138.018 249.03499C139.69766 248.79552 141.37733 249.381 143.057 248.90292C144.73666 248.42485 146.41634 246.86914 148.096 246.16656C149.77567 245.46399 151.45534 245.51593 153.135 244.68745C154.81467 243.85898 156.49434 242.57355 158.174 241.1957C159.85367 239.81783 161.53334 237.5296 163.213 236.42027C164.89267 235.31093 166.57233 235.65489 168.252 234.53969C169.93167 233.42447 171.61133 230.4351 173.291 229.729C174.97067 229.0229 176.65033 230.2655 178.33 230.30309C180.00967 230.34065 181.68933 231.08049 183.369 229.95444C185.04866 228.82837 186.72833 225.13147 188.408 223.5467C190.08766 221.96194 191.76733 221.79378 193.447 220.44585C195.12666 219.09792 196.80634 216.20984 198.486 215.45912C200.16566 214.70842 201.84534 216.19606 203.525 215.94162C205.20467 215.68718 206.88434 214.85898 208.564 213.93248C210.24367 213.00597 211.92334 211.78688 213.603 210.3826C215.28267 208.97833 216.96233 206.86531 218.642 205.50682C220.32167 204.14832 222.00133 202.97911 223.681 202.23163C225.36067 201.48416 227.04033 201.80786 228.72 201.02193C230.39967 200.23601 232.07933 198.89221 233.759 197.5161C235.43866 196.14 237.11833 193.63899 238.798 192.76532C240.47766 191.89163 242.15733 193.07523 243.837 192.27403C245.51666 191.47285 247.19633 188.80194 248.876 187.95819C250.55566 187.11446 252.23534 187.37445 253.915 187.21158C255.59467 187.04869 257.27432 188.11374 258.954 186.98093C260.63367 185.84811 262.31332 181.53815 263.993 180.41472C265.67267 179.2913 267.35233 180.55911 269.032 180.2404C270.71167 179.92169 272.39133 179.40224 274.071 178.50244C275.75067 177.60265 277.43033 176.27614 279.11 174.84164C280.78967 173.40714 282.46933 170.95454 284.149 169.89539C285.82867 168.83624 287.50833 168.82364 289.188 168.48674C290.86768 168.14983 292.54733 168.5554 294.227 167.87396C295.90668 167.1925 297.58633 164.68506 299.266 164.39804C300.94568 164.11102 302.62534 166.52603 304.305 166.15186C305.98468 165.77766 307.66434 163.15489 309.344 162.15297C311.02368 161.15105 312.70334 160.93797 314.383 160.14032C316.06265 159.34265 317.74234 158.41997 319.422 157.36697C321.10165 156.314 322.78134 155.24956 324.461 153.82239C326.14066 152.39522 327.82034 150.05241 329.5 148.80397C331.17966 147.55553 332.85934 146.15918 334.539 146.33174C336.21866 146.5043 337.89835 149.88689 339.578 149.83936C341.25766 149.79181 342.93735 147.02904 344.617 146.04648C346.29666 145.06393 347.97632 144.40977 349.656 143.94403C351.33566 143.47829 353.01532 143.94931 354.695 143.25201C356.37466 142.55472 358.05432 140.16437 359.734 139.76025C361.41367 139.35614 363.09332 141.34854 364.773 140.82733C366.45267 140.30612 368.13232 137.66925 369.812 136.63298C371.49167 135.59673 373.17133 135.1935 374.851 134.60977C376.53067 134.02605 378.21033 134.11526 379.89 133.13066C381.56967 132.14604 383.24933 129.96815 384.929 128.7021C386.60867 127.43605 388.28833 126.22696 389.968 125.53436C391.64767 124.84177 393.32733 125.04044 395.007 124.546524C396.68668 124.052605 398.36633 122.92566 400.046 122.570854C401.72568 122.21604 403.40533 123.06565 405.085 122.417656C406.76468 121.76967 408.44434 119.74381 410.124 118.6829C411.80368 117.62199 413.48334 116.13671 415.163 116.05219C416.84268 115.96767 418.52234 118.33249 420.202 118.17577C421.88165 118.01906 423.56134 115.8045 425.241 115.1119C426.92065 114.419304 428.60034 115.02916 430.28 114.020195C431.95966 113.01123 433.63934 109.93266 435.319 109.0581C436.99866 108.18354 438.67834 108.956856 440.358 108.77284C442.03766 108.58884 443.71735 108.33175 445.397 107.95405C447.07666 107.57635 448.75635 107.25939 450.436 106.50663C452.11566 105.75387 453.79532 103.76763 455.475 103.43747C457.15466 103.107315 458.83432 104.604034 460.514 104.52568C462.19366 104.44732 463.87332 103.39433 465.553 102.96732C467.23267 102.54032 468.91232 102.47869 470.592 101.963646C472.27167 101.44859 473.95132 101.388145 475.631 99.87704C477.31067 98.36593 478.99033 94.495865 480.67 92.89701C482.34967 91.298164 484.02933 90.14717 485.709 90.283936C487.38867 90.4207 489.06833 92.90848 490.748 93.71759C492.42767 94.5267 494.10733 95.702065 495.787 95.138596C497.46667 94.57512 499.14633 91.40472 500.826 90.33676C502.50568 89.26881 504.18533 88.58208 505.865 88.730865C507.54468 88.87966 509.22433 91.56055 510.904 91.22951C512.5837 90.89847 514.2633 87.79585 515.943 86.74463C517.6227 85.693405 519.3023 85.92936 520.982 84.92215C522.6617 83.91495 524.3413 81.22525 526.021 80.7014C527.7007 80.17754 529.3803 81.599434 531.06 81.77904C532.7397 81.95864 534.4193 81.63289 536.099 81.77904C537.7787 81.925186 539.4583 83.14898 541.138 82.65594C542.8177 82.1629 544.4973 79.56829 546.177 78.82081C547.8567 78.07333 549.5363 78.619194 551.216 78.17106C552.8957 77.72292 554.5753 76.13287 556.255 76.131996C557.9347 76.13112 559.6143 78.18867 561.294 78.16578C562.9737 78.14288 564.6533 76.788795 566.333 75.99465C568.0127 75.20051 569.6923 74.11671 571.372 73.40092C573.0517 72.685135 574.7313 71.51857 576.411 71.69994C578.09064 71.88131 581.45 74.48913 581.45 74.48913" fill-rule="nonzero"/><path fill="#000000" fill-opacity="0.0" clip-path="url(#id_0)" d="M80.55 251.99321C80.55 253.65007 79.206856 254.99321 77.55 254.99321C75.89314 254.99321 74.55 253.65007 74.55 251.99321C74.55 250.33636 75.89314 248.99321 77.55 248.99321C79.206856 248.99321 80.55 250.33636 80.55 251.99321Z" fill-rule="nonzero"/><path fill="#000000" fill-opacity="0.0" clip-path="url(#id_0)" d="M85.589 252.62712C85.589 254.28397 84.24586 255.62712 82.589 255.62712C80.932144 255.62712 79.589 254.28397 79.589 252.62712C79.589 250.97026 80.932144 249.62712 82.589 249.62712C84.24586 249.62712 85.589 250.97026 85.589 252.62712Z" fill-rule="nonzero"/><path fill="#000000" fill-opacity="0.0" clip-path="url(#id_0)" d="M90.628 255.34235C90.628 256.9992 89.28485 258.34235 87.628 258.34235C85.971146 258.34235 84.628 256.9992 84.628 255.34235C84.628 253.68549 85.971146 252.34235 87.628 252.34235C89.28485 252.34235 90.628 253.68549 90.628 255.34235Z" fill-rule="nonzero"/><path fill="#000000" fill-opacity="0.0" clip-path="url(#id_0)" d="M95.667 255.47969C95.667 257.13654 94.32385 258.4797 92.667 258.4797C91.01015 258.4797 89.667 257.13654 89.667 255.47969C89.667 253.82283 91.01015 252.47969 92.667 252.47969C94.32385 252.47969 95.667 253.82283 95.667 255.47969Z" fill-rule="nonzero"/><path fill="#000000" fill-opacity="0.0" clip-path="url(#id_0)" d="M100.706 257.01163C100.706 258.6685 99.362854 260.01163 97.706 260.01163C96.04915 260.01163 94.706 258.6685 94.706 257.01163C94.706 255.35478 96.04915 254.01163 97.706 254.01163C99.362854 254.01163 100.706 255.35478 100.706 257.01163Z" fill-rule="nonzero"/><path fill="#000000" fill-opacity="0.0" clip-path="url(#id_0)" d="M105.745 257.4448C105.745 259.10165 104.401855 260.4448 102.745 260.4448C101.08814 260.4448 99.745 259.10165 99.745 257.4448C99.745 255.78795 101.08814 254.4448 102.745 254.4448C104.401855 254.4448 105.745 255.78795 105.745 257.4448Z" fill-rule="nonzero"/><path fill="#000000" fill-opacity="0.0" clip-path="url(#id_0)" d="M110.784 255.36348C110.784 257.02032 109.44086 258.36346 107.784 258.36346C106.127144 258.36346 104.784 257.02032 104.784 255.36348C104.784 253.70662 106.127144 252.36348 107.784 252.36348C109.44086 252.36348 110.784 253.70662 110.784 255.36348Z" fill-rule="nonzero"/><path fill="#000000" fill-opacity="0.0" clip-path="url(#id_0)" d="M115.823 257.84628C115.823 259.5031 114.47985 260.84628 112.823 260.84628C111.166145 260.84628 109.823 259.5031 109.823 257.84628C109.823 256.18942 111.166145 254.84627 112.823 254.84627C114.47985 254.84627 115.823 256.18942 115.823 257.84628Z" fill-rule="nonzero"/><path fill="#000000" fill-opacity="0.0" clip-path="url(#id_0)" d="M120.862 254.86691C120.862 256.52377 119.51885 257.8669 117.862 257.8669C116.20515 257.8669 114.862 256.52377 114.862 254.86691C114.862 253.21007 116.20515 251.86691 117.862 251.86691C119.51885 251.86691 120.862 253.21007 120.862 254.86691Z" fill-rule="nonzero"/><path fill="#000000" fill-opacity="0.0" clip-path="url(#id_0)" d="M125.901 249.83794C125.901 251.49478 124.55785 252.83794 122.901 252.83794C121.24415 252.83794 119.901 251.49478 119.901 249.83794C119.901 248.18108 121.24415 246.83794 122.901 246.83794C124.55785 246.83794 125.901 248.18108 125.901 249.83794Z" fill-rule="nonzero"/><path fill="#000000" fill-opacity="0.0" clip-path="url(#id_0)" d="M130.94 252.90181C130.94 254.55867 129.59685 255.90181 127.94 255.90181C126.28314 255.90181 124.94 254.55867 124.94 252.90181C124.94 251.24495 126.28314 249.90181 127.94 249.90181C129.59685 249.90181 130.94 251.24495 130.94 252.90181Z" fill-rule="nonzero"/><path fill="#000000" fill-opacity="0.0" clip-path="url(#id_0)" d="M135.979 250.33978C135.979 251.99663 134.63585 253.33978 132.979 253.33978C131.32214 253.33978 129.979 251.99663 129.979 250.33978C129.979 248.68292 131.32214 247.33978 132.979 247.33978C134.63585 247.33978 135.979 248.68292 135.979 250.33978Z" fill-rule="nonzero"/><path fill="#000000" fill-opacity="0.0" clip-path="url(#id_0)" d="M141.018 249.03499C141.018 250.69183 139.67485 252.03499 138.018 252.03499C136.36115 252.03499 135.018 250.69183 135.018 249.03499C135.018 247.37813 136.36115 246.03499 138.018 246.03499C139.67485 246.03499 141.018 247.37813 141.018 249.03499Z" fill-rule="nonzero"/><path fill="#000000" fill-opacity="0.0" clip-path="url(#id_0)" d="M146.057 248.90292C146.057 250.55978 144.71385 251.90292 143.057 251.90292C141.40015 251.90292 140.057 250.55978 140.057 248.90292C140.057 247.24606 141.40015 245.90292 143.057 245.90292C144.71385 245.90292 146.057 247.24606 146.057 248.90292Z" fill-rule="nonzero"/><path fill="#000000" fill-opacity="0.0" clip-path="url(#id_0)" d="M151.096 246.16656C151.096 247.82343 149.75285 249.16656 148.096 249.16656C146.43915 249.16656 145.096 247.82343 145.096 246.16656C145.096 244.5097 146.43915 243.16656 148.096 243.16656C149.75285 243.16656 151.096 244.5097 151.096 246.16656Z" fill-rule="nonzero"/><path fill="#000000" fill-opacity="0.0" clip-path="url(#id_0)" d="M156.135 244.68745C156.135 246.3443 154.79185 247.68745 153.135 247.68745C151.47815 247.68745 150.135 246.3443 150.135 244.68745C150.135 243.0306 151.47815 241.68745 153.135 241.68745C154.79185 241.68745 156.135 243.0306 156.135 244.68745Z" fill-rule="nonzero"/><path fill="#000000" fill-opacity="0.0" clip-path="url(#id_0)" d="M161.174 241.1957C161.174 242.85254 159.83086 244.1957 158.174 244.1957C156.51715 244.1957 155.174 242.85254 155.174 241.1957C155.174 239.53883 156.51715 238.1957 158.174 238.1957C159.83086 238.1957 161.174 239.53883 161.174 241.1957Z" fill-rule="nonzero"/><path fill="#000000" fill-opacity="0.0" clip-path="url(#id_0)" d="M166.213 236.42027C166.213 238.07712 164.86986 239.42027 163.213 239.42027C161.55615 239.42027 160.213 238.07712 160.213 236.42027C160.213 234.76341 161.55615 233.42027 163.213 233.42027C164.86986 233.42027 166.213 234.76341 166.213 236.42027Z" fill-rule="nonzero"/><path fill="#000000" fill-opacity="0.0" clip-path="url(#id_0)" d="M171.252 234.53969C171.252 236.19653 169.90886 237.53969 168.252 237.53969C166.59514 237.53969 165.252 236.19653 165.252 234.53969C165.252 232.88283 166.59514 231.53969 168.252 231.53969C169.90886 231.53969 171.252 232.88283 171.252 234.53969Z" fill-rule="nonzero"/><path fill="#000000" fill-opacity="0.0" clip-path="url(#id_0)" d="M176.291 229.729C176.291 231.38585 174.94786 232.729 173.291 232.729C171.63414 232.729 170.291 231.38585 170.291 229.729C170.291 228.07214 171.63414 226.729 173.291 226.729C174.94786 226.729 176.291 228.07214 176.291 229.729Z" fill-rule="nonzero"/><path fill="#000000" fill-opacity="0.0" clip-path="url(#id_0)" d="M181.33 230.30309C181.33 231.95993 179.98685 233.30309 178.33 233.30309C176.67314 233.30309 175.33 231.95993 175.33 230.30309C175.33 228.64622 176.67314 227.30309 178.33 227.30309C179.98685 227.30309 181.33 228.64622 181.33 230.30309Z" fill-rule="nonzero"/><path fill="#000000" fill-opacity="0.0" clip-path="url(#id_0)" d="M186.369 229.95444C186.369 231.61128 185.02585 232.95444 183.369 232.95444C181.71214 232.95444 180.369 231.61128 180.369 229.95444C180.369 228.29758 181.71214 226.95444 183.369 226.95444C185.02585 226.95444 186.369 228.29758 186.369 229.95444Z" fill-rule="nonzero"/><path fill="#000000" fill-opacity="0.0" clip-path="url(#id_0)" d="M191.408 223.5467C191.408 225.20355 190.06485 226.5467 188.408 226.5467C186.75114 226.5467 185.408 225.20355 185.408 223.5467C185.408 221.88985 186.75114 220.5467 188.408 220.5467C190.06485 220.5467 191.408 221.88985 191.408 223.5467Z" fill-rule="nonzero"/><path fill="#000000" fill-opacity="0.0" clip-path="url(#id_0)" d="M196.447 220.44585C196.447 222.1027 195.10385 223.44585 193.447 223.44585C191.79015 223.44585 190.447 222.1027 190.447 220.44585C190.447 218.789 191.79015 217.44585 193.447 217.44585C195.10385 217.44585 196.447 218.789 196.447 220.44585Z" fill-rule="nonzero"/><path fill="#000000" fill-opacity="0.0" clip-path="url(#id_0)" d="M201.486 215.45912C201.486 217.11598 200.14285 218.45912 198.486 218.45912C196.82915 218.45912 195.486 217.11598 195.486 215.45912C195.486 213.80228 196.82915 212.45912 198.486 212.45912C200.14285 212.45912 201.486 213.80228 201.486 215.45912Z" fill-rule="nonzero"/><path fill="#000000" fill-opacity="0.0" clip-path="url(#id_0)" d="M206.525 215.94162C206.525 217.59848 205.18185 218.94162 203.525 218.94162C201.86815 218.94162 200.525 217.59848 200.525 215.94162C200.525 214.28477 201.86815 212.94162 203.525 212.94162C205.18185 212.94162 206.525 214.28477 206.525 215.94162Z" fill-rule="nonzero"/><path fill="#000000" fill-opacity="0.0" clip-path="url(#id_0)" d="M211.564 213.93248C211.564 215.58932 210.22086 216.93248 208.564 216.93248C206.90715 216.93248 205.564 215.58932 205.564 213.93248C205.564 212.27562 206.90715 210.93248 208.564 210.93248C210.22086 210.93248 211.564 212.27562 211.564 213.93248Z" fill-rule="nonzero"/><path fill="#000000" fill-opacity="0.0" clip-path="url(#id_0)" d="M216.603 210.3826C216.603 212.03946 215.25986 213.3826 213.603 213.3826C211.94615 213.3826 210.603 212.03946 210.603 210.3826C210.603 208.72575 211.94615 207.3826 213.603 207.3826C215.25986 207.3826 216.603 208.72575 216.603 210.3826Z" fill-rule="nonzero"/><path fill="#000000" fill-opacity="0.0" clip-path="url(#id_0)" d="M221.642 205.50682C221.642 207.16367 220.29886 208.50682 218.642 208.50682C216.98515 208.50682 215.642 207.16367 215.642 205.50682C215.642 203.84996 216.98515 202.50682 218.642 202.50682C220.29886 202.50682 221.642 203.84996 221.642 205.50682Z" fill-rule="nonzero"/><path fill="#000000" fill-opacity="0.0" clip-path="url(#id_0)" d="M226.681 202.23163C226.681 203.88849 225.33786 205.23163 223.681 205.23163C222.02414 205.23163 220.681 203.88849 220.681 202.23163C220.681 200.57478 222.02414 199.23163 223.681 199.23163C225.33786 199.23163 226.681 200.57478 226.681 202.23163Z" fill-rule="nonzero"/><path fill="#000000" fill-opacity="0.0" clip-path="url(#id_0)" d="M231.72 201.02193C231.72 202.67879 230.37686 204.02193 228.72 204.02193C227.06314 204.02193 225.72 202.67879 225.72 201.02193C225.72 199.36508 227.06314 198.02193 228.72 198.02193C230.37686 198.02193 231.72 199.36508 231.72 201.02193Z" fill-rule="nonzero"/><path fill="#000000" fill-opacity="0.0" clip-path="url(#id_0)" d="M236.759 197.5161C236.759 199.17296 235.41585 200.5161 233.759 200.5161C232.10214 200.5161 230.759 199.17296 230.759 197.5161C230.759 195.85925 232.10214 194.5161 233.759 194.5161C235.41585 194.5161 236.759 195.85925 236.759 197.5161Z" fill-rule="nonzero"/><path fill="#000000" fill-opacity="0.0" clip-path="url(#id_0)" d="M241.798 192.76532C241.798 194.42216 240.45485 195.76532 238.798 195.76532C237.14114 195.76532 235.798 194.42216 235.798 192.76532C235.798 191.10846 237.14114 189.76532 238.798 189.76532C240.45485 189.76532 241.798 191.10846 241.798 192.76532Z" fill-rule="nonzero"/><path fill="#000000" fill-opacity="0.0" clip-path="url(#id_0)" d="M246.837 192.27403C246.837 193.9309 245.49385 195.27403 243.837 195.27403C242.18015 195.27403 240.837 193.9309 240.837 192.27403C240.837 190.61719 242.18015 189.27403 243.837 189.27403C245.49385 189.27403 246.837 190.61719 246.837 192.27403Z" fill-rule="nonzero"/><path fill="#000000" fill-opacity="0.0" clip-path="url(#id_0)" d="M251.876 187.95819C251.876 189.61505 250.53285 190.95819 248.876 190.95819C247.21915 190.95819 245.876 189.61505 245.876 187.95819C245.876 186.30135 247.21915 184.95819 248.876 184.95819C250.53285 184.95819 251.876 186.30135 251.876 187.95819Z" fill-rule="nonzero"/><path fill="#000000" fill-opacity="0.0" clip-path="url(#id_0)" d="M256.915 187.21158C256.915 188.86842 255.57185 190.21158 253.915 190.21158C252.25815 190.21158 250.915 188.86842 250.915 187.21158C250.915 185.55472 252.25815 184.21158 253.915 184.21158C255.57185 184.21158 256.915 185.55472 256.915 187.21158Z" fill-rule="nonzero"/><path fill="#000000" fill-opacity="0.0" clip-path="url(#id_0)" d="M261.954 186.98093C261.954 188.63779 260.61084 189.98093 258.954 189.98093C257.29715 189.98093 255.954 188.63779 255.954 186.98093C255.954 185.32407 257.29715 183.98093 258.954 183.98093C260.61084 183.98093 261.954 185.32407 261.954 186.98093Z" fill-rule="nonzero"/><path fill="#000000" fill-opacity="0.0" clip-path="url(#id_0)" d="M266.993 180.41472C266.993 182.07158 265.64984 183.41472 263.993 183.41472C262.33615 183.41472 260.993 182.07158 260.993 180.41472C260.993 178.75787 262.33615 177.41472 263.993 177.41472C265.64984 177.41472 266.993 178.75787 266.993 180.41472Z" fill-rule="nonzero"/><path fill="#000000" fill-opacity="0.0" clip-path="url(#id_0)" d="M272.032 180.2404C272.032 181.89725 270.68884 183.2404 269.032 183.2404C267.37515 183.2404 266.032 181.89725 266.032 180.2404C266.032 178.58354 267.37515 177.2404 269.032 177.2404C270.68884 177.2404 272.032 178.58354 272.032 180.2404Z" fill-rule="nonzero"/><path fill="#000000" fill-opacity="0.0" clip-path="url(#id_0)" d="M277.071 178.50244C277.071 180.1593 275.72784 181.50244 274.071 181.50244C272.41415 181.50244 271.071 180.1593 271.071 178.50244C271.071 176.84558 272.41415 175.50244 274.071 175.50244C275.72784 175.50244 277.071 176.84558 277.071 178.50244Z" fill-rule="nonzero"/><path fill="#000000" fill-opacity="0.0" clip-path="url(#id_0)" d="M282.11 174.84164C282.11 176.49849 280.76685 177.84164 279.11 177.84164C277.45316 177.84164 276.11 176.49849 276.11 174.84164C276.11 173.18478 277.45316 171.84164 279.11 171.84164C280.76685 171.84164 282.11 173.18478 282.11 174.84164Z" fill-rule="nonzero"/><path fill="#000000" fill-opacity="0.0" clip-path="url(#id_0)" d="M287.149 169.89539C287.149 171.55225 285.80585 172.89539 284.149 172.89539C282.49216 172.89539 281.149 171.55225 281.149 169.89539C281.149 168.23854 282.49216 166.89539 284.149 166.89539C285.80585 166.89539 287.149 168.23854 287.149 169.89539Z" fill-rule="nonzero"/><path fill="#000000" fill-opacity="0.0" clip-path="url(#id_0)" d="M292.188 168.48674C292.188 170.14359 290.84485 171.48674 289.188 171.48674C287.53116 171.48674 286.188 170.14359 286.188 168.48674C286.188 166.82988 287.53116 165.48674 289.188 165.48674C290.84485 165.48674 292.188 166.82988 292.188 168.48674Z" fill-rule="nonzero"/><path fill="#000000" fill-opacity="0.0" clip-path="url(#id_0)" d="M297.227 167.87396C297.227 169.5308 295.88385 170.87396 294.227 170.87396C292.57016 170.87396 291.227 169.5308 291.227 167.87396C291.227 166.2171 292.57016 164.87396 294.227 164.87396C295.88385 164.87396 297.227 166.2171 297.227 167.87396Z" fill-rule="nonzero"/><path fill="#000000" fill-opacity="0.0" clip-path="url(#id_0)" d="M302.266 164.39804C302.266 166.0549 300.92285 167.39804 299.266 167.39804C297.60913 167.39804 296.266 166.0549 296.266 164.39804C296.266 162.7412 297.60913 161.39804 299.266 161.39804C300.92285 161.39804 302.266 162.7412 302.266 164.39804Z" fill-rule="nonzero"/><path fill="#000000" fill-opacity="0.0" clip-path="url(#id_0)" d="M307.305 166.15186C307.305 167.8087 305.96185 169.15186 304.305 169.15186C302.64813 169.15186 301.305 167.8087 301.305 166.15186C301.305 164.495 302.64813 163.15186 304.305 163.15186C305.96185 163.15186 307.305 164.495 307.305 166.15186Z" fill-rule="nonzero"/><path fill="#000000" fill-opacity="0.0" clip-path="url(#id_0)" d="M312.344 162.15297C312.344 163.80981 311.00085 165.15297 309.344 165.15297C307.68713 165.15297 306.344 163.80981 306.344 162.15297C306.344 160.49611 307.68713 159.15297 309.344 159.15297C311.00085 159.15297 312.344 160.49611 312.344 162.15297Z" fill-rule="nonzero"/><path fill="#000000" fill-opacity="0.0" clip-path="url(#id_0)" d="M317.383 160.14032C317.383 161.79716 316.03986 163.14032 314.383 163.14032C312.72614 163.14032 311.383 161.79716 311.383 160.14032C311.383 158.48346 312.72614 157.14032 314.383 157.14032C316.03986 157.14032 317.383 158.48346 317.383 160.14032Z" fill-rule="nonzero"/><path fill="#000000" fill-opacity="0.0" clip-path="url(#id_0)" d="M322.422 157.36697C322.422 159.02383 321.07886 160.36697 319.422 160.36697C317.76514 160.36697 316.422 159.02383 316.422 157.36697C316.422 155.71013 317.76514 154.36697 319.422 154.36697C321.07886 154.36697 322.422 155.71013 322.422 157.36697Z" fill-rule="nonzero"/><path fill="#000000" fill-opacity="0.0" clip-path="url(#id_0)" d="M327.461 153.82239C327.461 155.47925 326.11786 156.82239 324.461 156.82239C322.80414 156.82239 321.461 155.47925 321.461 153.82239C321.461 152.16554 322.80414 150.82239 324.461 150.82239C326.11786 150.82239 327.461 152.16554 327.461 153.82239Z" fill-rule="nonzero"/><path fill="#000000" fill-opacity="0.0" clip-path="url(#id_0)" d="M332.5 148.80397C332.5 150.46083 331.15686 151.80397 329.5 151.80397C327.84314 151.80397 326.5 150.46083 326.5 148.80397C326.5 147.14713 327.84314 145.80397 329.5 145.80397C331.15686 145.80397 332.5 147.14713 332.5 148.80397Z" fill-rule="nonzero"/><path fill="#000000" fill-opacity="0.0" clip-path="url(#id_0)" d="M337.539 146.33174C337.539 147.9886 336.19586 149.33174 334.539 149.33174C332.88214 149.33174 331.539 147.9886 331.539 146.33174C331.539 144.67488 332.88214 143.33174 334.539 143.33174C336.19586 143.33174 337.539 144.67488 337.539 146.33174Z" fill-rule="nonzero"/><path fill="#000000" fill-opacity="0.0" clip-path="url(#id_0)" d="M342.578 149.83936C342.578 151.4962 341.23486 152.83936 339.578 152.83936C337.92114 152.83936 336.578 151.4962 336.578 149.83936C336.578 148.1825 337.92114 146.83936 339.578 146.83936C341.23486 146.83936 342.578 148.1825 342.578 149.83936Z" fill-rule="nonzero"/><path fill="#000000" fill-opacity="0.0" clip-path="url(#id_0)" d="M347.617 146.04648C347.617 147.70334 346.27386 149.04648 344.617 149.04648C342.96014 149.04648 341.617 147.70334 341.617 146.04648C341.617 144.38963 342.96014 143.04648 344.617 143.04648C346.27386 143.04648 347.617 144.38963 347.617 146.04648Z" fill-rule="nonzero"/><path fill="#000000" fill-opacity="0.0" clip-path="url(#id_0)" d="M352.656 143.94403C352.656 145.60089 351.31287 146.94403 349.656 146.94403C347.99915 146.94403 346.656 145.60089 346.656 143.94403C346.656 142.28717 347.99915 140.94403 349.656 140.94403C351.31287 140.94403 352.656 142.28717 352.656 143.94403Z" fill-rule="nonzero"/><path fill="#000000" fill-opacity="0.0" clip-path="url(#id_0)" d="M357.695 143.25201C357.695 144.90887 356.35187 146.25201 354.695 146.25201C353.03815 146.25201 351.695 144.90887 351.695 143.25201C351.695 141.59517 353.03815 140.25201 354.695 140.25201C356.35187 140.25201 357.695 141.59517 357.695 143.25201Z" fill-rule="nonzero"/><path fill="#000000" fill-opacity="0.0" clip-path="url(#id_0)" d="M362.734 139.76025C362.734 141.41711 361.39087 142.76025 359.734 142.76025C358.07715 142.76025 356.734 141.41711 356.734 139.76025C356.734 138.1034 358.07715 136.76025 359.734 136.76025C361.39087 136.76025 362.734 138.1034 362.734 139.76025Z" fill-rule="nonzero"/><path fill="#000000" fill-opacity="0.0" clip-path="url(#id_0)" d="M367.773 140.82733C367.773 142.48418 366.42984 143.82733 364.773 143.82733C363.11615 143.82733 361.773 142.48418 361.773 140.82733C361.773 139.17047 363.11615 137.82733 364.773 137.82733C366.42984 137.82733 367.773 139.17047 367.773 140.82733Z" fill-rule="nonzero"/><path fill="#000000" fill-opacity="0.0" clip-path="url(#id_0)" d="M372.812 136.63298C372.812 138.28984 371.46884 139.63298 369.812 139.63298C368.15515 139.63298 366.812 138.28984 366.812 136.63298C366.812 134.97614 368.15515 133.63298 369.812 133.63298C371.46884 133.63298 372.812 134.97614 372.812 136.63298Z" fill-rule="nonzero"/><path fill="#000000" fill-opacity="0.0" clip-path="url(#id_0)" d="M377.851 134.60977C377.851 136.26663 376.50784 137.60977 374.851 137.60977C373.19415 137.60977 371.851 136.26663 371.851 134.60977C371.851 132.95291 373.19415 131.60977 374.851 131.60977C376.50784 131.60977 377.851 132.95291 377.851 134.60977Z" fill-rule="nonzero"/><path fill="#000000" fill-opacity="0.0" clip-path="url(#id_0)" d="M382.89 133.13066C382.89 134.78752 381.54684 136.13066 379.89 136.13066C378.23315 136.13066 376.89 134.78752 376.89 133.13066C376.89 131.4738 378.23315 130.13066 379.89 130.13066C381.54684 130.13066 382.89 131.4738 382.89 133.13066Z" fill-rule="nonzero"/><path fill="#000000" fill-opacity="0.0" clip-path="url(#id_0)" d="M387.929 128.7021C387.929 130.35896 386.58585 131.7021 384.929 131.7021C383.27216 131.7021 381.929 130.35896 381.929 128.7021C381.929 127.04525 383.27216 125.7021 384.929 125.7021C386.58585 125.7021 387.929 127.04525 387.929 128.7021Z" fill-rule="nonzero"/><path fill="#000000" fill-opacity="0.0" clip-path="url(#id_0)" d="M392.968 125.53436C392.968 127.191216 391.62485 128.53436 389.968 128.53436C388.31116 128.53436 386.968 127.191216 386.968 125.53436C386.968 123.8775 388.31116 122.53436 389.968 122.53436C391.62485 122.53436 392.968 123.8775 392.968 125.53436Z" fill-rule="nonzero"/><path fill="#000000" fill-opacity="0.0" clip-path="url(#id_0)" d="M398.007 124.546524C398.007 126.20338 396.66385 127.546524 395.007 127.546524C393.35016 127.546524 392.007 126.20338 392.007 124.546524C392.007 122.88967 393.35016 121.546524 395.007 121.546524C396.66385 121.546524 398.007 122.88967 398.007 124.546524Z" fill-rule="nonzero"/><path fill="#000000" fill-opacity="0.0" clip-path="url(#id_0)" d="M403.046 122.570854C403.046 124.22771 401.70285 125.570854 400.046 125.570854C398.38916 125.570854 397.046 124.22771 397.046 122.570854C397.046 120.913994 398.38916 119.570854 400.046 119.570854C401.70285 119.570854 403.046 120.913994 403.046 122.570854Z" fill-rule="nonzero"/><path fill="#000000" fill-opacity="0.0" clip-path="url(#id_0)" d="M408.085 122.417656C408.085 124.07451 406.74185 125.417656 405.085 125.417656C403.42813 125.417656 402.085 124.07451 402.085 122.417656C402.085 120.7608 403.42813 119.417656 405.085 119.417656C406.74185 119.417656 408.085 120.7608 408.085 122.417656Z" fill-rule="nonzero"/><path fill="#000000" fill-opacity="0.0" clip-path="url(#id_0)" d="M413.124 118.6829C413.124 120.33975 411.78085 121.6829 410.124 121.6829C408.46713 121.6829 407.124 120.33975 407.124 118.6829C407.124 117.02605 408.46713 115.6829 410.124 115.6829C411.78085 115.6829 413.124 117.02605 413.124 118.6829Z" fill-rule="nonzero"/><path fill="#000000" fill-opacity="0.0" clip-path="url(#id_0)" d="M418.163 116.05219C418.163 117.709045 416.81985 119.05219 415.163 119.05219C413.50613 119.05219 412.163 117.709045 412.163 116.05219C412.163 114.39534 413.50613 113.05219 415.163 113.05219C416.81985 113.05219 418.163 114.39534 418.163 116.05219Z" fill-rule="nonzero"/><path fill="#000000" fill-opacity="0.0" clip-path="url(#id_0)" d="M423.202 118.17577C423.202 119.83263 421.85886 121.17577 420.202 121.17577C418.54514 121.17577 417.202 119.83263 417.202 118.17577C417.202 116.51892 418.54514 115.17577 420.202 115.17577C421.85886 115.17577 423.202 116.51892 423.202 118.17577Z" fill-rule="nonzero"/><path fill="#000000" fill-opacity="0.0" clip-path="url(#id_0)" d="M428.241 115.1119C428.241 116.76875 426.89786 118.1119 425.241 118.1119C423.58414 118.1119 422.241 116.76875 422.241 115.1119C422.241 113.45504 423.58414 112.1119 425.241 112.1119C426.89786 112.1119 428.241 113.45504 428.241 115.1119Z" fill-rule="nonzero"/><path fill="#000000" fill-opacity="0.0" clip-path="url(#id_0)" d="M433.28 114.020195C433.28 115.67705 431.93686 117.020195 430.28 117.020195C428.62314 117.020195 427.28 115.67705 427.28 114.020195C427.28 112.36334 428.62314 111.020195 430.28 111.020195C431.93686 111.020195 433.28 112.36334 433.28 114.020195Z" fill-rule="nonzero"/><path fill="#000000" fill-opacity="0.0" clip-path="url(#id_0)" d="M438.319 109.0581C438.319 110.71496 436.97586 112.0581 435.319 112.0581C433.66214 112.0581 432.319 110.71496 432.319 109.0581C432.319 107.401245 433.66214 106.0581 435.319 106.0581C436.97586 106.0581 438.319 107.401245 438.319 109.0581Z" fill-rule="nonzero"/><path fill="#000000" fill-opacity="0.0" clip-path="url(#id_0)" d="M443.358 108.77284C443.358 110.429695 442.01486 111.77284 440.358 111.77284C438.70114 111.77284 437.358 110.429695 437.358 108.77284C437.358 107.11599 438.70114 105.77284 440.358 105.77284C442.01486 105.77284 443.358 107.11599 443.358 108.77284Z" fill-rule="nonzero"/><path fill="#000000" fill-opacity="0.0" clip-path="url(#id_0)" d="M448.397 107.95405C448.397 109.6109 447.05386 110.95405 445.397 110.95405C443.74014 110.95405 442.397 109.6109 442.397 107.95405C442.397 106.297195 443.74014 104.95405 445.397 104.95405C447.05386 104.95405 448.397 106.297195 448.397 107.95405Z" fill-rule="nonzero"/><path fill="#000000" fill-opacity="0.0" clip-path="url(#id_0)" d="M453.436 106.50663C453.436 108.16348 452.09286 109.50663 450.436 109.50663C448.77914 109.50663 447.436 108.16348 447.436 106.50663C447.436 104.84978 448.77914 103.50663 450.436 103.50663C452.09286 103.50663 453.436 104.84978 453.436 106.50663Z" fill-rule="nonzero"/><path fill="#000000" fill-opacity="0.0" clip-path="url(#id_0)" d="M458.475 103.43747C458.475 105.09433 457.13187 106.43747 455.475 106.43747C453.81815 106.43747 452.475 105.09433 452.475 103.43747C452.475 101.78062 453.81815 100.43747 455.475 100.43747C457.13187 100.43747 458.475 101.78062 458.475 103.43747Z" fill-rule="nonzero"/><path fill="#000000" fill-opacity="0.0" clip-path="url(#id_0)" d="M463.514 104.52568C463.514 106.18253 462.17087 107.52568 460.514 107.52568C458.85715 107.52568 457.514 106.18253 457.514 104.52568C457.514 102.86882 458.85715 101.52568 460.514 101.52568C462.17087 101.52568 463.514 102.86882 463.514 104.52568Z" fill-rule="nonzero"/><path fill="#000000" fill-opacity="0.0" clip-path="url(#id_0)" d="M468.553 102.96732C468.553 104.62418 467.20987 105.96732 465.553 105.96732C463.89615 105.96732 462.553 104.62418 462.553 102.96732C462.553 101.31047 463.89615 99.96732 465.553 99.96732C467.20987 99.96732 468.553 101.31047 468.553 102.96732Z" fill-rule="nonzero"/><path fill="#000000" fill-opacity="0.0" clip-path="url(#id_0)" d="M473.592 101.963646C473.592 103.6205 472.24884 104.963646 470.592 104.963646C468.93515 104.963646 467.592 103.6205 467.592 101.963646C467.592 100.306786 468.93515 98.963646 470.592 98.963646C472.24884 98.963646 473.592 100.306786 473.592 101.963646Z" fill-rule="nonzero"/><path fill="#000000" fill-opacity="0.0" clip-path="url(#id_0)" d="M478.631 99.87704C478.631 101.53389 477.28784 102.87704 475.631 102.87704C473.97415 102.87704 472.631 101.53389 472.631 99.87704C472.631 98.220184 473.97415 96.87704 475.631 96.87704C477.28784 96.87704 478.631 98.220184 478.631 99.87704Z" fill-rule="nonzero"/><path fill="#000000" fill-opacity="0.0" clip-path="url(#id_0)" d="M483.67 92.89701C483.67 94.55386 482.32684 95.89701 480.67 95.89701C479.01315 95.89701 477.67 94.55386 477.67 92.89701C477.67 91.24016 479.01315 89.89701 480.67 89.89701C482.32684 89.89701 483.67 91.24016 483.67 92.89701Z" fill-rule="nonzero"/><path fill="#000000" fill-opacity="0.0" clip-path="url(#id_0)" d="M488.709 90.283936C488.709 91.94079 487.36584 93.283936 485.709 93.283936C484.05215 93.283936 482.709 91.94079 482.709 90.283936C482.709 88.62708 484.05215 87.283936 485.709 87.283936C487.36584 87.283936 488.709 88.62708 488.709 90.283936Z" fill-rule="nonzero"/><path fill="#000000" fill-opacity="0.0" clip-path="url(#id_0)" d="M493.748 93.71759C493.748 95.37444 492.40485 96.71759 490.748 96.71759C489.09116 96.71759 487.748 95.37444 487.748 93.71759C487.748 92.06074 489.09116 90.71759 490.748 90.71759C492.40485 90.71759 493.748 92.06074 493.748 93.71759Z" fill-rule="nonzero"/><path fill="#000000" fill-opacity="0.0" clip-path="url(#id_0)" d="M498.787 95.138596C498.787 96.79545 497.44385 98.138596 495.787 98.138596C494.13016 98.138596 492.787 96.79545 492.787 95.138596C492.787 93.48174 494.13016 92.138596 495.787 92.138596C497.44385 92.138596 498.787 93.48174 498.787 95.138596Z" fill-rule="nonzero"/><path fill="#000000" fill-opacity="0.0" clip-path="url(#id_0)" d="M503.826 90.33676C503.826 91.993614 502.48285 93.33676 500.826 93.33676C499.16916 93.33676 497.826 91.993614 497.826 90.33676C497.826 88.67991 499.16916 87.33676 500.826 87.33676C502.48285 87.33676 503.826 88.67991 503.826 90.33676Z" fill-rule="nonzero"/><path fill="#000000" fill-opacity="0.0" clip-path="url(#id_0)" d="M508.865 88.730865C508.865 90.38772 507.52185 91.730865 505.865 91.730865C504.20816 91.730865 502.865 90.38772 502.865 88.730865C502.865 87.07401 504.20816 85.730865 505.865 85.730865C507.52185 85.730865 508.865 87.07401 508.865 88.730865Z" fill-rule="nonzero"/><path fill="#000000" fill-opacity="0.0" clip-path="url(#id_0)" d="M513.904 91.22951C513.904 92.88637 512.56085 94.22951 510.904 94.22951C509.24713 94.22951 507.904 92.88637 507.904 91.22951C507.904 89.572655 509.24713 88.22951 510.904 88.22951C512.56085 88.22951 513.904 89.572655 513.904 91.22951Z" fill-rule="nonzero"/><path fill="#000000" fill-opacity="0.0" clip-path="url(#id_0)" d="M518.943 86.74463C518.943 88.40148 517.59985 89.74463 515.943 89.74463C514.28613 89.74463 512.943 88.40148 512.943 86.74463C512.943 85.087776 514.28613 83.74463 515.943 83.74463C517.59985 83.74463 518.943 85.087776 518.943 86.74463Z" fill-rule="nonzero"/><path fill="#000000" fill-opacity="0.0" clip-path="url(#id_0)" d="M523.982 84.92215C523.982 86.579 522.63885 87.92215 520.982 87.92215C519.32513 87.92215 517.982 86.579 517.982 84.92215C517.982 83.2653 519.32513 81.92215 520.982 81.92215C522.63885 81.92215 523.982 83.2653 523.982 84.92215Z" fill-rule="nonzero"/><path fill="#000000" fill-opacity="0.0" clip-path="url(#id_0)" d="M529.021 80.7014C529.021 82.35825 527.67786 83.7014 526.021 83.7014C524.36414 83.7014 523.021 82.35825 523.021 80.7014C523.021 79.04454 524.36414 77.7014 526.021 77.7014C527.67786 77.7014 529.021 79.04454 529.021 80.7014Z" fill-rule="nonzero"/><path fill="#000000" fill-opacity="0.0" clip-path="url(#id_0)" d="M534.06 81.77904C534.06 83.43589 532.71686 84.77904 531.06 84.77904C529.40314 84.77904 528.06 83.43589 528.06 81.77904C528.06 80.122185 529.40314 78.77904 531.06 78.77904C532.71686 78.77904 534.06 80.122185 534.06 81.77904Z" fill-rule="nonzero"/><path fill="#000000" fill-opacity="0.0" clip-path="url(#id_0)" d="M539.099 81.77904C539.099 83.43589 537.75586 84.77904 536.099 84.77904C534.44214 84.77904 533.099 83.43589 533.099 81.77904C533.099 80.122185 534.44214 78.77904 536.099 78.77904C537.75586 78.77904 539.099 80.122185 539.099 81.77904Z" fill-rule="nonzero"/><path fill="#000000" fill-opacity="0.0" clip-path="url(#id_0)" d="M544.138 82.65594C544.138 84.3128 542.79486 85.65594 541.138 85.65594C539.48114 85.65594 538.138 84.3128 538.138 82.65594C538.138 80.999084 539.48114 79.65594 541.138 79.65594C542.79486 79.65594 544.138 80.999084 544.138 82.65594Z" fill-rule="nonzero"/><path fill="#000000" fill-opacity="0.0" clip-path="url(#id_0)" d="M549.177 78.82081C549.177 80.47767 547.83386 81.82081 546.177 81.82081C544.52014 81.82081 543.177 80.47767 543.177 78.82081C543.177 77.163956 544.52014 75.82081 546.177 75.82081C547.83386 75.82081 549.177 77.163956 549.177 78.82081Z" fill-rule="nonzero"/><path fill="#000000" fill-opacity="0.0" clip-path="url(#id_0)" d="M554.216 78.17106C554.216 79.82791 552.87286 81.17106 551.216 81.17106C549.55914 81.17106 548.216 79.82791 548.216 78.17106C548.216 76.514206 549.55914 75.17106 551.216 75.17106C552.87286 75.17106 554.216 76.514206 554.216 78.17106Z" fill-rule="nonzero"/><path fill="#000000" fill-opacity="0.0" clip-path="url(#id_0)" d="M559.255 76.131996C559.255 77.78885 557.91187 79.131996 556.255 79.131996C554.59814 79.131996 553.255 77.78885 553.255 76.131996C553.255 74.47514 554.59814 73.131996 556.255 73.131996C557.91187 73.131996 559.255 74.47514 559.255 76.131996Z" fill-rule="nonzero"/><path fill="#000000" fill-opacity="0.0" clip-path="url(#id_0)" d="M564.294 78.16578C564.294 79.82263 562.95087 81.16578 561.294 81.16578C559.63715 81.16578 558.294 79.82263 558.294 78.16578C558.294 76.50892 559.63715 75.16578 561.294 75.16578C562.95087 75.16578 564.294 76.50892 564.294 78.16578Z" fill-rule="nonzero"/><path fill="#000000" fill-opacity="0.0" clip-path="url(#id_0)" d="M569.333 75.99465C569.333 77.651505 567.98987 78.99465 566.333 78.99465C564.67615 78.99465 563.333 77.651505 563.333 75.99465C563.333 74.3378 564.67615 72.99465 566.333 72.99465C567.98987 72.99465 569.333 74.3378 569.333 75.99465Z" fill-rule="nonzero"/><path fill="#000000" fill-opacity="0.0" clip-path="url(#id_0)" d="M574.372 73.40092C574.372 75.05778 573.0289 76.40092 571.372 76.40092C569.71515 76.40092 568.372 75.05778 568.372 73.40092C568.372 71.744064 569.71515 70.40092 571.372 70.40092C573.0289 70.40092 574.372 71.744064 574.372 73.40092Z" fill-rule="nonzero"/><path fill="#000000" fill-opacity="0.0" clip-path="url(#id_0)" d="M579.411 71.69994C579.411 73.3568 578.0679 74.69994 576.411 74.69994C574.75415 74.69994 573.411 73.3568 573.411 71.69994C573.411 70.04308 574.75415 68.69994 576.411 68.69994C578.0679 68.69994 579.411 70.04308 579.411 71.69994Z" fill-rule="nonzero"/><path fill="#000000" fill-opacity="0.0" clip-path="url(#id_0)" d="M584.45 74.48913C584.45 76.14598 583.1069 77.48913 581.45 77.48913C579.79315 77.48913 578.45 76.14598 578.45 74.48913C578.45 72.83227 579.79315 71.48913 581.45 71.48913C583.1069 71.48913 584.45 72.83227 584.45 74.48913Z" fill-rule="nonzero"/><path fill="#000000" d="M286.95312 349.45L286.95312 340.85626L293.15625 340.85626L293.15625 341.8719L288.09375 341.8719L288.09375 344.4969L292.84375 344.4969L292.84375 345.5125L288.09375 345.5125L288.09375 348.4344L293.35938 348.4344L293.35938 349.45L286.95312 349.45ZM294.54688 346.6844L295.60938 346.59064Q295.6875 347.2469 295.96875 347.65314Q296.25 348.0594 296.82812 348.325Q297.42188 348.575 298.15625 348.575Q298.79688 348.575 299.29688 348.3875Q299.79688 348.1844 300.03125 347.85626Q300.28125 347.5125 300.28125 347.1219Q300.28125 346.71564 300.04688 346.41876Q299.8125 346.10626 299.28125 345.90314Q298.92188 345.7625 297.73438 345.48126Q296.5625 345.2 296.09375 344.95Q295.46875 344.6219 295.17188 344.15314Q294.875 343.66876 294.875 343.075Q294.875 342.4344 295.23438 341.8719Q295.60938 341.29376 296.3125 341.0125Q297.03125 340.71564 297.89062 340.71564Q298.84375 340.71564 299.57812 341.02814Q300.3125 341.325 300.70312 341.9344Q301.09375 342.52814 301.125 343.27814L300.03125 343.35626Q299.9375 342.54376 299.42188 342.1375Q298.92188 341.71564 297.9375 341.71564Q296.90625 341.71564 296.4375 342.09064Q295.96875 342.46564 295.96875 342.9969Q295.96875 343.46564 296.29688 343.7625Q296.625 344.0594 298.0 344.3719Q299.39062 344.6844 299.90625 344.91876Q300.65625 345.27814 301.01562 345.8094Q301.375 346.325 301.375 347.02814Q301.375 347.71564 300.98438 348.325Q300.59375 348.91876 299.85938 349.2625Q299.125 349.59064 298.20312 349.59064Q297.03125 349.59064 296.23438 349.2625Q295.45312 348.91876 295.0 348.23126Q294.5625 347.54376 294.54688 346.6844ZM309.0625 346.4344L310.1875 346.73126Q309.82812 348.1219 308.90625 348.85626Q307.98438 349.59064 306.64062 349.59064Q305.25 349.59064 304.375 349.02814Q303.5 348.46564 303.04688 347.40314Q302.59375 346.325 302.59375 345.09064Q302.59375 343.7469 303.10938 342.7469Q303.625 341.7469 304.5625 341.23126Q305.51562 340.71564 306.65625 340.71564Q307.9375 340.71564 308.8125 341.3719Q309.70312 342.02814 310.04688 343.21564L308.92188 343.48126Q308.625 342.54376 308.04688 342.1219Q307.48438 341.6844 306.625 341.6844Q305.64062 341.6844 304.96875 342.16876Q304.3125 342.6375 304.03125 343.4344Q303.76562 344.23126 303.76562 345.09064Q303.76562 346.1844 304.07812 346.9969Q304.40625 347.8094 305.07812 348.21564Q305.75 348.6219 306.54688 348.6219Q307.5 348.6219 308.15625 348.075Q308.82812 347.52814 309.0625 346.4344ZM314.375 347.59064L315.40625 347.4344Q315.5 348.0594 315.89062 348.3875Q316.29688 348.71564 317.03125 348.71564Q317.75 348.71564 318.09375 348.4344Q318.45312 348.1375 318.45312 347.73126Q318.45312 347.3719 318.14062 347.16876Q317.92188 347.02814 317.0625 346.8094Q315.90625 346.5125 315.45312 346.3094Q315.01562 346.09064 314.78125 345.71564Q314.54688 345.34064 314.54688 344.8719Q314.54688 344.46564 314.73438 344.10626Q314.92188 343.7469 315.25 343.5125Q315.5 343.34064 315.92188 343.21564Q316.34375 343.09064 316.84375 343.09064Q317.5625 343.09064 318.10938 343.3094Q318.67188 343.5125 318.9375 343.8719Q319.20312 344.23126 319.29688 344.825L318.26562 344.96564Q318.20312 344.4969 317.85938 344.23126Q317.53125 343.95 316.90625 343.95Q316.1875 343.95 315.875 344.2Q315.5625 344.4344 315.5625 344.7625Q315.5625 344.96564 315.6875 345.1219Q315.82812 345.29376 316.09375 345.40314Q316.25 345.46564 317.03125 345.66876Q318.15625 345.98126 318.59375 346.16876Q319.03125 346.35626 319.28125 346.71564Q319.53125 347.075 319.53125 347.6219Q319.53125 348.15314 319.21875 348.6219Q318.92188 349.075 318.34375 349.34064Q317.76562 349.59064 317.03125 349.59064Q315.8125 349.59064 315.17188 349.09064Q314.54688 348.575 314.375 347.59064ZM321.79688 342.075L321.79688 340.85626L322.85938 340.85626L322.85938 342.075L321.79688 342.075ZM321.79688 349.45L321.79688 343.23126L322.85938 343.23126L322.85938 349.45L321.79688 349.45ZM324.59375 349.96564L325.625 350.1219Q325.6875 350.59064 325.98438 350.8094Q326.375 351.10626 327.04688 351.10626Q327.78125 351.10626 328.17188 350.8094Q328.57812 350.5125 328.71875 349.9969Q328.8125 349.66876 328.79688 348.6375Q328.10938 349.45 327.07812 349.45Q325.79688 349.45 325.09375 348.52814Q324.39062 347.59064 324.39062 346.3094Q324.39062 345.41876 324.70312 344.66876Q325.03125 343.90314 325.64062 343.4969Q326.25 343.09064 327.07812 343.09064Q328.1875 343.09064 328.90625 343.98126L328.90625 343.23126L329.875 343.23126L329.875 348.60626Q329.875 350.0594 329.57812 350.66876Q329.28125 351.27814 328.64062 351.6219Q328.0 351.98126 327.0625 351.98126Q325.95312 351.98126 325.26562 351.48126Q324.57812 350.98126 324.59375 349.96564ZM325.46875 346.23126Q325.46875 347.45 325.95312 348.0125Q326.4375 348.575 327.17188 348.575Q327.90625 348.575 328.39062 348.0125Q328.89062 347.45 328.89062 346.2625Q328.89062 345.1219 328.375 344.54376Q327.875 343.96564 327.15625 343.96564Q326.45312 343.96564 325.95312 344.54376Q325.46875 345.10626 325.46875 346.23126ZM331.79688 349.45L331.79688 343.23126L332.73438 343.23126L332.73438 344.10626Q333.42188 343.09064 334.71875 343.09064Q335.28125 343.09064 335.75 343.29376Q336.23438 343.4969 336.46875 343.825Q336.70312 344.15314 336.79688 344.59064Q336.84375 344.8875 336.84375 345.6219L336.84375 349.45L335.79688 349.45L335.79688 345.66876Q335.79688 345.0125 335.67188 344.7Q335.54688 344.3875 335.23438 344.2Q334.92188 343.9969 334.5 343.9969Q333.82812 343.9969 333.32812 344.4344Q332.84375 344.85626 332.84375 346.04376L332.84375 349.45L331.79688 349.45ZM342.85938 348.6844Q342.26562 349.1844 341.71875 349.3875Q341.1875 349.59064 340.5625 349.59064Q339.53125 349.59064 338.98438 349.09064Q338.4375 348.59064 338.4375 347.8094Q338.4375 347.35626 338.64062 346.98126Q338.84375 346.59064 339.1875 346.3719Q339.53125 346.1375 339.95312 346.02814Q340.25 345.9344 340.89062 345.85626Q342.15625 345.71564 342.76562 345.4969Q342.76562 345.27814 342.76562 345.23126Q342.76562 344.575 342.46875 344.3094Q342.0625 343.96564 341.26562 343.96564Q340.53125 343.96564 340.17188 344.23126Q339.8125 344.48126 339.64062 345.1375L338.60938 344.9969Q338.75 344.34064 339.07812 343.9344Q339.40625 343.52814 340.01562 343.3094Q340.625 343.09064 341.42188 343.09064Q342.21875 343.09064 342.71875 343.27814Q343.21875 343.46564 343.45312 343.7469Q343.6875 344.02814 343.78125 344.46564Q343.82812 344.73126 343.82812 345.4344L343.82812 346.84064Q343.82812 348.3094 343.89062 348.7Q343.96875 349.09064 344.17188 349.45L343.0625 349.45Q342.90625 349.1219 342.85938 348.6844ZM342.76562 346.325Q342.1875 346.5594 341.04688 346.73126Q340.39062 346.825 340.125 346.95Q339.85938 347.0594 339.70312 347.27814Q339.5625 347.4969 339.5625 347.77814Q339.5625 348.2 339.875 348.48126Q340.20312 348.7625 340.8125 348.7625Q341.42188 348.7625 341.89062 348.4969Q342.375 348.23126 342.59375 347.7625Q342.76562 347.40314 342.76562 346.71564L342.76562 346.325ZM345.76562 349.45L345.76562 340.85626L346.82812 340.85626L346.82812 349.45L345.76562 349.45ZM353.8125 351.98126Q352.9375 350.8719 352.32812 349.40314Q351.73438 347.91876 351.73438 346.34064Q351.73438 344.95 352.17188 343.66876Q352.70312 342.1844 353.8125 340.71564L354.5625 340.71564Q353.85938 341.9344 353.625 342.45Q353.26562 343.2625 353.0625 344.1375Q352.8125 345.23126 352.8125 346.34064Q352.8125 349.16876 354.5625 351.98126L353.8125 351.98126ZM360.96875 343.23126L360.96875 349.45L360.01562 349.45L360.01562 348.71564Q359.71875 349.1844 359.42188 349.35626Q359.01562 349.59064 358.46875 349.59064Q357.98438 349.59064 357.60938 349.40314Q357.32812 349.2625 356.98438 348.825L356.98438 351.84064L355.9375 351.84064L355.9375 343.23126L356.98438 343.23126L356.98438 345.85626Q356.98438 347.29376 357.125 347.73126Q357.28125 348.15314 357.625 348.40314Q357.96875 348.6375 358.42188 348.6375Q358.89062 348.6375 359.25 348.3875Q359.625 348.1219 359.76562 347.71564Q359.92188 347.3094 359.92188 345.8875L359.92188 343.23126L360.96875 343.23126ZM362.375 347.59064L363.40625 347.4344Q363.5 348.0594 363.89062 348.3875Q364.29688 348.71564 365.03125 348.71564Q365.75 348.71564 366.09375 348.4344Q366.45312 348.1375 366.45312 347.73126Q366.45312 347.3719 366.14062 347.16876Q365.92188 347.02814 365.0625 346.8094Q363.90625 346.5125 363.45312 346.3094Q363.01562 346.09064 362.78125 345.71564Q362.54688 345.34064 362.54688 344.8719Q362.54688 344.46564 362.73438 344.10626Q362.92188 343.7469 363.25 343.5125Q363.5 343.34064 363.92188 343.21564Q364.34375 343.09064 364.84375 343.09064Q365.5625 343.09064 366.10938 343.3094Q366.67188 343.5125 366.9375 343.8719Q367.20312 344.23126 367.29688 344.825L366.26562 344.96564Q366.20312 344.4969 365.85938 344.23126Q365.53125 343.95 364.90625 343.95Q364.1875 343.95 363.875 344.2Q363.5625 344.4344 363.5625 344.7625Q363.5625 344.96564 363.6875 345.1219Q363.82812 345.29376 364.09375 345.40314Q364.25 345.46564 365.03125 345.66876Q366.15625 345.98126 366.59375 346.16876Q367.03125 346.35626 367.28125 346.71564Q367.53125 347.075 367.53125 347.6219Q367.53125 348.15314 367.21875 348.6219Q366.92188 349.075 366.34375 349.34064Q365.76562 349.59064 365.03125 349.59064Q363.8125 349.59064 363.17188 349.09064Q362.54688 348.575 362.375 347.59064ZM370.48438 351.98126L369.73438 351.98126Q371.48438 349.16876 371.48438 346.34064Q371.48438 345.2469 371.23438 344.15314Q371.03125 343.27814 370.67188 342.46564Q370.4375 341.95 369.73438 340.71564L370.48438 340.71564Q371.57812 342.1844 372.10938 343.66876Q372.5625 344.95 372.5625 346.34064Q372.5625 347.91876 371.95312 349.40314Q371.34375 350.8719 370.48438 351.98126Z" fill-rule="nonzero"/><path fill="#000000" d="M29.550013 212.57396L21.971888 212.57396L21.971888 215.40208L20.956263 215.40208L20.956263 208.58958L21.971888 208.58958L21.971888 211.43333L29.550013 211.43333L29.550013 212.57396ZM29.550013 207.88646L20.956263 207.88646L20.956263 206.83958L24.034388 206.83958Q23.190638 206.10521 23.190638 204.98021Q23.190638 204.27708 23.471888 203.77708Q23.737513 203.26146 24.221888 203.04271Q24.690638 202.82396 25.612513 202.82396L29.550013 202.82396L29.550013 203.87083L25.612513 203.87083Q24.815638 203.87083 24.456263 204.21458Q24.096888 204.55833 24.096888 205.18333Q24.096888 205.65208 24.346888 206.07396Q24.581263 206.48021 25.003138 206.66771Q25.409388 206.83958 26.143763 206.83958L29.550013 206.83958L29.550013 207.88646ZM29.550013 200.90208L23.331263 200.90208L23.331263 199.94896L24.268763 199.94896Q23.612513 199.58958 23.409388 199.29271Q23.190638 198.98021 23.190638 198.60521Q23.190638 198.07396 23.518763 197.52708L24.503138 197.88646Q24.268763 198.27708 24.268763 198.65208Q24.268763 199.01146 24.487513 199.29271Q24.690638 199.55833 25.065638 199.66771Q25.628138 199.85521 26.284388 199.85521L29.550013 199.85521L29.550013 200.90208ZM29.550013 192.80833L28.628138 192.80833Q29.690638 193.54271 29.690638 194.79271Q29.690638 195.33958 29.487513 195.82396Q29.268763 196.29271 28.956263 196.52708Q28.628138 196.76146 28.159388 196.85521Q27.862513 196.91771 27.175013 196.91771L23.331263 196.91771L23.331263 195.85521L26.784388 195.85521Q27.596888 195.85521 27.893763 195.79271Q28.300013 195.69896 28.550013 195.38646Q28.784388 195.05833 28.784388 194.57396Q28.784388 194.10521 28.550013 193.69896Q28.300013 193.27708 27.878138 193.10521Q27.456263 192.91771 26.659388 192.91771L23.331263 192.91771L23.331263 191.87083L29.550013 191.87083L29.550013 192.80833ZM27.690638 190.30833L27.534388 189.27708Q28.159388 189.18333 28.487513 188.79271Q28.815638 188.38646 28.815638 187.65208Q28.815638 186.93333 28.534388 186.58958Q28.237513 186.23021 27.831263 186.23021Q27.471888 186.23021 27.268763 186.54271Q27.128138 186.76146 26.909388 187.62083Q26.612513 188.77708 26.409388 189.23021Q26.190638 189.66771 25.815638 189.90208Q25.440638 190.13646 24.971888 190.13646Q24.565638 190.13646 24.206263 189.94896Q23.846888 189.76146 23.612513 189.43333Q23.440638 189.18333 23.315638 188.76146Q23.190638 188.33958 23.190638 187.83958Q23.190638 187.12083 23.409388 186.57396Q23.612513 186.01146 23.971888 185.74583Q24.331263 185.48021 24.925013 185.38646L25.065638 186.41771Q24.596888 186.48021 24.331263 186.82396Q24.050013 187.15208 24.050013 187.77708Q24.050013 188.49583 24.300013 188.80833Q24.534388 189.12083 24.862513 189.12083Q25.065638 189.12083 25.221888 188.99583Q25.393763 188.85521 25.503138 188.58958Q25.565638 188.43333 25.768763 187.65208Q26.081263 186.52708 26.268763 186.08958Q26.456263 185.65208 26.815638 185.40208Q27.175013 185.15208 27.721888 185.15208Q28.253138 185.15208 28.721888 185.46458Q29.175013 185.76146 29.440638 186.33958Q29.690638 186.91771 29.690638 187.65208Q29.690638 188.87083 29.190638 189.51146Q28.675013 190.13646 27.690638 190.30833ZM28.612513 180.58958L29.534388 180.43333Q29.628138 180.88646 29.628138 181.23021Q29.628138 181.80833 29.456263 182.12083Q29.268763 182.43333 28.971888 182.57396Q28.675013 182.69896 27.721888 182.69896L24.143763 182.69896L24.143763 183.46458L23.331263 183.46458L23.331263 182.69896L21.784388 182.69896L21.159388 181.65208L23.331263 181.65208L23.331263 180.58958L24.143763 180.58958L24.143763 181.65208L27.784388 181.65208Q28.237513 181.65208 28.362513 181.60521Q28.487513 181.54271 28.565638 181.41771Q28.643763 181.29271 28.643763 181.05833Q28.643763 180.87083 28.612513 180.58958ZM32.08126 174.87083Q30.971888 175.74583 29.503138 176.35521Q28.018763 176.94896 26.440638 176.94896Q25.050013 176.94896 23.768763 176.51146Q22.284388 175.98021 20.815638 174.87083L20.815638 174.12083Q22.034388 174.82396 22.550013 175.05833Q23.362513 175.41771 24.237513 175.62083Q25.331263 175.87083 26.440638 175.87083Q29.268763 175.87083 32.08126 174.12083L32.08126 174.87083ZM30.065638 173.08958L30.221888 172.05833Q30.690638 171.99583 30.909388 171.69896Q31.206263 171.30833 31.206263 170.63646Q31.206263 169.90208 30.909388 169.51146Q30.612513 169.10521 30.096888 168.96458Q29.768763 168.87083 28.737513 168.88646Q29.550013 169.57396 29.550013 170.60521Q29.550013 171.88646 28.628138 172.58958Q27.690638 173.29271 26.409388 173.29271Q25.518763 173.29271 24.768763 172.98021Q24.003138 172.65208 23.596888 172.04271Q23.190638 171.43333 23.190638 170.60521Q23.190638 169.49583 24.081263 168.77708L23.331263 168.77708L23.331263 167.80833L28.706263 167.80833Q30.159388 167.80833 30.768763 168.10521Q31.378138 168.40208 31.721888 169.04271Q32.08126 169.68333 32.08126 170.62083Q32.08126 171.73021 31.581263 172.41771Q31.081263 173.10521 30.065638 173.08958ZM26.331263 172.21458Q27.550013 172.21458 28.112513 171.73021Q28.675013 171.24583 28.675013 170.51146Q28.675013 169.77708 28.112513 169.29271Q27.550013 168.79271 26.362513 168.79271Q25.221888 168.79271 24.643763 169.30833Q24.065638 169.80833 24.065638 170.52708Q24.065638 171.23021 24.643763 171.73021Q25.206263 172.21458 26.331263 172.21458ZM29.550013 165.63646L24.143763 165.63646L24.143763 166.57396L23.331263 166.57396L23.331263 165.63646L22.659388 165.63646Q22.034388 165.63646 21.737513 165.52708Q21.315638 165.37083 21.065638 164.99583Q20.815638 164.60521 20.815638 163.91771Q20.815638 163.46458 20.925013 162.93333L21.831263 163.08958Q21.784388 163.41771 21.784388 163.71458Q21.784388 164.19896 21.987513 164.40208Q22.190638 164.58958 22.753138 164.58958L23.331263 164.58958L23.331263 163.37083L24.143763 163.37083L24.143763 164.58958L29.550013 164.58958L29.550013 165.63646ZM32.08126 162.19896L32.08126 162.94896Q29.268763 161.19896 26.440638 161.19896Q25.346888 161.19896 24.253138 161.44896Q23.378138 161.65208 22.565638 162.01146Q22.050013 162.24583 20.815638 162.94896L20.815638 162.19896Q22.284388 161.10521 23.768763 160.57396Q25.050013 160.12083 26.440638 160.12083Q28.018763 160.12083 29.503138 160.73021Q30.971888 161.33958 32.08126 162.19896Z" fill-rule="nonzero"/><path fill="#000000" d="M53.925 301.8719L53.925 300.8094L57.175 300.8094L57.175 301.8719L53.925 301.8719ZM62.01875 304.45L60.971874 304.45L60.971874 297.73126Q60.58125 298.09064 59.95625 298.46564Q59.346874 298.825 58.8625 298.9969L58.8625 297.98126Q59.7375 297.5594 60.39375 296.98126Q61.065624 296.3875 61.346874 295.825L62.01875 295.825L62.01875 304.45ZM65.05 300.21564Q65.05 298.6844 65.3625 297.7625Q65.675 296.825 66.28438 296.325Q66.90938 295.825 67.84688 295.825Q68.53438 295.825 69.05 296.10626Q69.58125 296.3875 69.925 296.91876Q70.26875 297.4344 70.45625 298.1844Q70.64375 298.9344 70.64375 300.21564Q70.64375 301.73126 70.33125 302.65314Q70.03438 303.575 69.40938 304.09064Q68.8 304.59064 67.84688 304.59064Q66.6125 304.59064 65.89375 303.7Q65.05 302.6375 65.05 300.21564ZM66.12813 300.21564Q66.12813 302.325 66.62813 303.02814Q67.12813 303.73126 67.84688 303.73126Q68.58125 303.73126 69.06563 303.02814Q69.56563 302.325 69.56563 300.21564Q69.56563 298.09064 69.06563 297.40314Q68.58125 296.7 67.83125 296.7Q67.1125 296.7 66.675 297.3094Q66.12813 298.09064 66.12813 300.21564Z" fill-rule="nonzero"/><path fill="#000000" d="M65.05 252.50897Q65.05 250.97772 65.3625 250.05585Q65.675 249.11835 66.28438 248.61835Q66.90938 248.11835 67.84688 248.11835Q68.53438 248.11835 69.05 248.3996Q69.58125 248.68085 69.925 249.2121Q70.26875 249.72772 70.45625 250.47772Q70.64375 251.22772 70.64375 252.50897Q70.64375 254.0246 70.33125 254.94647Q70.03438 255.86835 69.40938 256.38397Q68.8 256.88397 67.84688 256.88397Q66.6125 256.88397 65.89375 255.99335Q65.05 254.93085 65.05 252.50897ZM66.12813 252.50897Q66.12813 254.61835 66.62813 255.32147Q67.12813 256.0246 67.84688 256.0246Q68.58125 256.0246 69.06563 255.32147Q69.56563 254.61835 69.56563 252.50897Q69.56563 250.38397 69.06563 249.69647Q68.58125 248.99335 67.83125 248.99335Q67.1125 248.99335 66.675 249.60272Q66.12813 250.38397 66.12813 252.50897Z" fill-rule="nonzero"/><path fill="#000000" d="M62.01875 209.03667L60.971874 209.03667L60.971874 202.31792Q60.58125 202.67729 59.95625 203.05229Q59.346874 203.41167 58.8625 203.58354L58.8625 202.56792Q59.7375 202.14604 60.39375 201.56792Q61.065624 200.97417 61.346874 200.41167L62.01875 200.41167L62.01875 209.03667ZM65.05 204.80229Q65.05 203.27104 65.3625 202.34917Q65.675 201.41167 66.28438 200.91167Q66.90938 200.41167 67.84688 200.41167Q68.53438 200.41167 69.05 200.69292Q69.58125 200.97417 69.925 201.50542Q70.26875 202.02104 70.45625 202.77104Q70.64375 203.52104 70.64375 204.80229Q70.64375 206.31792 70.33125 207.23979Q70.03438 208.16167 69.40938 208.67729Q68.8 209.17729 67.84688 209.17729Q66.6125 209.17729 65.89375 208.28667Q65.05 207.22417 65.05 204.80229ZM66.12813 204.80229Q66.12813 206.91167 66.62813 207.61479Q67.12813 208.31792 67.84688 208.31792Q68.58125 208.31792 69.06563 207.61479Q69.56563 206.91167 69.56563 204.80229Q69.56563 202.67729 69.06563 201.98979Q68.58125 201.28667 67.83125 201.28667Q67.1125 201.28667 66.675 201.89604Q66.12813 202.67729 66.12813 204.80229Z" fill-rule="nonzero"/><path fill="#000000" d="M63.596874 160.31438L63.596874 161.33L57.909374 161.33Q57.909374 160.955 58.034374 160.59563Q58.253124 160.0175 58.721874 159.455Q59.20625 158.8925 60.1125 158.15813Q61.51875 157.00188 62.003124 156.33Q62.503124 155.65813 62.503124 155.06438Q62.503124 154.43938 62.05 154.0175Q61.596874 153.58 60.878124 153.58Q60.1125 153.58 59.659374 154.03313Q59.20625 154.48625 59.190624 155.29875L58.1125 155.18938Q58.221874 153.97063 58.940624 153.34563Q59.675 152.705 60.909374 152.705Q62.14375 152.705 62.8625 153.3925Q63.58125 154.08 63.58125 155.09563Q63.58125 155.61125 63.3625 156.11125Q63.159374 156.59563 62.659374 157.15813Q62.175 157.705 61.05 158.65813Q60.096874 159.455 59.815624 159.75188Q59.55 160.03313 59.378124 160.31438L63.596874 160.31438ZM65.05 157.09563Q65.05 155.56438 65.3625 154.6425Q65.675 153.705 66.28438 153.205Q66.90938 152.705 67.84688 152.705Q68.53438 152.705 69.05 152.98625Q69.58125 153.2675 69.925 153.79875Q70.26875 154.31438 70.45625 155.06438Q70.64375 155.81438 70.64375 157.09563Q70.64375 158.61125 70.33125 159.53313Q70.03438 160.455 69.40938 160.97063Q68.8 161.47063 67.84688 161.47063Q66.6125 161.47063 65.89375 160.58Q65.05 159.5175 65.05 157.09563ZM66.12813 157.09563Q66.12813 159.205 66.62813 159.90813Q67.12813 160.61125 67.84688 160.61125Q68.58125 160.61125 69.06563 159.90813Q69.56563 159.205 69.56563 157.09563Q69.56563 154.97063 69.06563 154.28313Q68.58125 153.58 67.83125 153.58Q67.1125 153.58 66.675 154.18938Q66.12813 154.97063 66.12813 157.09563Z" fill-rule="nonzero"/><path fill="#000000" d="M58.05 111.35771L59.1125 111.21709Q59.284374 112.10771 59.721874 112.51396Q60.159374 112.90459 60.784374 112.90459Q61.534374 112.90459 62.05 112.38896Q62.565624 111.87334 62.565624 111.10771Q62.565624 110.38896 62.08125 109.92021Q61.6125 109.43584 60.878124 109.43584Q60.58125 109.43584 60.128124 109.56084L60.253124 108.62334Q60.3625 108.63896 60.425 108.63896Q61.096874 108.63896 61.628124 108.29521Q62.175 107.93584 62.175 107.20146Q62.175 106.62334 61.784374 106.24834Q61.39375 105.85771 60.76875 105.85771Q60.159374 105.85771 59.7375 106.24834Q59.33125 106.63896 59.221874 107.40459L58.159374 107.21709Q58.346874 106.17021 59.034374 105.59209Q59.721874 104.99834 60.7375 104.99834Q61.440624 104.99834 62.034374 105.31084Q62.628124 105.60771 62.940624 106.12334Q63.253124 106.63896 63.253124 107.23271Q63.253124 107.77959 62.95625 108.24834Q62.659374 108.70146 62.08125 108.96709Q62.83125 109.13896 63.253124 109.70146Q63.675 110.24834 63.675 111.09209Q63.675 112.21709 62.846874 112.99834Q62.034374 113.77959 60.784374 113.77959Q59.659374 113.77959 58.909374 113.10771Q58.159374 112.42021 58.05 111.35771ZM65.05 109.38896Q65.05 107.85771 65.3625 106.93584Q65.675 105.99834 66.28438 105.49834Q66.90938 104.99834 67.84688 104.99834Q68.53438 104.99834 69.05 105.27959Q69.58125 105.56084 69.925 106.09209Q70.26875 106.60771 70.45625 107.35771Q70.64375 108.10771 70.64375 109.38896Q70.64375 110.90459 70.33125 111.82646Q70.03438 112.74834 69.40938 113.26396Q68.8 113.76396 67.84688 113.76396Q66.6125 113.76396 65.89375 112.87334Q65.05 111.81084 65.05 109.38896ZM66.12813 109.38896Q66.12813 111.49834 66.62813 112.20146Q67.12813 112.90459 67.84688 112.90459Q68.58125 112.90459 69.06563 112.20146Q69.56563 111.49834 69.56563 109.38896Q69.56563 107.26396 69.06563 106.57646Q68.58125 105.87334 67.83125 105.87334Q67.1125 105.87334 66.675 106.48271Q66.12813 107.26396 66.12813 109.38896Z" fill-rule="nonzero"/><path fill="#000000" d="M61.425 65.916664L61.425 63.854164L57.70625 63.854164L57.70625 62.885414L61.628124 57.322914L62.4875 57.322914L62.4875 62.885414L63.64375 62.885414L63.64375 63.854164L62.4875 63.854164L62.4875 65.916664L61.425 65.916664ZM61.425 62.885414L61.425 59.02604L58.7375 62.885414L61.425 62.885414ZM65.05 61.68229Q65.05 60.15104 65.3625 59.229164Q65.675 58.291664 66.28438 57.791664Q66.90938 57.291664 67.84688 57.291664Q68.53438 57.291664 69.05 57.572914Q69.58125 57.854164 69.925 58.385414Q70.26875 58.90104 70.45625 59.65104Q70.64375 60.40104 70.64375 61.68229Q70.64375 63.197914 70.33125 64.11979Q70.03438 65.041664 69.40938 65.55729Q68.8 66.05729 67.84688 66.05729Q66.6125 66.05729 65.89375 65.166664Q65.05 64.104164 65.05 61.68229ZM66.12813 61.68229Q66.12813 63.791664 66.62813 64.49479Q67.12813 65.197914 67.84688 65.197914Q68.58125 65.197914 69.06563 64.49479Q69.56563 63.791664 69.56563 61.68229Q69.56563 59.55729 69.06563 58.86979Q68.58125 58.166664 67.83125 58.166664Q67.1125 58.166664 66.675 58.77604Q66.12813 59.55729 66.12813 61.68229Z" fill-rule="nonzero"/><path fill="#000000" d="M68.01875 317.45L66.97188 317.45L66.97188 310.73126Q66.58125 311.09064 65.95625 311.46564Q65.34688 311.825 64.8625 311.9969L64.8625 310.98126Q65.7375 310.5594 66.39375 309.98126Q67.06563 309.3875 67.34688 308.825L68.01875 308.825L68.01875 317.45ZM71.05 313.21564Q71.05 311.6844 71.3625 310.7625Q71.675 309.825 72.28438 309.325Q72.90938 308.825 73.84688 308.825Q74.53438 308.825 75.05 309.10626Q75.58125 309.3875 75.925 309.91876Q76.26875 310.4344 76.45625 311.1844Q76.64375 311.9344 76.64375 313.21564Q76.64375 314.73126 76.33125 315.65314Q76.03438 316.575 75.40938 317.09064Q74.8 317.59064 73.84688 317.59064Q72.6125 317.59064 71.89375 316.7Q71.05 315.6375 71.05 313.21564ZM72.12813 313.21564Q72.12813 315.325 72.62813 316.02814Q73.12813 316.73126 73.84688 316.73126Q74.58125 316.73126 75.06563 316.02814Q75.56563 315.325 75.56563 313.21564Q75.56563 311.09064 75.06563 310.40314Q74.58125 309.7 73.83125 309.7Q73.1125 309.7 72.675 310.3094Q72.12813 311.09064 72.12813 313.21564ZM78.05 313.21564Q78.05 311.6844 78.3625 310.7625Q78.675 309.825 79.28438 309.325Q79.90938 308.825 80.84688 308.825Q81.53438 308.825 82.05 309.10626Q82.58125 309.3875 82.925 309.91876Q83.26875 310.4344 83.45625 311.1844Q83.64375 311.9344 83.64375 313.21564Q83.64375 314.73126 83.33125 315.65314Q83.03438 316.575 82.40938 317.09064Q81.8 317.59064 80.84688 317.59064Q79.6125 317.59064 78.89375 316.7Q78.05 315.6375 78.05 313.21564ZM79.12813 313.21564Q79.12813 315.325 79.62813 316.02814Q80.12813 316.73126 80.84688 316.73126Q81.58125 316.73126 82.06563 316.02814Q82.56563 315.325 82.56563 313.21564Q82.56563 311.09064 82.06563 310.40314Q81.58125 309.7 80.83125 309.7Q80.1125 309.7 79.675 310.3094Q79.12813 311.09064 79.12813 313.21564ZM85.05 313.21564Q85.05 311.6844 85.3625 310.7625Q85.675 309.825 86.28438 309.325Q86.90938 308.825 87.84688 308.825Q88.53438 308.825 89.05 309.10626Q89.58125 309.3875 89.925 309.91876Q90.26875 310.4344 90.45625 311.1844Q90.64375 311.9344 90.64375 313.21564Q90.64375 314.73126 90.33125 315.65314Q90.03438 316.575 89.40938 317.09064Q88.8 317.59064 87.84688 317.59064Q86.6125 317.59064 85.89375 316.7Q85.05 315.6375 85.05 313.21564ZM86.12813 313.21564Q86.12813 315.325 86.62813 316.02814Q87.12813 316.73126 87.84688 316.73126Q88.58125 316.73126 89.06563 316.02814Q89.56563 315.325 89.56563 313.21564Q89.56563 311.09064 89.06563 310.40314Q88.58125 309.7 87.83125 309.7Q87.1125 309.7 86.675 310.3094Q86.12813 311.09064 86.12813 313.21564Z" fill-rule="nonzero"/><path fill="#000000" d="M193.99374 317.45L192.94687 317.45L192.94687 310.73126Q192.55624 311.09064 191.93124 311.46564Q191.32187 311.825 190.8375 311.9969L190.8375 310.98126Q191.7125 310.5594 192.36874 309.98126Q193.04062 309.3875 193.32187 308.825L193.99374 308.825L193.99374 317.45ZM202.57187 316.4344L202.57187 317.45L196.88437 317.45Q196.88437 317.075 197.00937 316.71564Q197.22812 316.1375 197.69687 315.575Q198.18124 315.0125 199.0875 314.27814Q200.49374 313.1219 200.97812 312.45Q201.47812 311.77814 201.47812 311.1844Q201.47812 310.5594 201.025 310.1375Q200.57187 309.7 199.85312 309.7Q199.0875 309.7 198.63437 310.15314Q198.18124 310.60626 198.16562 311.41876L197.0875 311.3094Q197.19687 310.09064 197.91562 309.46564Q198.65 308.825 199.88437 308.825Q201.11874 308.825 201.8375 309.5125Q202.55624 310.2 202.55624 311.21564Q202.55624 311.73126 202.3375 312.23126Q202.13437 312.71564 201.63437 313.27814Q201.15 313.825 200.025 314.77814Q199.07187 315.575 198.79062 315.8719Q198.525 316.15314 198.35312 316.4344L202.57187 316.4344ZM204.025 315.2L205.13437 315.10626Q205.25937 315.91876 205.69687 316.325Q206.15 316.73126 206.79062 316.73126Q207.54062 316.73126 208.07187 316.15314Q208.60312 315.575 208.60312 314.6375Q208.60312 313.73126 208.0875 313.21564Q207.5875 312.6844 206.75937 312.6844Q206.25937 312.6844 205.8375 312.91876Q205.43124 313.15314 205.19687 313.5125L204.2125 313.3875L205.04062 308.98126L209.32187 308.98126L209.32187 309.98126L205.88437 309.98126L205.43124 312.29376Q206.19687 311.7469 207.04062 311.7469Q208.16562 311.7469 208.93124 312.52814Q209.7125 313.3094 209.7125 314.54376Q209.7125 315.7 209.04062 316.5594Q208.2125 317.59064 206.79062 317.59064Q205.61874 317.59064 204.86874 316.9344Q204.13437 316.27814 204.025 315.2ZM211.025 313.21564Q211.025 311.6844 211.3375 310.7625Q211.65 309.825 212.25937 309.325Q212.88437 308.825 213.82187 308.825Q214.50937 308.825 215.025 309.10626Q215.55624 309.3875 215.9 309.91876Q216.24374 310.4344 216.43124 311.1844Q216.61874 311.9344 216.61874 313.21564Q216.61874 314.73126 216.30624 315.65314Q216.00937 316.575 215.38437 317.09064Q214.775 317.59064 213.82187 317.59064Q212.5875 317.59064 211.86874 316.7Q211.025 315.6375 211.025 313.21564ZM212.10312 313.21564Q212.10312 315.325 212.60312 316.02814Q213.10312 316.73126 213.82187 316.73126Q214.55624 316.73126 215.04062 316.02814Q215.54062 315.325 215.54062 313.21564Q215.54062 311.09064 215.04062 310.40314Q214.55624 309.7 213.80624 309.7Q213.0875 309.7 212.65 310.3094Q212.10312 311.09064 212.10312 313.21564Z" fill-rule="nonzero"/><path fill="#000000" d="M319.96875 317.45L318.92188 317.45L318.92188 310.73126Q318.53125 311.09064 317.90625 311.46564Q317.29688 311.825 316.8125 311.9969L316.8125 310.98126Q317.6875 310.5594 318.34375 309.98126Q319.01562 309.3875 319.29688 308.825L319.96875 308.825L319.96875 317.45ZM323.0 315.2L324.10938 315.10626Q324.23438 315.91876 324.67188 316.325Q325.125 316.73126 325.76562 316.73126Q326.51562 316.73126 327.04688 316.15314Q327.57812 315.575 327.57812 314.6375Q327.57812 313.73126 327.0625 313.21564Q326.5625 312.6844 325.73438 312.6844Q325.23438 312.6844 324.8125 312.91876Q324.40625 313.15314 324.17188 313.5125L323.1875 313.3875L324.01562 308.98126L328.29688 308.98126L328.29688 309.98126L324.85938 309.98126L324.40625 312.29376Q325.17188 311.7469 326.01562 311.7469Q327.14062 311.7469 327.90625 312.52814Q328.6875 313.3094 328.6875 314.54376Q328.6875 315.7 328.01562 316.5594Q327.1875 317.59064 325.76562 317.59064Q324.59375 317.59064 323.84375 316.9344Q323.10938 316.27814 323.0 315.2ZM330.0 313.21564Q330.0 311.6844 330.3125 310.7625Q330.625 309.825 331.23438 309.325Q331.85938 308.825 332.79688 308.825Q333.48438 308.825 334.0 309.10626Q334.53125 309.3875 334.875 309.91876Q335.21875 310.4344 335.40625 311.1844Q335.59375 311.9344 335.59375 313.21564Q335.59375 314.73126 335.28125 315.65314Q334.98438 316.575 334.35938 317.09064Q333.75 317.59064 332.79688 317.59064Q331.5625 317.59064 330.84375 316.7Q330.0 315.6375 330.0 313.21564ZM331.07812 313.21564Q331.07812 315.325 331.57812 316.02814Q332.07812 316.73126 332.79688 316.73126Q333.53125 316.73126 334.01562 316.02814Q334.51562 315.325 334.51562 313.21564Q334.51562 311.09064 334.01562 310.40314Q333.53125 309.7 332.78125 309.7Q332.0625 309.7 331.625 310.3094Q331.07812 311.09064 331.07812 313.21564ZM337.0 313.21564Q337.0 311.6844 337.3125 310.7625Q337.625 309.825 338.23438 309.325Q338.85938 308.825 339.79688 308.825Q340.48438 308.825 341.0 309.10626Q341.53125 309.3875 341.875 309.91876Q342.21875 310.4344 342.40625 311.1844Q342.59375 311.9344 342.59375 313.21564Q342.59375 314.73126 342.28125 315.65314Q341.98438 316.575 341.35938 317.09064Q340.75 317.59064 339.79688 317.59064Q338.5625 317.59064 337.84375 316.7Q337.0 315.6375 337.0 313.21564ZM338.07812 313.21564Q338.07812 315.325 338.57812 316.02814Q339.07812 316.73126 339.79688 316.73126Q340.53125 316.73126 341.01562 316.02814Q341.51562 315.325 341.51562 313.21564Q341.51562 311.09064 341.01562 310.40314Q340.53125 309.7 339.78125 309.7Q339.0625 309.7 338.625 310.3094Q338.07812 311.09064 338.07812 313.21564Z" fill-rule="nonzero"/><path fill="#000000" d="M445.94376 317.45L444.89688 317.45L444.89688 310.73126Q444.50626 311.09064 443.88126 311.46564Q443.27188 311.825 442.7875 311.9969L442.7875 310.98126Q443.6625 310.5594 444.31876 309.98126Q444.99063 309.3875 445.27188 308.825L445.94376 308.825L445.94376 317.45ZM449.0375 309.98126L449.0375 308.96564L454.6 308.96564L454.6 309.79376Q453.7875 310.66876 452.975 312.1219Q452.17813 313.5594 451.74063 315.09064Q451.4125 316.16876 451.33438 317.45L450.24063 317.45Q450.25626 316.4344 450.63126 314.9969Q451.02188 313.5594 451.725 312.23126Q452.44376 310.90314 453.25626 309.98126L449.0375 309.98126ZM455.975 315.2L457.08438 315.10626Q457.20938 315.91876 457.64688 316.325Q458.1 316.73126 458.74063 316.73126Q459.49063 316.73126 460.02188 316.15314Q460.55313 315.575 460.55313 314.6375Q460.55313 313.73126 460.0375 313.21564Q459.5375 312.6844 458.70938 312.6844Q458.20938 312.6844 457.7875 312.91876Q457.38126 313.15314 457.14688 313.5125L456.1625 313.3875L456.99063 308.98126L461.27188 308.98126L461.27188 309.98126L457.83438 309.98126L457.38126 312.29376Q458.14688 311.7469 458.99063 311.7469Q460.11563 311.7469 460.88126 312.52814Q461.6625 313.3094 461.6625 314.54376Q461.6625 315.7 460.99063 316.5594Q460.1625 317.59064 458.74063 317.59064Q457.56876 317.59064 456.81876 316.9344Q456.08438 316.27814 455.975 315.2ZM462.975 313.21564Q462.975 311.6844 463.2875 310.7625Q463.6 309.825 464.20938 309.325Q464.83438 308.825 465.77188 308.825Q466.45938 308.825 466.975 309.10626Q467.50626 309.3875 467.85 309.91876Q468.19376 310.4344 468.38126 311.1844Q468.56876 311.9344 468.56876 313.21564Q468.56876 314.73126 468.25626 315.65314Q467.95938 316.575 467.33438 317.09064Q466.725 317.59064 465.77188 317.59064Q464.5375 317.59064 463.81876 316.7Q462.975 315.6375 462.975 313.21564ZM464.05313 313.21564Q464.05313 315.325 464.55313 316.02814Q465.05313 316.73126 465.77188 316.73126Q466.50626 316.73126 466.99063 316.02814Q467.49063 315.325 467.49063 313.21564Q467.49063 311.09064 466.99063 310.40314Q466.50626 309.7 465.75626 309.7Q465.0375 309.7 464.6 310.3094Q464.05313 311.09064 464.05313 313.21564Z" fill-rule="nonzero"/><path fill="#000000" d="M573.4969 316.4344L573.4969 317.45L567.8094 317.45Q567.8094 317.075 567.9344 316.71564Q568.15314 316.1375 568.6219 315.575Q569.10626 315.0125 570.0125 314.27814Q571.41876 313.1219 571.90314 312.45Q572.40314 311.77814 572.40314 311.1844Q572.40314 310.5594 571.95 310.1375Q571.4969 309.7 570.77814 309.7Q570.0125 309.7 569.5594 310.15314Q569.10626 310.60626 569.09064 311.41876L568.0125 311.3094Q568.1219 310.09064 568.84064 309.46564Q569.575 308.825 570.8094 308.825Q572.04376 308.825 572.7625 309.5125Q573.48126 310.2 573.48126 311.21564Q573.48126 311.73126 573.2625 312.23126Q573.0594 312.71564 572.5594 313.27814Q572.075 313.825 570.95 314.77814Q569.9969 315.575 569.71564 315.8719Q569.45 316.15314 569.27814 316.4344L573.4969 316.4344ZM574.95 313.21564Q574.95 311.6844 575.2625 310.7625Q575.575 309.825 576.1844 309.325Q576.8094 308.825 577.7469 308.825Q578.4344 308.825 578.95 309.10626Q579.48126 309.3875 579.825 309.91876Q580.16876 310.4344 580.35626 311.1844Q580.54376 311.9344 580.54376 313.21564Q580.54376 314.73126 580.23126 315.65314Q579.9344 316.575 579.3094 317.09064Q578.7 317.59064 577.7469 317.59064Q576.5125 317.59064 575.79376 316.7Q574.95 315.6375 574.95 313.21564ZM576.02814 313.21564Q576.02814 315.325 576.52814 316.02814Q577.02814 316.73126 577.7469 316.73126Q578.48126 316.73126 578.96564 316.02814Q579.46564 315.325 579.46564 313.21564Q579.46564 311.09064 578.96564 310.40314Q578.48126 309.7 577.73126 309.7Q577.0125 309.7 576.575 310.3094Q576.02814 311.09064 576.02814 313.21564ZM581.95 313.21564Q581.95 311.6844 582.2625 310.7625Q582.575 309.825 583.1844 309.325Q583.8094 308.825 584.7469 308.825Q585.4344 308.825 585.95 309.10626Q586.48126 309.3875 586.825 309.91876Q587.16876 310.4344 587.35626 311.1844Q587.54376 311.9344 587.54376 313.21564Q587.54376 314.73126 587.23126 315.65314Q586.9344 316.575 586.3094 317.09064Q585.7 317.59064 584.7469 317.59064Q583.5125 317.59064 582.79376 316.7Q581.95 315.6375 581.95 313.21564ZM583.02814 313.21564Q583.02814 315.325 583.52814 316.02814Q584.02814 316.73126 584.7469 316.73126Q585.48126 316.73126 585.96564 316.02814Q586.46564 315.325 586.46564 313.21564Q586.46564 311.09064 585.96564 310.40314Q585.48126 309.7 584.73126 309.7Q584.0125 309.7 583.575 310.3094Q583.02814 311.09064 583.02814 313.21564ZM588.95 313.21564Q588.95 311.6844 589.2625 310.7625Q589.575 309.825 590.1844 309.325Q590.8094 308.825 591.7469 308.825Q592.4344 308.825 592.95 309.10626Q593.48126 309.3875 593.825 309.91876Q594.16876 310.4344 594.35626 311.1844Q594.54376 311.9344 594.54376 313.21564Q594.54376 314.73126 594.23126 315.65314Q593.9344 316.575 593.3094 317.09064Q592.7 317.59064 591.7469 317.59064Q590.5125 317.59064 589.79376 316.7Q588.95 315.6375 588.95 313.21564ZM590.02814 313.21564Q590.02814 315.325 590.52814 316.02814Q591.02814 316.73126 591.7469 316.73126Q592.48126 316.73126 592.96564 316.02814Q593.46564 315.325 593.46564 313.21564Q593.46564 311.09064 592.96564 310.40314Q592.48126 309.7 591.73126 309.7Q591.0125 309.7 590.575 310.3094Q590.02814 311.09064 590.02814 313.21564Z" fill-rule="nonzero"/><path fill="#757575" d="M23.7375 37.55L23.7375 24.925L19.01875 24.925L19.01875 23.2375L30.3625 23.2375L30.3625 24.925L25.628124 24.925L25.628124 37.55L23.7375 37.55ZM31.8625 37.55L31.8625 23.2375L33.628124 23.2375L33.628124 28.3625Q34.8625 26.940624 36.7375 26.940624Q37.878124 26.940624 38.721874 27.39375Q39.58125 27.846874 39.940624 28.659374Q40.315624 29.45625 40.315624 30.971874L40.315624 37.55L38.565624 37.55L38.565624 30.971874Q38.565624 29.659374 37.9875 29.065624Q37.409374 28.45625 36.378124 28.45625Q35.596874 28.45625 34.89375 28.8625Q34.20625 29.26875 33.909374 29.971874Q33.628124 30.659374 33.628124 31.878124L33.628124 37.55L31.8625 37.55ZM41.846874 37.55L41.846874 27.175L43.425 27.175L43.425 28.753124Q44.034374 27.64375 44.55 27.3Q45.065624 26.940624 45.675 26.940624Q46.565624 26.940624 47.4875 27.503124L46.878124 29.14375Q46.2375 28.753124 45.596874 28.753124Q45.01875 28.753124 44.55 29.1125Q44.096874 29.45625 43.89375 30.065624Q43.6125 31.003124 43.6125 32.1125L43.6125 37.55L41.846874 37.55ZM55.659374 37.55L55.659374 36.01875Q54.45625 37.784374 52.378124 37.784374Q51.45625 37.784374 50.659374 37.440624Q49.8625 37.08125 49.471874 36.55Q49.096874 36.01875 48.940624 35.2375Q48.83125 34.721874 48.83125 33.596874L48.83125 27.175L50.58125 27.175L50.58125 32.925Q50.58125 34.3 50.690624 34.784374Q50.8625 35.471874 51.39375 35.878124Q51.940624 36.26875 52.721874 36.26875Q53.51875 36.26875 54.20625 35.8625Q54.909374 35.45625 55.190624 34.76875Q55.4875 34.065624 55.4875 32.7375L55.4875 27.175L57.2375 27.175L57.2375 37.55L55.659374 37.55ZM58.159374 34.45625L59.909374 34.175Q60.05 35.221874 60.721874 35.784374Q61.39375 36.33125 62.596874 36.33125Q63.8 36.33125 64.37813 35.846874Q64.97188 35.346874 64.97188 34.690624Q64.97188 34.096874 64.45625 33.753124Q64.09688 33.51875 62.659374 33.159374Q60.721874 32.659374 59.971874 32.315624Q59.2375 31.95625 58.846874 31.33125Q58.45625 30.690624 58.45625 29.925Q58.45625 29.2375 58.76875 28.64375Q59.096874 28.05 59.64375 27.659374Q60.05 27.3625 60.753124 27.159374Q61.471874 26.940624 62.284374 26.940624Q63.503124 26.940624 64.425 27.3Q65.34688 27.64375 65.78438 28.253124Q66.22188 28.846874 66.39375 29.846874L64.675 30.08125Q64.55 29.284374 63.9875 28.846874Q63.425 28.39375 62.409374 28.39375Q61.190624 28.39375 60.675 28.8Q60.159374 29.190624 60.159374 29.721874Q60.159374 30.065624 60.378124 30.346874Q60.58125 30.628124 61.05 30.815624Q61.315624 30.909374 62.596874 31.253124Q64.47188 31.753124 65.20625 32.08125Q65.94063 32.39375 66.3625 33.003124Q66.78438 33.596874 66.78438 34.503124Q66.78438 35.378124 66.26875 36.159374Q65.75313 36.940624 64.78438 37.3625Q63.815624 37.784374 62.596874 37.784374Q60.58125 37.784374 59.51875 36.940624Q58.45625 36.096874 58.159374 34.45625ZM72.70625 35.971874L72.95625 37.534374Q72.22188 37.690624 71.62813 37.690624Q70.675 37.690624 70.14375 37.39375Q69.62813 37.08125 69.40938 36.596874Q69.19063 36.096874 69.19063 34.51875L69.19063 28.55L67.90938 28.55L67.90938 27.175L69.19063 27.175L69.19063 24.6125L70.94063 23.55L70.94063 27.175L72.70625 27.175L72.70625 28.55L70.94063 28.55L70.94063 34.6125Q70.94063 35.3625 71.03438 35.58125Q71.12813 35.784374 71.33125 35.925Q71.55 36.05 71.94063 36.05Q72.22188 36.05 72.70625 35.971874ZM84.22188 41.753124Q82.76875 39.925 81.76875 37.471874Q80.76875 35.003124 80.76875 32.3625Q80.76875 30.034374 81.51875 27.909374Q82.39375 25.440624 84.22188 22.9875L85.4875 22.9875Q84.3 25.01875 83.925 25.89375Q83.33125 27.2375 82.9875 28.70625Q82.56563 30.534374 82.56563 32.378124Q82.56563 37.065624 85.4875 41.753124L84.22188 41.753124ZM87.55 38.409374L89.25313 38.659374Q89.3625 39.45625 89.84688 39.815624Q90.50313 40.3 91.64375 40.3Q92.8625 40.3 93.51875 39.815624Q94.19063 39.33125 94.425 38.45625Q94.56563 37.909374 94.55 36.190624Q93.39375 37.55 91.675 37.55Q89.53438 37.55 88.3625 36.003124Q87.19063 34.45625 87.19063 32.3Q87.19063 30.815624 87.72188 29.565624Q88.26875 28.315624 89.28438 27.628124Q90.31563 26.940624 91.69063 26.940624Q93.51875 26.940624 94.72188 28.425L94.72188 27.175L96.33125 27.175L96.33125 36.14375Q96.33125 38.565624 95.83125 39.565624Q95.34688 40.58125 94.26875 41.159374Q93.20625 41.753124 91.64375 41.753124Q89.8 41.753124 88.64375 40.925Q87.50313 40.096874 87.55 38.409374ZM89.00313 32.175Q89.00313 34.221874 89.81563 35.159374Q90.62813 36.096874 91.84688 36.096874Q93.05 36.096874 93.8625 35.159374Q94.69063 34.221874 94.69063 32.2375Q94.69063 30.33125 93.84688 29.3625Q93.00313 28.39375 91.81563 28.39375Q90.64375 28.39375 89.81563 29.346874Q89.00313 30.3 89.00313 32.175ZM99.28438 37.55L99.28438 28.55L97.7375 28.55L97.7375 27.175L99.28438 27.175L99.28438 26.08125Q99.28438 25.034374 99.47188 24.51875Q99.72188 23.83125 100.3625 23.409374Q101.00313 22.9875 102.15938 22.9875Q102.90938 22.9875 103.8 23.159374L103.53438 24.690624Q102.9875 24.596874 102.50313 24.596874Q101.70625 24.596874 101.3625 24.940624Q101.03438 25.284374 101.03438 26.221874L101.03438 27.175L103.06563 27.175L103.06563 28.55L101.03438 28.55L101.03438 37.55L99.28438 37.55ZM106.01875 41.753124L104.76875 41.753124Q107.675 37.065624 107.675 32.378124Q107.675 30.534374 107.26875 28.7375Q106.925 27.26875 106.33125 25.925Q105.95625 25.034374 104.76875 22.9875L106.01875 22.9875Q107.8625 25.440624 108.7375 27.909374Q109.4875 30.034374 109.4875 32.3625Q109.4875 35.003124 108.47188 37.471874Q107.47188 39.925 106.01875 41.753124ZM120.75313 37.55L116.8 27.175L118.65938 27.175L120.89375 33.39375Q121.25313 34.39375 121.55 35.471874Q121.78438 34.659374 122.20625 33.503124L124.50313 27.175L126.31563 27.175L122.39375 37.55L120.75313 37.55ZM126.15938 34.45625L127.90938 34.175Q128.05 35.221874 128.72188 35.784374Q129.39375 36.33125 130.59688 36.33125Q131.8 36.33125 132.37813 35.846874Q132.97188 35.346874 132.97188 34.690624Q132.97188 34.096874 132.45625 33.753124Q132.09688 33.51875 130.65938 33.159374Q128.72188 32.659374 127.97188 32.315624Q127.2375 31.95625 126.84688 31.33125Q126.45625 30.690624 126.45625 29.925Q126.45625 29.2375 126.76875 28.64375Q127.09688 28.05 127.64375 27.659374Q128.05 27.3625 128.75313 27.159374Q129.47188 26.940624 130.28438 26.940624Q131.50313 26.940624 132.425 27.3Q133.34688 27.64375 133.78438 28.253124Q134.22188 28.846874 134.39375 29.846874L132.675 30.08125Q132.55 29.284374 131.9875 28.846874Q131.425 28.39375 130.40938 28.39375Q129.19063 28.39375 128.675 28.8Q128.15938 29.190624 128.15938 29.721874Q128.15938 30.065624 128.37813 30.346874Q128.58125 30.628124 129.05 30.815624Q129.31563 30.909374 130.59688 31.253124Q132.47188 31.753124 133.20625 32.08125Q133.94063 32.39375 134.3625 33.003124Q134.78438 33.596874 134.78438 34.503124Q134.78438 35.378124 134.26875 36.159374Q133.75313 36.940624 132.78438 37.3625Q131.81563 37.784374 130.59688 37.784374Q128.58125 37.784374 127.51875 36.940624Q126.45625 36.096874 126.15938 34.45625ZM137.3625 37.55L137.3625 35.55L139.3625 35.55L139.3625 37.55L137.3625 37.55ZM149.12813 37.55L149.12813 23.2375L159.4875 23.2375L159.4875 24.925L151.03438 24.925L151.03438 29.3L158.94063 29.3L158.94063 30.9875L151.03438 30.9875L151.03438 35.8625L159.81563 35.8625L159.81563 37.55L149.12813 37.55ZM161.45625 32.95625L163.2375 32.8Q163.3625 33.8625 163.81563 34.55Q164.28438 35.2375 165.25313 35.675Q166.2375 36.096874 167.47188 36.096874Q168.55 36.096874 169.37813 35.784374Q170.20625 35.45625 170.6125 34.89375Q171.01875 34.33125 171.01875 33.659374Q171.01875 32.9875 170.62813 32.4875Q170.2375 31.9875 169.34688 31.64375Q168.76875 31.409374 166.78438 30.940624Q164.81563 30.471874 164.03438 30.05Q163.00313 29.51875 162.50313 28.721874Q162.00313 27.925 162.00313 26.940624Q162.00313 25.846874 162.6125 24.909374Q163.22188 23.971874 164.40938 23.4875Q165.59688 22.9875 167.03438 22.9875Q168.62813 22.9875 169.84688 23.503124Q171.06563 24.01875 171.70625 25.01875Q172.3625 26.003124 172.40938 27.26875L170.59688 27.409374Q170.45625 26.05 169.6125 25.3625Q168.76875 24.659374 167.1125 24.659374Q165.39375 24.659374 164.59688 25.3Q163.81563 25.925 163.81563 26.8Q163.81563 27.58125 164.37813 28.08125Q164.925 28.58125 167.2375 29.096874Q169.55 29.6125 170.40938 30.003124Q171.65938 30.58125 172.25313 31.471874Q172.84688 32.346874 172.84688 33.503124Q172.84688 34.64375 172.19063 35.659374Q171.53438 36.675 170.3 37.2375Q169.08125 37.8 167.55 37.8Q165.6125 37.8 164.3 37.2375Q162.9875 36.659374 162.2375 35.51875Q161.4875 34.378124 161.45625 32.95625ZM185.31563 32.534374L187.20625 33.003124Q186.6125 35.346874 185.06563 36.58125Q183.51875 37.8 181.26875 37.8Q178.95625 37.8 177.50313 36.8625Q176.06563 35.909374 175.3 34.128124Q174.55 32.33125 174.55 30.284374Q174.55 28.05 175.39375 26.39375Q176.25313 24.721874 177.83125 23.8625Q179.40938 22.9875 181.3 22.9875Q183.45625 22.9875 184.90938 24.08125Q186.37813 25.175 186.95625 27.159374L185.09688 27.596874Q184.59688 26.034374 183.64375 25.33125Q182.70625 24.6125 181.26875 24.6125Q179.6125 24.6125 178.50313 25.409374Q177.39375 26.190624 176.94063 27.534374Q176.50313 28.8625 176.50313 30.26875Q176.50313 32.096874 177.03438 33.471874Q177.56563 34.83125 178.69063 35.503124Q179.81563 36.175 181.1125 36.175Q182.70625 36.175 183.81563 35.253124Q184.925 34.33125 185.31563 32.534374ZM194.15938 34.45625L195.90938 34.175Q196.05 35.221874 196.72188 35.784374Q197.39375 36.33125 198.59688 36.33125Q199.8 36.33125 200.37813 35.846874Q200.97188 35.346874 200.97188 34.690624Q200.97188 34.096874 200.45625 33.753124Q200.09688 33.51875 198.65938 33.159374Q196.72188 32.659374 195.97188 32.315624Q195.2375 31.95625 194.84688 31.33125Q194.45625 30.690624 194.45625 29.925Q194.45625 29.2375 194.76875 28.64375Q195.09688 28.05 195.64375 27.659374Q196.05 27.3625 196.75313 27.159374Q197.47188 26.940624 198.28438 26.940624Q199.50313 26.940624 200.425 27.3Q201.34688 27.64375 201.78438 28.253124Q202.22188 28.846874 202.39375 29.846874L200.675 30.08125Q200.55 29.284374 199.9875 28.846874Q199.425 28.39375 198.40938 28.39375Q197.19063 28.39375 196.675 28.8Q196.15938 29.190624 196.15938 29.721874Q196.15938 30.065624 196.37813 30.346874Q196.58125 30.628124 197.05 30.815624Q197.31563 30.909374 198.59688 31.253124Q200.47188 31.753124 201.20625 32.08125Q201.94063 32.39375 202.3625 33.003124Q202.78438 33.596874 202.78438 34.503124Q202.78438 35.378124 202.26875 36.159374Q201.75313 36.940624 200.78438 37.3625Q199.81563 37.784374 198.59688 37.784374Q196.58125 37.784374 195.51875 36.940624Q194.45625 36.096874 194.15938 34.45625ZM204.87813 25.253124L204.87813 23.2375L206.64375 23.2375L206.64375 25.253124L204.87813 25.253124ZM204.87813 37.55L204.87813 27.175L206.64375 27.175L206.64375 37.55L204.87813 37.55ZM208.55 38.409374L210.25313 38.659374Q210.3625 39.45625 210.84688 39.815624Q211.50313 40.3 212.64375 40.3Q213.8625 40.3 214.51875 39.815624Q215.19063 39.33125 215.425 38.45625Q215.56563 37.909374 215.55 36.190624Q214.39375 37.55 212.675 37.55Q210.53438 37.55 209.3625 36.003124Q208.19063 34.45625 208.19063 32.3Q208.19063 30.815624 208.72188 29.565624Q209.26875 28.315624 210.28438 27.628124Q211.31563 26.940624 212.69063 26.940624Q214.51875 26.940624 215.72188 28.425L215.72188 27.175L217.33125 27.175L217.33125 36.14375Q217.33125 38.565624 216.83125 39.565624Q216.34688 40.58125 215.26875 41.159374Q214.20625 41.753124 212.64375 41.753124Q210.8 41.753124 209.64375 40.925Q208.50313 40.096874 208.55 38.409374ZM210.00313 32.175Q210.00313 34.221874 210.81563 35.159374Q211.62813 36.096874 212.84688 36.096874Q214.05 36.096874 214.8625 35.159374Q215.69063 34.221874 215.69063 32.2375Q215.69063 30.33125 214.84688 29.3625Q214.00313 28.39375 212.81563 28.39375Q211.64375 28.39375 210.81563 29.346874Q210.00313 30.3 210.00313 32.175ZM219.8625 37.55L219.8625 27.175L221.45625 27.175L221.45625 28.659374Q222.59688 26.940624 224.75313 26.940624Q225.69063 26.940624 226.47188 27.284374Q227.26875 27.6125 227.65938 28.159374Q228.05 28.70625 228.20625 29.45625Q228.3 29.95625 228.3 31.175L228.3 37.55L226.53438 37.55L226.53438 31.2375Q226.53438 30.159374 226.33125 29.628124Q226.12813 29.096874 225.59688 28.784374Q225.08125 28.471874 224.37813 28.471874Q223.25313 28.471874 222.44063 29.190624Q221.62813 29.89375 221.62813 31.878124L221.62813 37.55L219.8625 37.55ZM236.64375 36.26875Q235.65938 37.096874 234.75313 37.440624Q233.84688 37.784374 232.81563 37.784374Q231.1125 37.784374 230.19063 36.95625Q229.26875 36.1125 229.26875 34.815624Q229.26875 34.05 229.6125 33.425Q229.97188 32.8 230.53438 32.425Q231.09688 32.034374 231.8 31.83125Q232.31563 31.70625 233.3625 31.565624Q235.4875 31.315624 236.4875 30.971874Q236.50313 30.6125 236.50313 30.503124Q236.50313 29.440624 236.00313 28.9875Q235.33125 28.39375 234.00313 28.39375Q232.75313 28.39375 232.15938 28.83125Q231.58125 29.26875 231.3 30.378124L229.58125 30.14375Q229.81563 29.034374 230.34688 28.3625Q230.87813 27.675 231.89375 27.315624Q232.90938 26.940624 234.25313 26.940624Q235.58125 26.940624 236.40938 27.253124Q237.2375 27.565624 237.62813 28.05Q238.01875 28.51875 238.175 29.2375Q238.26875 29.690624 238.26875 30.8625L238.26875 33.20625Q238.26875 35.659374 238.37813 36.315624Q238.4875 36.95625 238.83125 37.55L236.9875 37.55Q236.72188 37.003124 236.64375 36.26875ZM236.4875 32.346874Q235.53438 32.7375 233.6125 33.003124Q232.53438 33.159374 232.08125 33.3625Q231.64375 33.55 231.39375 33.925Q231.14375 34.3 231.14375 34.76875Q231.14375 35.471874 231.675 35.940624Q232.20625 36.409374 233.2375 36.409374Q234.25313 36.409374 235.03438 35.971874Q235.83125 35.51875 236.20625 34.753124Q236.4875 34.14375 236.4875 32.9875L236.4875 32.346874ZM240.83125 37.55L240.83125 23.2375L242.58125 23.2375L242.58125 37.55L240.83125 37.55ZM254.22188 41.753124Q252.76875 39.925 251.76875 37.471874Q250.76875 35.003124 250.76875 32.3625Q250.76875 30.034374 251.51875 27.909374Q252.39375 25.440624 254.22188 22.9875L255.4875 22.9875Q254.3 25.01875 253.925 25.89375Q253.33125 27.2375 252.9875 28.70625Q252.56563 30.534374 252.56563 32.378124Q252.56563 37.065624 255.4875 41.753124L254.22188 41.753124ZM266.4875 27.175L266.4875 37.55L264.925 37.55L264.925 36.315624Q264.40936 37.096874 263.90936 37.39375Q263.2375 37.8 262.3156 37.8Q261.51874 37.8 260.89374 37.471874Q260.425 37.221874 259.84686 36.503124L259.84686 41.51875L258.1125 41.51875L258.1125 27.175L259.84686 27.175L259.84686 31.565624Q259.84686 33.971874 260.09686 34.675Q260.3625 35.378124 260.925 35.8Q261.5031 36.20625 262.2375 36.20625Q263.01874 36.20625 263.6281 35.784374Q264.2531 35.346874 264.5031 34.675Q264.76874 33.9875 264.76874 31.596874L264.76874 27.175L266.4875 27.175ZM268.15936 34.45625L269.90936 34.175Q270.05 35.221874 270.72186 35.784374Q271.39374 36.33125 272.59686 36.33125Q273.8 36.33125 274.3781 35.846874Q274.97186 35.346874 274.97186 34.690624Q274.97186 34.096874 274.45624 33.753124Q274.09686 33.51875 272.65936 33.159374Q270.72186 32.659374 269.97186 32.315624Q269.2375 31.95625 268.84686 31.33125Q268.45624 30.690624 268.45624 29.925Q268.45624 29.2375 268.76874 28.64375Q269.09686 28.05 269.64374 27.659374Q270.05 27.3625 270.7531 27.159374Q271.47186 26.940624 272.28436 26.940624Q273.5031 26.940624 274.425 27.3Q275.34686 27.64375 275.78436 28.253124Q276.22186 28.846874 276.39374 29.846874L274.675 30.08125Q274.55 29.284374 273.9875 28.846874Q273.425 28.39375 272.40936 28.39375Q271.1906 28.39375 270.675 28.8Q270.15936 29.190624 270.15936 29.721874Q270.15936 30.065624 270.3781 30.346874Q270.58124 30.628124 271.05 30.815624Q271.3156 30.909374 272.59686 31.253124Q274.47186 31.753124 275.20624 32.08125Q275.9406 32.39375 276.3625 33.003124Q276.78436 33.596874 276.78436 34.503124Q276.78436 35.378124 276.26874 36.159374Q275.7531 36.940624 274.78436 37.3625Q273.8156 37.784374 272.59686 37.784374Q270.58124 37.784374 269.51874 36.940624Q268.45624 36.096874 268.15936 34.45625ZM280.01874 41.753124L278.76874 41.753124Q281.675 37.065624 281.675 32.378124Q281.675 30.534374 281.26874 28.7375Q280.925 27.26875 280.33124 25.925Q279.95624 25.034374 278.76874 22.9875L280.01874 22.9875Q281.8625 25.440624 282.7375 27.909374Q283.4875 30.034374 283.4875 32.3625Q283.4875 35.003124 282.47186 37.471874Q281.47186 39.925 280.01874 41.753124Z" fill-rule="nonzero"/></svg>